<?xml version="1.0" encoding="UTF-8"?>
<svg xmlns="http://www.w3.org/2000/svg" xmlns:xlink="http://www.w3.org/1999/xlink" viewBox="0 0 1228.15 2087.31">
  <defs>
    <style>
      .cls-1, .cls-2, .cls-3, .cls-4, .cls-5, .cls-6, .cls-7, .cls-8, .cls-9, .cls-10, .cls-11, .cls-12 {
        fill: none;
      }

      .cls-2 {
        stroke: #1b1464;
      }

      .cls-2, .cls-3, .cls-4, .cls-5, .cls-6, .cls-7, .cls-8, .cls-9, .cls-13, .cls-10, .cls-11, .cls-12, .cls-14 {
        stroke-miterlimit: 10;
      }

      .cls-2, .cls-11, .cls-14 {
        stroke-width: 4.8px;
      }

      .cls-15 {
        fill: #faa700;
      }

      .cls-3 {
        stroke: #f9ce79;
      }

      .cls-3, .cls-9 {
        stroke-width: 2px;
      }

      .cls-16 {
        fill: #fff5e3;
      }

      .cls-17 {
        fill: #603813;
      }

      .cls-18 {
        fill: #010309;
      }

      .cls-19 {
        fill: #f8a801;
      }

      .cls-20 {
        fill: #396386;
      }

      .cls-21 {
        fill: #02172a;
      }

      .cls-22 {
        fill: #5a4a8e;
      }

      .cls-23 {
        fill: #4b3b86;
      }

      .cls-24 {
        fill: #de4c04;
      }

      .cls-25 {
        fill: #332c78;
      }

      .cls-26 {
        fill: #b61b12;
      }

      .cls-27 {
        fill: #a59b91;
      }

      .cls-28 {
        fill: #1e5773;
      }

      .cls-29 {
        fill: #c72c10;
      }

      .cls-30 {
        fill: #020409;
      }

      .cls-31 {
        fill: #534741;
      }

      .cls-32 {
        fill: #0f2c54;
      }

      .cls-33 {
        fill: #c22914;
      }

      .cls-34 {
        fill: #1d1d1b;
      }

      .cls-4 {
        stroke-width: 1.65px;
      }

      .cls-4, .cls-6, .cls-8, .cls-13, .cls-12 {
        stroke: #02172a;
      }

      .cls-35 {
        fill: #533488;
      }

      .cls-36 {
        fill: #737599;
      }

      .cls-37 {
        fill: #012f32;
      }

      .cls-38 {
        fill: #022744;
      }

      .cls-39 {
        fill: #303b73;
      }

      .cls-40 {
        fill: #292d65;
      }

      .cls-41 {
        fill: #0e2d53;
      }

      .cls-42 {
        fill: #453349;
      }

      .cls-43 {
        fill: #292b60;
      }

      .cls-44 {
        fill: #1f5977;
      }

      .cls-5 {
        stroke: #1d1d1b;
        stroke-width: .96px;
      }

      .cls-45 {
        fill: #b61d12;
      }

      .cls-6 {
        stroke-width: 1.94px;
      }

      .cls-46 {
        fill: #ba2b27;
      }

      .cls-47 {
        fill: #fba900;
      }

      .cls-48 {
        fill: #9f9f9f;
      }

      .cls-49 {
        fill: #52428d;
      }

      .cls-50 {
        fill: #045157;
      }

      .cls-51 {
        fill: #f7931e;
      }

      .cls-52, .cls-14 {
        fill: #af1717;
      }

      .cls-7 {
        stroke-width: 1.12px;
      }

      .cls-7, .cls-9, .cls-10 {
        stroke: #000;
      }

      .cls-53 {
        fill: #55387c;
      }

      .cls-54 {
        fill: #553889;
      }

      .cls-55 {
        fill: #c7b299;
      }

      .cls-56 {
        fill: #1c0f06;
      }

      .cls-57 {
        fill: #1f5b79;
      }

      .cls-8 {
        stroke-width: 2.23px;
      }

      .cls-58 {
        fill: #f9ce79;
      }

      .cls-13 {
        fill: #fff;
        stroke-width: 5px;
      }

      .cls-10 {
        stroke-width: 7.35px;
      }

      .cls-11, .cls-14 {
        stroke: #af1717;
      }

      .cls-59 {
        fill: #011627;
      }

      .cls-12 {
        stroke-width: 6px;
      }

      .cls-60 {
        fill: #3f2d69;
      }

      .cls-61 {
        fill: #e65c02;
      }

      .cls-62 {
        fill: #061524;
      }

      .cls-63 {
        fill: #021f35;
      }

      .cls-64 {
        fill: #42210b;
      }

      .cls-65 {
        fill: #061628;
      }

      .cls-66 {
        fill: url(#Sfumatura_senza_nome_3);
      }

      .cls-67 {
        fill: url(#Sfumatura_senza_nome_4);
      }

      .cls-68 {
        fill: #a04103;
      }

      .cls-69 {
        fill: #f9dea7;
      }

      .cls-70 {
        fill: #fbda94;
      }

      .cls-71 {
        fill: #034947;
      }

      .cls-72 {
        clip-path: url(#clippath);
      }

      .cls-73 {
        fill: #3a658a;
      }
    </style>
    <clipPath id="clippath">
      <rect class="cls-32" x="100.12" y="956.36" width="164.04" height="60.65"/>
    </clipPath>
    <linearGradient id="Sfumatura_senza_nome_4" data-name="Sfumatura senza nome 4" x1="911.77" y1="1002.24" x2="911.77" y2="1096.81" gradientTransform="translate(0 1966.13) scale(1 -1)" gradientUnits="userSpaceOnUse">
      <stop offset="0" stop-color="#faa700"/>
      <stop offset=".31" stop-color="#f7a500"/>
      <stop offset=".45" stop-color="#f0a000"/>
      <stop offset=".56" stop-color="#e39700"/>
      <stop offset=".65" stop-color="#d18b01"/>
      <stop offset=".73" stop-color="#b97b01"/>
      <stop offset=".8" stop-color="#9c6702"/>
      <stop offset=".87" stop-color="#794f03"/>
      <stop offset=".93" stop-color="#513304"/>
      <stop offset=".99" stop-color="#251505"/>
      <stop offset="1" stop-color="#1c0f06"/>
    </linearGradient>
    <linearGradient id="Sfumatura_senza_nome_3" data-name="Sfumatura senza nome 3" x1="951.76" y1="1002.24" x2="951.76" y2="1098.16" gradientTransform="translate(0 1966.13) scale(1 -1)" gradientUnits="userSpaceOnUse">
      <stop offset="0" stop-color="#faa700"/>
      <stop offset=".25" stop-color="#f7a500"/>
      <stop offset=".39" stop-color="#ef9f00"/>
      <stop offset=".51" stop-color="#e19600"/>
      <stop offset=".61" stop-color="#cd8801"/>
      <stop offset=".7" stop-color="#b37601"/>
      <stop offset=".79" stop-color="#936102"/>
      <stop offset=".87" stop-color="#6e4703"/>
      <stop offset=".94" stop-color="#432a04"/>
      <stop offset="1" stop-color="#1c0f06"/>
    </linearGradient>
  </defs>
  <g id="Nero">
    <rect id="sfondo_nero" class="cls-41" x="68.74" y="1016.81" width="1086" height="966.5"/>
    <g id="tendone_nero">
      <path class="cls-18" d="M545.53,1022.65h156.26c-9.78,16.14-20.59,40.34-30.96,66.48-24.91,62.74-47.34,136.58-47.34,136.58-13.45-54.22-31.04-101.81-47.34-139.48-11.46-26.49-22.29-48.07-30.61-63.58h0Z"/>
      <polygon class="cls-49" points="627.26 1643.52 741.41 1243.36 741.41 1022.65 824.9 1022.65 824.9 1243.36 627.26 1643.52"/>
      <polygon class="cls-49" points="414.36 1243.36 414.36 1022.65 510.4 1022.65 510.4 1243.36 618.21 1643.24 414.36 1243.36"/>
      <polygon class="cls-43" points="510.4 1243.36 510.4 1022.65 540.27 1022.65 576.15 1162.84 576.15 1243.36 620.83 1648.85 618.21 1643.24 510.4 1243.36"/>
      <polygon class="cls-43" points="624.56 1648.96 670.83 1243.36 670.83 1161.94 707.54 1022.65 741.41 1022.65 741.41 1243.36 627.26 1643.52 624.56 1648.96"/>
      <polygon class="cls-49" points="576.15 1243.36 576.15 1162.84 622.68 1344.68 670.83 1161.94 670.83 1243.36 624.56 1648.96 622.68 1652.79 620.84 1648.86 620.83 1648.85 576.15 1243.36"/>
      <path class="cls-21" d="M540.27,1022.65h5.26c8.31,15.51,19.14,37.09,30.61,63.58,16.3,37.67,33.89,85.26,47.34,139.48,0,0,22.44-73.83,47.34-136.58,10.37-26.13,21.18-50.34,30.96-66.48h5.74s-36.71,139.28-36.71,139.28l-48.16,182.74-46.53-181.84-35.87-140.19h0Z"/>
    </g>
    <g id="basescimmia_nero">
      <polygon class="cls-35" points="202.41 1022.79 265.45 1022.79 235.3 1094.71 202.41 1022.79"/>
      <polygon class="cls-35" points="141.42 1022.79 202.41 1022.79 172.26 1094.71 141.42 1022.79"/>
      <polygon class="cls-35" points="100.13 1076.55 100.13 1022.79 141.42 1022.79 109.91 1094.71 100.13 1076.55"/>
      <polygon class="cls-63" points="100.13 1094.71 100.13 1076.55 109.91 1094.71 100.13 1094.71"/>
      <polygon class="cls-63" points="109.91 1094.71 141.42 1022.79 172.26 1094.71 109.91 1094.71"/>
      <polygon class="cls-63" points="172.26 1094.71 202.41 1022.79 235.3 1094.71 172.26 1094.71"/>
      <polygon class="cls-63" points="235.3 1094.71 265.45 1022.79 264.08 1094.71 235.3 1094.71"/>
    </g>
    <g id="palla_nero">
      <path class="cls-35" d="M335.62,1251.34c11.71,13.98,28.27,23.75,47.09,26.72,2.96.48,5.96.77,9.03.89,1.04.04,2.08.07,3.13.07,11.3,0,22.02-2.43,31.68-6.78,26.85-12.09,45.54-39.08,45.54-70.44,0-29.78-16.86-55.63-41.57-68.51-10.66-5.56-22.79-8.71-35.66-8.71-12.69,0-24.66,3.06-35.22,8.48-24.94,12.81-42,38.78-42,68.74,0,18.86,6.77,36.13,17.98,49.54ZM394.85,1143.5c32.21,0,58.3,26.1,58.3,58.29,0,32.21-26.1,58.3-58.3,58.3-32.19,0-58.29-26.1-58.29-58.3,0-32.19,26.1-58.29,58.29-58.29Z"/>
      <path class="cls-20" d="M394.85,1260.1c32.21,0,58.3-26.1,58.3-58.3,0-32.19-26.1-58.29-58.3-58.29-32.19,0-58.29,26.1-58.29,58.29,0,32.21,26.1,58.3,58.29,58.3ZM372.78,1171.42l22.07,16.04,22.07-16.04-8.42,25.94,22.07,16.04h-27.28s-8.44,25.94-8.44,25.94l-8.42-25.94h-27.28s22.07-16.04,22.07-16.04l-8.44-25.94Z"/>
      <polygon class="cls-59" points="381.22 1197.36 372.78 1171.42 394.85 1187.46 416.92 1171.42 408.5 1197.36 430.56 1213.4 403.29 1213.4 394.85 1239.34 386.43 1213.4 359.15 1213.4 381.22 1197.36"/>
    </g>
    <path id="basepalla_nero" class="cls-25" d="M329.74,1022.79h130.76s-29.99,110.5-29.99,110.5c-10.66-5.56-22.79-8.71-35.66-8.71-12.69,0-24.66,3.06-35.22,8.48l-29.89-110.26Z"/>
    <g id="elefante_nero">
      <path class="cls-21" d="M504.77,1506.3c-8.05-8.05-14.17,11.46-25.12,23.61-16.1,17.83-43.13,21.48-62.59,7.38-5.85-4.24-10-9.35-12.52-15.3-1.29-3.04-3.09-5.79-5.29-8.17l4.84-102.93-70.64-18.52-5.52,95.12c-11.91-7.28-20.23-19.6-22.01-33.86-3.87-31.07,8.22-71.1,1.09-90.11h14.23s14.37-112.19,14.37-112.19c11.71,13.98,28.27,23.75,47.09,26.72l1.14,52.18,6.25,4.26v-55.2s1.64-.36,1.64-.36c1.04.04,2.08.07,3.13.07,11.3,0,22.02-2.43,31.68-6.78l1.68,79.9,3.98,2.56,26.17-66.86,50.07,18.5-38.69,109.82,28.73,8.54,9.63,3.72"/>
      <path class="cls-21" d="M513.3,1405.15c67.13,19.99,82.78,54.08,64.5,97.48-1.88,4.44-4.56,8.49-7.7,12.15-16.38,19.08-17.5,34.43,2.24,44.69l-12.31,15.38c-63.57-48.61,14.04-73.34-19.84-99.25"/>
      <polygon class="cls-44" points="327.76 1490.65 327.94 1487.5 333.46 1392.38 404.1 1410.9 399.26 1513.83 398.97 1519.99 345.56 1497.98 388.47 1515.65 388.9 1506.65 392.99 1420.86 341.72 1407.76 337.11 1491.83 336.96 1494.44 327.76 1490.65"/>
      <polygon class="cls-54" points="336.96 1494.44 337.11 1491.83 341.72 1407.76 392.99 1420.86 388.9 1506.65 388.47 1515.65 345.56 1497.98 336.96 1494.44"/>
    </g>
    <g id="pagliaccio1_nero">
      <polygon class="cls-27" points="294.18 1323.88 307.02 1301.51 318.74 1309.61 304.9 1330.92 294.18 1323.88"/>
      <g>
        <polygon class="cls-42" points="242.14 1415.05 259.94 1401.7 246.05 1386.88 223.22 1411.71 228.48 1418.32 242.14 1415.05"/>
        <line class="cls-1" x1="209.78" y1="1431.73" x2="210.21" y2="1434.38"/>
        <polygon class="cls-59" points="318.49 1124.95 325.93 1108.38 281.27 1088.69 274.07 1106.82 300 1120.63 318.49 1124.95"/>
        <path class="cls-20" d="M179.24,1159.34l-3.75-3.54,5.62-36.74c1.87-2.16,4-3.86,6.37-5.14,7.39-4.01,16.21-2.3,21.72,3.23h0s1.99,18.94,1.99,18.94c-.96,1.15-2.19,2.11-3.71,2.92-3.26,1.7-7.26,1.75-10.22-.45-1.91-1.42-2.7-3.27-2.3-5.58.33-1.85,2.44-2.69,4.06-1.74.46.28.91.48,1.38.62,2.8.86,5.51-1.77,5-4.66-.79-4.46-3.19-7.03-7.89-6.87-3.28.11-6.22,2.08-7.8,4.97-3.45,6.37-3.88,12.09-.65,17.03,3.16,4.83,8.89,7.27,14.65,6.87,3.27-.22,6.15-.99,8.61-2.31l7.53,71.45,36.08-98.77,18.1,8.36.06.02,12.04,5.56h.01s9.67,4.47,9.67,4.47l-39.65,105.2-.22.6-83.36,1.57-3.37-22.44c6.81-1.86,13.58-6.83,20.31-15.18.77-.96,1.86-1.59,3.06-1.86,13.42-2.92,16.03-14.52,6.96-35.5-.26-.59-.34-1.25-.27-1.88.71-5.81.31-11.21-5.64-14.59-7.06-3.91-11.11-.23-14.38,5.42Z"/>
        <polygon class="cls-35" points="253.31 1344.83 257.88 1296.93 278.14 1283.02 308.43 1299.05 307.02 1301.51 294.16 1323.87 294.18 1323.88 293.28 1325.45 277.61 1316.22 253.31 1344.83"/>
        <path class="cls-35" d="M155.99,1434.39l42.93-78.3,54.39-11.26,4.57-47.9,1.54-53.83-3.26.09-.22.6-83.36,1.57-1,82.93-41.82,93.86,26.24,12.24ZM218.58,1254.98c5.53,0,10.02,4.48,10.02,10.03s-4.48,10.02-10.02,10.02c-5.54,0-10.03-4.48-10.03-10.02s4.48-10.03,10.03-10.03ZM218.58,1284.65c5.53,0,10.02,4.48,10.02,10.02s-4.48,10.03-10.02,10.03c-5.54,0-10.03-4.48-10.03-10.03s4.48-10.02,10.03-10.02ZM218.58,1320.41c5.53,0,10.02,4.48,10.02,10.03s-4.48,10.02-10.02,10.02c-5.54,0-10.03-4.48-10.03-10.02s4.48-10.03,10.03-10.03Z"/>
        <path class="cls-1" d="M228.59,1265c0,5.53-4.48,10.02-10.02,10.02-5.54,0-10.03-4.48-10.03-10.02s4.48-10.03,10.03-10.03c5.53,0,10.02,4.48,10.02,10.03Z"/>
        <path class="cls-1" d="M228.59,1294.66c0,5.54-4.48,10.03-10.02,10.03-5.54,0-10.03-4.48-10.03-10.03s4.48-10.02,10.03-10.02c5.53,0,10.02,4.48,10.02,10.02Z"/>
        <path class="cls-1" d="M228.59,1330.44c0,5.53-4.48,10.02-10.02,10.02-5.54,0-10.03-4.48-10.03-10.02s4.48-10.03,10.03-10.03c5.53,0,10.02,4.48,10.02,10.03Z"/>
        <polygon class="cls-1" points="172.57 1245.36 256.16 1243.19 255.93 1243.79 172.57 1245.36"/>
        <polygon class="cls-27" points="138.36 1471.4 115.79 1459.47 127.32 1434.74 150.43 1445.52 138.36 1471.4"/>
        <path class="cls-20" d="M208.55,1330.44c0-5.54,4.48-10.03,10.03-10.03,5.53,0,10.02,4.48,10.02,10.03s-4.48,10.02-10.02,10.02c-5.54,0-10.03-4.48-10.03-10.02Z"/>
        <path class="cls-20" d="M208.55,1294.66c0-5.53,4.48-10.02,10.03-10.02,5.53,0,10.02,4.48,10.02,10.02s-4.48,10.03-10.02,10.03c-5.54,0-10.03-4.48-10.03-10.03Z"/>
        <path class="cls-20" d="M208.55,1265c0-5.54,4.48-10.03,10.03-10.03,5.53,0,10.02,4.48,10.02,10.03s-4.48,10.02-10.02,10.02c-5.54,0-10.03-4.48-10.03-10.02Z"/>
        <path class="cls-1" d="M255.65,1371.53c.1-.16.21-.31.32-.47.04.12.08.24.12.37-.14.03-.29.07-.45.1Z"/>
        <polygon class="cls-20" points="265.47 1433.27 241.96 1446.04 234 1429.5 257.39 1417.83 265.47 1433.27"/>
        <polygon class="cls-27" points="232.85 1428.31 269.08 1407.92 270.89 1410.44 234 1430.62 232.85 1428.31"/>
        <path class="cls-1" d="M256.09,1371.43c-.14.03-.29.07-.45.1.1-.16.21-.31.32-.47.04.12.08.24.12.37Z"/>
        <path class="cls-35" d="M257.39,1380.03c0-2.99-.46-5.89-1.3-8.6,4.2-1.01,7.61-3.36,9.37-6.41.38-.04.76-.07,1.14-.07,8.34,0,15.1,9.43,15.1,21.03,0,10.77-5.81,19.64-13.3,20.88l-6.08-9.55-6.43,3.49c-1.15-1.61-2.11-3.48-2.84-5.55,2.75-4.42,4.34-9.64,4.34-15.22Z"/>
        <path class="cls-39" d="M239.32,1353.23c2.78-2.82,7.21-4.64,12.19-4.64,8.44,0,15.28,5.24,15.28,11.68,0,1.69-.47,3.29-1.32,4.74-1.76,3.05-5.17,5.4-9.37,6.41-.04-.12-.08-.24-.12-.37-2.65-8.12-8.79-14.66-16.65-17.83Z"/>
        <path class="cls-1" d="M255.65,1371.53c.1-.16.21-.31.32-.47.04.12.08.24.12.37-.14.03-.29.07-.45.1Z"/>
        <path class="cls-48" d="M199.56,1380.03c0-2.31.28-4.57.8-6.73,3.03-12.72,14.47-22.18,28.11-22.18,3.84,0,7.5.75,10.85,2.11,7.86,3.17,14,9.7,16.65,17.83-.11.16-.22.31-.32.47.16-.03.3-.07.45-.1.85,2.72,1.3,5.61,1.3,8.6,0,5.59-1.59,10.81-4.34,15.22-4.48,7.23-12.07,12.34-20.91,13.45-1.2.16-2.43.23-3.67.23-15.97,0-28.91-12.94-28.91-28.91Z"/>
        <polyline class="cls-20" points="254.78 1401.92 261.21 1398.42 267.29 1407.97 267.96 1409.03 231.74 1429.43 220.96 1435.5 216.78 1427.17 214.98 1423.57 228.27 1416.35 228.27 1416.34"/>
        <polyline class="cls-12" points="249.93 1343.27 190.22 1364.08 194.29 2038.25"/>
        <path class="cls-42" d="M179.08,1400.65c0-13.32,8.82-24.47,20.68-27.35-.52,2.16-.8,4.42-.8,6.73,0,15.97,12.94,28.91,28.91,28.91,1.25,0,2.47-.08,3.67-.23-.66,2.31-1.59,3.21-2.76,5.23v2.23s-13.35,7.79-13.35,7.79l1.11,2.23c-2.06,1.02-3.51,1.66-5.82,2.09-1.57.31-3.19.47-4.85.47-2.39,0-4.71-.32-6.91-.95-11.44-3.19-19.88-14.13-19.88-27.14Z"/>
        <path class="cls-8" d="M233.22,1358.31c2.62,6.23-.31,13.41-6.54,16.03-6.23,2.62-13.41-.31-16.03-6.54"/>
      </g>
    </g>
    <g id="scimmia_nero">
      <path class="cls-59" d="M136.37,1166.13c-1.52,1.85-3.73,3.04-6.12,3.21-16.68,1.14-18.34,31.59,1.12,36.47,1.44.37,2.76,1.08,3.76,2.17,3.15,3.47,6.3,6.41,9.44,8.76l12.12,6.2h.02c4.17,1.11,8.34,1.14,12.49,0,6.81-1.86,13.58-6.83,20.31-15.18.77-.96,1.86-1.59,3.06-1.86,13.42-2.92,16.03-14.52,6.96-35.5-.26-.59-.34-1.25-.27-1.88.71-5.81.31-11.21-5.64-14.59-7.06-3.91-11.11-.23-14.38,5.42l-3.75-3.54,5.62-36.74c1.87-2.16,4-3.86,6.37-5.14,7.39-4.01,16.21-2.3,21.72,3.23h0c1.94,1.95,3.46,4.36,4.36,7.17.02.07.04.14.07.21.7,4.8-.02,8.7-2.44,11.56-.96,1.15-2.19,2.11-3.71,2.92-3.26,1.7-7.26,1.75-10.22-.45-1.91-1.42-2.7-3.27-2.3-5.58.33-1.85,2.44-2.69,4.06-1.74.46.28.91.48,1.38.62,2.8.86,5.51-1.77,5-4.66-.79-4.46-3.19-7.03-7.89-6.87-3.28.11-6.22,2.08-7.8,4.97-3.45,6.37-3.88,12.09-.65,17.03,3.16,4.83,8.89,7.27,14.65,6.87,3.27-.22,6.15-.99,8.61-2.31h0c5.02-2.69,8.31-7.7,9.74-15.25.75-3.96.4-8.07-.79-11.92-2.94-9.45-7.56-15.16-13.65-17.55-6.8-2.66-15.45-1.2-25.67,3.79l.62-11.25h-54.18c-6.32,23.48-3.17,44.45,10.64,62.59,1.3,1.71,1.27,4.08-.1,5.73l-2.55,3.08ZM159.33,1157.42c.21-.03.41-.07.62-.09.92-.11,1.86-.12,2.77-.04,14.34,1.25,22.6,9.26,25.18,23.61.26,1.47.28,2.99.03,4.46-2.16,13.25-7.89,20.19-20.19,15.49-.63-.24-1.29-.42-1.96-.55h0c-2.33-.42-4.73-.09-6.87,1.01-10.29,5.31-16.95.39-20.57-13.03-.75-2.75-.8-5.65-.16-8.44,3.41-14.79,11.08-20.98,21.12-22.44Z"/>
      <path class="cls-1" d="M144.57,1216.73l12.12,6.2c-4.03-1.08-8.07-3.16-12.12-6.2Z"/>
      <path class="cls-48" d="M138.21,1179.86c3.41-14.79,11.08-20.98,21.12-22.44.21-.03.41-.07.62-.09.92-.11,1.86-.12,2.77-.04,14.34,1.25,22.6,9.26,25.18,23.61.26,1.47.28,2.99.03,4.46-2.16,13.25-7.89,20.19-20.19,15.49-.63-.24-1.29-.42-1.96-.55h0c-2.33-.42-4.73-.09-6.87,1.01-10.29,5.31-16.95.39-20.57-13.03-.75-2.75-.8-5.65-.16-8.44Z"/>
      <path class="cls-62" d="M109.46,1207.81l6.12-4.11,13.71,13.65c2.93,4.13,6.14,7.35,9.64,9.61h.02s5.78,5.77,5.78,5.77l-4.22,3.88-4.93-4.56-18.53-17.19-.55-.51-.06-.06-6.99-6.48Z"/>
      <path class="cls-1" d="M144.57,1216.73l12.12,6.2c-4.03-1.08-8.07-3.16-12.12-6.2Z"/>
      <polygon class="cls-1" points="135.49 1218.83 135.5 1218.81 158.4 1229.5 158.1 1230.15 135.49 1218.83"/>
      <polygon class="cls-62" points="101.14 1232.04 113.7 1218.49 132.33 1235.26 134.49 1233.24 119.84 1249.05 101.14 1232.04"/>
      <polygon class="cls-73" points="113.7 1218.49 117.05 1214.88 135.11 1232.57 134.49 1233.24 132.33 1235.26 113.7 1218.49"/>
      <polygon class="cls-1" points="154.82 1229.47 154.38 1230.26 154.77 1229.44 154.82 1229.47"/>
      <polygon class="cls-1" points="113.08 1217.93 116.45 1214.29 116.52 1214.35 117.05 1214.88 113.7 1218.49 113.08 1217.93"/>
      <path class="cls-6" d="M174.88,1163.46c-.51,5.88-5.69,10.23-11.57,9.71-5.88-.51-10.23-5.69-9.71-11.57"/>
    </g>
    <g id="bandierinesinistra_nera">
      <polygon class="cls-60" points="533.84 1728.62 526.41 1731.48 513.71 1726.45 527.64 1713.72 520.76 1697.19 496.05 1740.37 541.25 1746.41 533.84 1728.62"/>
      <polygon class="cls-23" points="465.54 1725.12 465.54 1736.59 458.69 1730.47 450.24 1733.72 446.21 1732.12 442.05 1741.73 488.35 1740.51 476.68 1719.66 474.01 1720.69 464.31 1716.84 471.45 1710.32 462.55 1694.42 454.36 1713.32 456.1 1711.72 465.54 1725.12"/>
      <polygon class="cls-28" points="411.78 1739.95 404.92 1733.83 397.62 1736.64 393.32 1750.04 437.75 1741.73 409.8 1698.72 403.85 1717.24 411.78 1728.48 411.78 1739.95"/>
      <polygon class="cls-22" points="360.25 1742.12 360.25 1750.89 355.01 1746.21 348.55 1748.69 347.82 1748.4 344 1764.95 388.72 1750.76 370.67 1728.03 366.48 1729.65 356.78 1725.8 363.8 1719.38 356.62 1710.33 351.26 1733.51 353.04 1731.89 360.25 1742.12"/>
      <polygon class="cls-53" points="306.48 1763.48 299.89 1757.59 295.83 1786.16 338.94 1766.87 303.86 1729.68 301.66 1745.17 306.48 1752 306.48 1763.48"/>
    </g>
    <g id="lucisinistra_nero">
      <line class="cls-7" x1="529.64" y1="1690.66" x2="532.64" y2="1684.49"/>
      <line class="cls-7" x1="470.87" y1="1652.59" x2="474.29" y2="1643.3"/>
      <line class="cls-7" x1="411.54" y1="1622.82" x2="413.07" y2="1615.87"/>
      <line class="cls-7" x1="344.57" y1="1599.78" x2="345.47" y2="1592.78"/>
      <line class="cls-7" x1="271.67" y1="1588.01" x2="271.67" y2="1581.96"/>
      <path class="cls-54" d="M537.61,1685.52c6.2,0,11.34-4.52,12.33-10.44l-4.86-.32v-7.46s-6.22,8.58-6.22,8.58l-1.24-6.09-9.67-4.71c-1.77,2.16-2.84,4.92-2.84,7.94,0,6.91,5.6,12.51,12.51,12.51Z"/>
      <path class="cls-57" d="M478.86,1644.17c6.91,0,12.51-5.6,12.51-12.51,0-.31-.02-.62-.05-.93l-4.38.93-1.23-6.19-5.6,13.44-5.82-6.72v-12.17c-4.65,1.83-7.94,6.34-7.94,11.64,0,6.91,5.6,12.51,12.51,12.51Z"/>
      <path class="cls-36" d="M412.9,1596.73l-6.22,8.58-1.2-5.9c-.57,1.43-.89,2.99-.89,4.62,0,6.91,5.6,12.51,12.51,12.51,6.48,0,11.81-4.93,12.45-11.24l-16.64-1.11v-7.46Z"/>
      <path class="cls-54" d="M343.77,1581.04l-1.23-6.19-5.08,12.19c2.2,3.61,6.15,6.02,10.68,6.02,6.91,0,12.51-5.6,12.51-12.51,0-4.8-2.7-8.96-6.66-11.06l3.11,8.71-13.33,2.83Z"/>
      <path class="cls-57" d="M261.13,1569.45c0,6.91,5.6,12.51,12.51,12.51,6.91,0,12.51-5.6,12.51-12.51,0-1.51-.28-2.96-.77-4.3l-.97.21-.65-3.25c-.37-.51-.77-.99-1.21-1.44l-4.98,11.94-5.82-6.72v-8.8c-6.01.91-10.63,6.09-10.63,12.35Z"/>
    </g>
    <path id="filosinistra_nero" class="cls-9" d="M50.74,1958.31c78.75-82.28,157.95-128.66,210.07-154.04,68.37-33.3,150.26-73.43,256.4-61.47,36.97,4.17,73.65,14.12,109.53,30.15-144.37-141.3-309.35-214.27-459.07-175.11-40.31,10.82-80.62,21.64-120.93,32.46"/>
    <g id="bandierinedestra_nero">
      <polygon class="cls-38" points="675.54 1758.43 688.61 1722.3 696.88 1730.82 692.07 1737.64 692.07 1746.41 697.31 1741.73 703.77 1744.21 708.19 1742.46 713.86 1748.3 675.54 1758.43"/>
      <polygon class="cls-60" points="729.56 1728.62 737 1731.48 749.69 1726.45 735.77 1713.72 742.65 1697.19 767.35 1740.37 722.16 1746.41 729.56 1728.62"/>
      <polygon class="cls-23" points="797.86 1725.12 797.86 1736.59 804.72 1730.47 813.17 1733.72 817.2 1732.12 821.36 1741.72 775.06 1740.5 786.73 1719.66 789.39 1720.69 799.09 1716.84 791.96 1710.32 800.86 1694.42 809.05 1713.32 807.3 1711.72 797.86 1725.12"/>
      <polygon class="cls-28" points="851.63 1739.95 858.49 1733.83 865.78 1736.64 870.08 1750.04 825.66 1741.72 853.61 1698.72 859.55 1717.24 851.63 1728.48 851.63 1739.95"/>
      <polygon class="cls-22" points="903.16 1742.12 903.16 1750.89 908.4 1746.21 914.85 1748.69 915.59 1748.4 919.41 1764.95 874.68 1750.76 892.73 1728.03 896.93 1729.65 906.63 1725.8 899.6 1719.38 906.79 1710.33 912.15 1733.51 910.37 1731.89 903.16 1742.12"/>
      <polygon class="cls-53" points="956.93 1763.48 963.51 1757.59 967.57 1786.16 924.46 1766.86 959.54 1729.68 961.74 1745.17 956.93 1752 956.93 1763.48"/>
    </g>
    <g id="lucidestra_nero">
      <line class="cls-7" x1="733.76" y1="1690.66" x2="730.77" y2="1684.49"/>
      <line class="cls-7" x1="792.53" y1="1652.59" x2="789.12" y2="1643.3"/>
      <line class="cls-7" x1="851.86" y1="1622.82" x2="850.33" y2="1615.87"/>
      <line class="cls-7" x1="918.84" y1="1599.78" x2="917.94" y2="1592.78"/>
      <line class="cls-7" x1="991.73" y1="1588.01" x2="991.73" y2="1581.96"/>
      <path class="cls-54" d="M725.79,1685.52c-6.2,0-11.34-4.52-12.33-10.44l4.86-.32v-7.46s6.22,8.58,6.22,8.58l1.24-6.09,9.67-4.71c1.77,2.16,2.84,4.92,2.84,7.94,0,6.91-5.6,12.51-12.51,12.51Z"/>
      <path class="cls-57" d="M784.55,1644.17c-6.91,0-12.51-5.6-12.51-12.51,0-.31.02-.62.05-.93l4.38.93,1.23-6.19,5.6,13.44,5.82-6.72v-12.17c4.65,1.83,7.94,6.34,7.94,11.64,0,6.91-5.6,12.51-12.51,12.51Z"/>
      <path class="cls-36" d="M850.51,1596.73l6.22,8.58,1.2-5.9c.57,1.43.89,2.99.89,4.62,0,6.91-5.6,12.51-12.51,12.51-6.48,0-11.81-4.93-12.45-11.24l16.64-1.11v-7.46Z"/>
      <path class="cls-54" d="M919.63,1581.04l1.23-6.19,5.08,12.19c-2.2,3.61-6.15,6.02-10.68,6.02-6.91,0-12.51-5.6-12.51-12.51,0-4.8,2.7-8.96,6.66-11.06l-3.11,8.71,13.33,2.83Z"/>
      <path class="cls-57" d="M1002.28,1569.45c0,6.91-5.6,12.51-12.51,12.51-6.91,0-12.51-5.6-12.51-12.51,0-1.51.28-2.96.77-4.3l.97.21.65-3.25c.37-.51.77-.99,1.21-1.44l4.98,11.94,5.82-6.72v-8.8c6.01.91,10.63,6.09,10.63,12.35Z"/>
    </g>
    <g id="filodestra_nero">
      <path class="cls-9" d="M1170.74,1931.31c-63.21-66.97-126.44-105.59-168.14-127.04-56.07-28.84-143.8-74.16-256.4-61.47-36.97,4.17-73.65,14.12-109.53,30.15,144.37-141.3,309.35-214.27,459.07-175.11,32.33,8.49,64.67,16.98,97,25.46"/>
    </g>
    <g id="pagliaccio3_nero">
      <polygon class="cls-35" points="1104.68 1463.03 1126.17 1452.29 1090.63 1374.59 1094.76 1303.51 1017.07 1298.55 1017.89 1351.45 995.58 1338.23 988.55 1340 987.72 1353.52 978.59 1366.83 978.59 1371.84 994.35 1364.95 1023.68 1386.99 1043.4 1393.09 1065.83 1398.56 1104.68 1463.03"/>
      <circle class="cls-20" cx="1050.54" cy="1373.35" r="9.09"/>
      <circle class="cls-20" cx="1052.19" cy="1343.6" r="9.09"/>
      <circle class="cls-20" cx="1053.85" cy="1315.5" r="9.09"/>
      <path class="cls-20" d="M1012.11,1192.76c0,4.52-3.3,8.26-7.62,8.96l9.47,72.9c.21-.01.42-.03.63-.03,5.02,0,9.09,4.07,9.09,9.09,0,4.44-3.18,8.13-7.39,8.93l.77,5.95,21.99,1.4c-.84-1.37-1.33-2.98-1.33-4.71,0-5.02,4.07-9.09,9.09-9.09,5.02,0,9.09,4.07,9.09,9.09,0,2.14-.74,4.11-1.98,5.66l31.1,1.99c-.12-.6-.19-1.22-.19-1.86,0-5.02,4.07-9.09,9.09-9.09,1.72,0,3.32.49,4.69,1.31l20.11-53.38-30.58-22.32-3.42,5.9c3,1.48,5.08,4.57,5.08,8.15,0,5.02-4.07,9.09-9.09,9.09-1.88,0-3.63-.57-5.08-1.55l-20.54,35.44-7.72-80.45c-.7.17-1.44.28-2.19.28-5.02,0-9.09-4.07-9.09-9.09s4.07-9.09,9.09-9.09c.16,0,.32.02.48.02l-.48-4.98h-44.63s1.62,12.44,1.62,12.44c.28-.03.57-.04.86-.04,5.02,0,9.09,4.07,9.09,9.09ZM1101.37,1245.66c5.02,0,9.09,4.07,9.09,9.09,0,5.02-4.07,9.09-9.09,9.09-5.02,0-9.09-4.07-9.09-9.09,0-5.02,4.07-9.09,9.09-9.09ZM1076.58,1267.97c5.02,0,9.09,4.07,9.09,9.09s-4.07,9.09-9.09,9.09c-5.02,0-9.09-4.07-9.09-9.09s4.07-9.09,9.09-9.09ZM1036.9,1274.58c-5.02,0-9.09-4.07-9.09-9.09s4.07-9.09,9.09-9.09c5.02,0,9.09,4.07,9.09,9.09s-4.07,9.09-9.09,9.09ZM1036.9,1201.85c5.02,0,9.09,4.07,9.09,9.09s-4.07,9.09-9.09,9.09c-5.02,0-9.09-4.07-9.09-9.09s4.07-9.09,9.09-9.09ZM1025.33,1229.13c5.02,0,9.09,4.07,9.09,9.09s-4.07,9.09-9.09,9.09c-5.02,0-9.09-4.07-9.09-9.09s4.07-9.09,9.09-9.09Z"/>
      <circle class="cls-25" cx="1101.37" cy="1254.75" r="9.09"/>
      <circle class="cls-25" cx="1076.58" cy="1277.06" r="9.09"/>
      <path class="cls-25" d="M1089.8,1231.61c0-3.58-2.07-6.66-5.08-8.15l-9.1,15.69c1.45.98,3.2,1.55,5.08,1.55,5.02,0,9.09-4.07,9.09-9.09Z"/>
      <circle class="cls-25" cx="1036.9" cy="1265.49" r="9.09"/>
      <circle class="cls-25" cx="1036.9" cy="1210.94" r="9.09"/>
      <path class="cls-25" d="M1036.08,1185.32c0,5.02,4.07,9.09,9.09,9.09.76,0,1.49-.1,2.19-.28l-1.72-17.88c-.16,0-.32-.02-.48-.02-5.02,0-9.09,4.07-9.09,9.09Z"/>
      <path class="cls-25" d="M1012.11,1192.76c0-5.02-4.07-9.09-9.09-9.09-.29,0-.58.02-.86.04l2.34,18.01c4.32-.71,7.62-4.44,7.62-8.96Z"/>
      <circle class="cls-25" cx="1025.33" cy="1238.22" r="9.09"/>
      <path class="cls-25" d="M1023.68,1283.68c0-5.02-4.07-9.09-9.09-9.09-.21,0-.42.02-.63.03l2.34,17.99c4.2-.8,7.39-4.49,7.39-8.93Z"/>
      <path class="cls-25" d="M1046.82,1286.16c-5.02,0-9.09,4.07-9.09,9.09,0,1.73.49,3.33,1.33,4.71l14.87.95c1.24-1.55,1.98-3.52,1.98-5.66,0-5.02-4.07-9.09-9.09-9.09Z"/>
      <path class="cls-25" d="M1084.84,1301.03c0,.64.07,1.26.19,1.86l9.73.62,3.86-10.26c-1.37-.83-2.97-1.31-4.69-1.31-5.02,0-9.09,4.07-9.09,9.09Z"/>
      <polygon class="cls-59" points="1108.81 1227.47 1113.77 1220.86 1126.99 1230.78 1136.08 1218.38 1101.37 1190.76 1088.97 1211.77 1108.81 1227.47"/>
      <polygon class="cls-59" points="1014.59 1171.27 1014.48 1167.96 1002.9 1167.85 1003.17 1152.48 1042.57 1151.51 1041.04 1171.27 1014.59 1171.27"/>
      <polygon class="cls-48" points="1128.65 1455.59 1107.16 1466.34 1117.9 1487.28 1137.74 1477.91 1128.65 1455.59"/>
      <polyline class="cls-12" points="1022.85 1386.16 1064.59 1400.63 1064.59 2087.31"/>
      <path class="cls-20" d="M1024.09,1439.06c0,9.36,7.59,16.94,16.94,16.94,4.58,0,8.73-1.83,11.78-4.78,1.65.42,3.38.65,5.16.65,11.41,0,20.66-9.25,20.66-20.66,0-11.41-9.25-20.66-20.66-20.66-8.18,0-15.25,4.76-18.6,11.65-8.58.83-15.29,8.06-15.29,16.86Z"/>
      <path class="cls-20" d="M988.55,1417.16c0,10.5,8.51,19.01,19.01,19.01,10.5,0,19.01-8.51,19.01-19.01,0-1.32-.13-2.6-.39-3.84,1.29-2.28,2.04-4.92,2.04-7.73,0-8.67-7.03-15.7-15.7-15.7-7.09,0-13.08,4.7-15.03,11.15-5.37,3.36-8.94,9.32-8.94,16.12Z"/>
      <path class="cls-48" d="M1062.52,1418.81c0-14.84-13.27-25.21-28.1-25.21-14.84,0-25.62,10.37-25.62,25.21s12.03,26.86,26.86,26.86c14.84,0,26.86-12.03,26.86-26.86Z"/>
      <polygon class="cls-31" points="994.35 1468.44 1019.27 1481.25 1032.75 1456.5 1044.28 1462.3 1048.38 1454.67 1002.27 1428.57 997.33 1436.7 1008 1443.01 994.35 1468.44"/>
      <polygon class="cls-55" points="1008 1443.01 1032.75 1456.5 1031.26 1459.23 1006.55 1445.73 1008 1443.01"/>
      <path class="cls-4" d="M1049.02,1405.61c-1.14,4.89-6.03,7.93-10.92,6.79-4.89-1.14-7.93-6.03-6.79-10.92"/>
    </g>
    <g id="leone_nero">
      <polygon class="cls-35" points="877.57 1085.62 877.57 1117.44 895.15 1140.58 934 1157.11 968.71 1143.89 985.29 1117.85 985.29 1085.62 877.57 1085.62"/>
      <polygon class="cls-21" points="987.72 1269.52 988.14 1262.49 988.55 1256 983.18 1240.18 989.79 1226.95 979.05 1217.03 979.05 1198.85 967.47 1198.02 965.19 1186.65 935.43 1147.39 931.93 1142.43 927.39 1147.68 899.7 1184.21 896.39 1205.46 887.3 1199.68 883.31 1219.51 875.14 1218.89 881.81 1239.47 875.14 1244.73 884.82 1261.67 877.57 1268.69 883.17 1276.54 888.13 1283.98 884 1290.59 908.68 1315.8 905.75 1319.52 925.01 1315.8 932.46 1322.4 944.85 1315.8 950.97 1322.4 954.25 1309.6 964.97 1312.08 972.43 1298.03 978.59 1287.84 987.72 1269.52"/>
      <rect class="cls-35" x="868.29" y="1022.8" width="132.24" height="62.82" transform="translate(1868.83 2108.42) rotate(180)"/>
      <polygon class="cls-63" points="1000.54 1022.8 1000.54 1036.34 979.47 1085.62 956.76 1030.71 932.19 1085.62 909.25 1031.54 887.06 1085.62 868.29 1034.03 868.29 1022.8 1000.54 1022.8"/>
      <polygon class="cls-20" points="963.13 1085.62 968.71 1143.89 965.19 1186.65 935.43 1147.39 935.43 1085.62 963.13 1085.62"/>
      <polygon class="cls-20" points="927.39 1147.68 927.39 1085.62 900.79 1085.62 895.15 1140.58 899.7 1184.21 927.39 1147.68"/>
      <polygon class="cls-48" points="955.49 1293.49 962.1 1256.29 947.23 1205.05 917.87 1205.05 901.77 1255.47 908.41 1293.49 955.49 1293.49"/>
      <path class="cls-4" d="M941.86,1224.24c0,5.02-4.07,9.09-9.09,9.09-5.02,0-9.09-4.07-9.09-9.09"/>
    </g>
    <g id="pagliaccio2_nero">
      <polygon class="cls-25" points="872.01 1283.98 872.01 1117.84 838.12 1117.84 838.12 1266.02 814.16 1233.98 829.86 1213.31 814.16 1194.16 781.92 1233.15 820.47 1284.77 866.5 1284.07 872.01 1283.98"/>
      <polygon class="cls-20" points="923.16 1383.94 893.09 1335.23 873.25 1342.66 874.9 1283.98 817.88 1284.81 823.66 1343.04 806.3 1337.71 784.4 1387.71 804.24 1398.45 819.11 1367.05 825.74 1370.77 866.6 1370.77 884.41 1362.91 905.07 1394.32 923.16 1383.94"/>
      <polygon class="cls-48" points="932.25 1383.94 943.09 1402.59 926.56 1414.16 914.16 1394.32 932.25 1383.94"/>
      <polygon class="cls-48" points="783.02 1418.7 793.49 1398.45 773.66 1387.71 763.74 1407.55 783.02 1418.7"/>
      <polygon class="cls-25" points="866.49 1117.84 866.49 1284.07 872.01 1283.98 872.01 1117.84 866.49 1117.84"/>
      <polygon class="cls-35" points="866.49 1284.07 866.49 1117.84 859.37 1117.84 859.37 1283.98 866.49 1284.07"/>
      <polygon class="cls-25" points="859.37 1283.98 859.37 1117.84 850.82 1117.84 850.82 1284.07 859.37 1283.98"/>
      <polygon class="cls-35" points="850.82 1284.07 850.82 1117.84 843.94 1117.84 843.94 1284.41 850.82 1284.07"/>
      <polygon class="cls-35" points="828.34 1284.65 791.01 1233.98 818.52 1199.48 814.16 1194.16 781.92 1233.15 820.47 1284.77 828.34 1284.65"/>
      <polygon class="cls-25" points="828.34 1284.65 835.94 1284.41 800.1 1233.98 823.08 1205.05 818.52 1199.48 791.01 1233.98 828.34 1284.65"/>
      <polygon class="cls-35" points="823.08 1205.05 800.1 1233.98 835.94 1284.41 843.94 1284.41 808.37 1233.98 826.46 1209.17 823.08 1205.05"/>
      <polygon class="cls-17" points="862.51 1111.23 862.51 1073.24 824.9 1073.24 824.9 1086.56 837.65 1092.24 842.49 1092.24 842.49 1110.83 862.51 1111.23"/>
      <polygon class="cls-17" points="828.29 1199.5 837.71 1188.91 837.71 1177.55 818.7 1154.63 809.61 1165.38 818.7 1179.43 815.1 1183.43 828.29 1199.5"/>
      <rect class="cls-35" x="840.72" y="1336.49" width="13.93" height="13.2"/>
      <rect class="cls-35" x="840.72" y="1307.56" width="13.93" height="13.2"/>
      <polyline class="cls-12" points="820.93 1369.02 873.01 1373.15 873.83 1999.31"/>
      <circle class="cls-48" cx="848.08" cy="1393.78" r="23.97"/>
      <polygon class="cls-31" points="886.81 1448.39 855.64 1459.47 843.74 1428.39 829.34 1433.37 825.74 1423.8 883.8 1400.48 888.31 1410.78 874.82 1416.49 886.81 1448.39"/>
      <polygon class="cls-55" points="874.82 1416.49 843.74 1428.39 845.06 1431.83 876.1 1419.9 874.82 1416.49"/>
      <path class="cls-4" d="M850.45,1374.56c1.48,4.8-1.21,9.89-6.01,11.37-4.8,1.48-9.89-1.21-11.37-6.01"/>
    </g>
    <g id="bandierina_nero">
      <line class="cls-2" x1="622.68" y1="1643.09" x2="622.68" y2="1782.35"/>
      <polygon class="cls-21" points="622.68 1776.66 498.43 1748.83 543.83 1729.12 498.43 1701.71 622.68 1714.98 622.68 1776.66"/>
      <circle class="cls-13" cx="622.68" cy="1783.73" r="1.38"/>
    </g>
  </g>
  <g id="Giallo">
    <rect id="sfondo_giallo" class="cls-51" x="68.74" y="30.28" width="1086" height="992.53"/>
    <g id="bandierinesinistra_giallo">
      <polygon class="cls-58" points="396.35 339.92 426.22 300.32 376.99 294.25 396.35 339.92"/>
      <polygon class="cls-45" points="278.24 301.43 320.12 274.84 276.16 251.86 278.24 301.43"/>
      <polygon class="cls-45" points="458.43 344.35 483.23 301.38 433.62 301.38 458.43 344.35"/>
      <polygon class="cls-61" points="523.88 340.25 543.51 294.69 494.23 300.48 523.88 340.25"/>
      <polygon class="cls-50" points="335.29 325.4 372.37 292.45 325.29 276.81 335.29 325.4"/>
    </g>
    <path id="filosinistra_giallo" class="cls-9" d="M.82,318.31c19.31,27.52,65.22,84.51,144.24,112.66,17.21,6.13,65.96,20.2,147.81,11.82,172.84-17.68,313.52-133.57,344.3-170.5,0,0-.93-.46-1.37-.25-30.37,15.12-121.96,32.45-199.9,29.34-88.32-3.52-165.13-50.01-201.56-79.65C154.29,156.62,109.66,33.06,100.03.28"/>
    <g id="palloncinisinistra_giallo">
      <g>
        <polyline class="cls-3" points="153.27 326.2 183.25 634.54 227.35 362.88"/>
        <polyline class="cls-3" points="151.28 441.27 183.25 634.54 199.53 252.76"/>
        <ellipse class="cls-29" cx="201.41" cy="225.97" rx="43.43" ry="54.45"/>
        <polygon class="cls-29" points="195.19 277.14 188.61 288.35 204.71 290.89 202.95 278.2 195.19 277.14"/>
        <ellipse class="cls-61" cx="151.63" cy="291.5" rx="43.14" ry="53.18"/>
        <ellipse class="cls-45" cx="146.71" cy="386.82" rx="43.15" ry="54.09"/>
        <ellipse class="cls-50" cx="230.9" cy="322.68" rx="40.18" ry="50.38"/>
      </g>
      <polygon class="cls-50" points="223.8 370.51 217.43 381.27 232.89 383.77 231.26 371.57 223.8 370.51"/>
      <polygon class="cls-45" points="148.55 437.34 146.71 450.21 162.57 446.45 156.13 435.38 148.55 437.34"/>
    </g>
    <g id="pagliaccio1_giallo">
      <polygon points="245.04 936.9 248.99 960.96 294.39 943.1 290.32 929.96 265.78 933.14 245.04 936.9"/>
      <polygon class="cls-50" points="169.17 797.19 157.55 906.68 197.33 908.28 206.1 837.22 232.02 911.09 268.4 896.75 240.2 806.03 169.17 797.19"/>
      <path class="cls-50" d="M204.97,619.14l1.11-1.77c.63-1,1.91-1.37,2.98-.87l7.63,3.63c1.15.55,2.54.06,3.1-1.08l5.71-11.72c.58-1.19,2.02-1.66,3.19-1.04l19.59,10.38c1.06.56,1.52,1.83,1.07,2.94l-4.89,11.93c-.49,1.19.08,2.55,1.27,3.04l8.19,3.38c1.1.46,1.68,1.67,1.35,2.81l-.98,3.34c-.39,1.34-1.86,2.03-3.14,1.49-9.47-4.01-43.74-18.65-44.93-21.18-.67-1.41-1.12-2.46-1.41-3.17s-.22-1.48.18-2.12Z"/>
      <polygon class="cls-58" points="110.34 605.14 123.84 635.6 142.4 625.43 128.65 595.62 110.34 605.14"/>
      <polygon class="cls-58" points="289.39 721.55 268.2 735.31 276.2 754.05 300.49 738.68 289.39 721.55"/>
      <polygon class="cls-45" points="117.66 627.74 157.89 720.06 158.14 800.84 243.86 809.44 243.05 753.42 262.35 767.71 288.25 749.01 275.01 729.17 261.77 735.28 236.43 704.91 182.98 691.65 140.51 615.61 117.66 627.74"/>
      <circle class="cls-19" cx="205.3" cy="720.33" r="10.56"/>
      <circle class="cls-19" cx="205.3" cy="754.05" r="10.56"/>
      <circle class="cls-19" cx="205.3" cy="786.63" r="10.56"/>
      <path class="cls-61" d="M188.91,669.74s-16.39,3.36-23.07-14.86c-6.68-18.22,7.36-27.97,11.53-28.47s8.59-4.1,8.23-6.29,9.51-9.85,18.74,0,49.61,24.26,49.61,24.26c0,0,11.38,8.51,12.6,19.01,1.21,10.5-.58,20.26-13.41,25.29,0,0,.18,13.81-16.83,16.34-17.01,2.53-15.51-16.33-15.51-16.33l17.13-28.45-25.87-15.86-23.15,25.36Z"/>
      <circle class="cls-58" cx="215.36" cy="667.72" r="31.08"/>
      <rect class="cls-40" x="221.25" y="623.75" width="19.78" height="4.3" rx="2.15" ry="2.15" transform="translate(283.79 -39.23) rotate(24.79)"/>
      <polygon class="cls-45" points="232.02 911.09 242.51 944.74 280.85 927.91 268.4 896.75 232.02 911.09"/>
      <polygon points="191.83 933.26 191.79 956.48 152.76 956.41 152.76 941.72 170.98 932.6 191.83 933.26"/>
      <polygon class="cls-45" points="193.98 935.34 197.33 908.28 157.55 906.68 156.5 934.24 193.98 935.34"/>
      <path class="cls-6" d="M221.03,681.22c-1.11,5.79-6.71,9.59-12.5,8.48-5.79-1.11-9.59-6.71-8.48-12.5"/>
    </g>
    <g id="lucisinistra_giallo">
      <rect x="302.67" y="440.99" width="7.82" height="8.96"/>
      <rect x="357.59" y="430.57" width="7.82" height="8.96" transform="translate(-66.94 65.73) rotate(-9.51)"/>
      <rect x="406.79" y="415.52" width="7.82" height="8.96" transform="translate(-122.81 174.16) rotate(-20.9)"/>
      <rect x="463.21" y="392.73" width="7.82" height="8.96" transform="translate(-136.02 286.78) rotate(-30)"/>
      <circle class="cls-50" cx="306.58" cy="459.6" r="14.22"/>
      <rect x="246.92" y="444.89" width="7.82" height="8.96"/>
      <circle class="cls-58" cx="250.83" cy="463.5" r="14.22"/>
      <circle class="cls-29" cx="363.76" cy="448.57" r="14.22"/>
      <circle class="cls-58" cx="414.72" cy="432.17" r="14.22"/>
      <circle class="cls-50" cx="473.86" cy="407.89" r="14.22"/>
      <rect x="512.1" y="366.81" width="7.82" height="8.96" transform="translate(-119.61 382) rotate(-36.7)"/>
      <rect x="552.1" y="341.71" width="7.82" height="8.96" transform="translate(-81.94 494.56) rotate(-45)"/>
      <circle class="cls-45" cx="523.4" cy="381.96" r="14.22"/>
      <circle class="cls-58" cx="565.07" cy="355.24" r="14.22"/>
    </g>
    <g id="bandierinedestra_giallo">
      <polygon class="cls-58" points="839.54 342.96 809.66 303.35 858.9 297.28 839.54 342.96"/>
      <polygon class="cls-45" points="958.64 304.46 916.76 277.88 960.73 254.9 958.64 304.46"/>
      <polygon class="cls-45" points="778.46 346.38 753.65 303.42 803.26 303.42 778.46 346.38"/>
      <polygon class="cls-50" points="901.6 328.44 864.51 295.48 911.59 279.84 901.6 328.44"/>
    </g>
    <path id="filodestra_giallo" class="cls-9" d="M1168.03,19.28c-74,111-165.48,204.49-165.48,204.49-22.46,19.12-94.39,75.38-201.56,79.65-77.94,3.11-146.51-13.96-176.89-29.09-.43-.22,4.46,18.58,4.46,18.58,30.77,36.93,142.61,134.23,315.45,151.91,58.65,6,109.49-1.81,147.81-11.82,0,0,116.83-42.43,135.41-83.56"/>
    <g id="lucidestra_giallo">
      <rect x="926.4" y="443.03" width="7.82" height="8.96" transform="translate(1860.62 895.01) rotate(180)"/>
      <rect x="871.48" y="432.6" width="7.82" height="8.96" transform="translate(1666.49 1012.84) rotate(-170.49)"/>
      <rect x="822.27" y="417.56" width="7.82" height="8.96" transform="translate(1447.43 1111.05) rotate(-159.1)"/>
      <rect x="769.12" y="397.05" width="7.82" height="8.96" transform="translate(1241.73 1135.79) rotate(-150)"/>
      <circle class="cls-50" cx="930.31" cy="461.63" r="14.22"/>
      <circle class="cls-29" cx="873.12" cy="450.61" r="14.22"/>
      <circle class="cls-58" cx="822.16" cy="434.2" r="14.22"/>
      <circle class="cls-50" cx="766.29" cy="412.21" r="14.22"/>
      <rect x="721.73" y="371.64" width="7.82" height="8.96" transform="translate(1082.64 1111.35) rotate(-143.3)"/>
      <rect x="682.35" y="347.13" width="7.82" height="8.96" transform="translate(922.9 1085.5) rotate(-135)"/>
      <circle class="cls-45" cx="718.25" cy="386.78" r="14.22"/>
      <circle class="cls-58" cx="677.2" cy="360.67" r="14.22"/>
      <rect x="982.14" y="446.93" width="7.82" height="8.96" transform="translate(1972.1 902.81) rotate(180)"/>
      <circle class="cls-58" cx="986.05" cy="465.53" r="14.22"/>
    </g>
    <g id="palloncini2_giallo">
      <polyline class="cls-3" points="1105 286.04 1104.46 564.12 1046.78 321.39"/>
      <polyline class="cls-3" points="1114.78 380.36 1106.14 583.68 1061.83 229.03"/>
      <ellipse class="cls-29" cx="1058.39" cy="207.17" rx="35.78" ry="44.86" transform="translate(-13.88 91.66) rotate(-4.93)"/>
      <polygon class="cls-45" points="1116.74 376.94 1119.15 387.37 1105.88 385.41 1110.37 375.86 1116.74 376.94"/>
      <polygon class="cls-29" points="1067.12 248.73 1073.31 257.47 1060.28 260.69 1060.82 250.16 1067.12 248.73"/>
      <ellipse class="cls-61" cx="1103.89" cy="257.44" rx="35.54" ry="43.82" transform="translate(-18.03 95.75) rotate(-4.93)"/>
      <ellipse class="cls-45" cx="1114.67" cy="335.34" rx="35.55" ry="44.57" transform="translate(-24.68 96.97) rotate(-4.93)"/>
      <ellipse class="cls-50" cx="1041.02" cy="288.65" rx="33.11" ry="41.51" transform="translate(-20.94 90.47) rotate(-4.93)"/>
      <polygon class="cls-50" points="1050.24 327.4 1056.23 335.78 1043.71 338.93 1044.19 328.8 1050.24 327.4"/>
    </g>
    <g id="basescimmia_giallo">
      <rect class="cls-32" x="100.12" y="956.36" width="164.04" height="60.65"/>
      <g class="cls-72">
        <polygon class="cls-29" points="100.12 956.36 65.11 1017 135.14 1017 100.12 956.36"/>
        <polygon class="cls-29" points="170.38 956.36 135.37 1017 205.4 1017 170.38 956.36"/>
        <polygon class="cls-29" points="240.65 956.36 205.63 1017 275.66 1017 240.65 956.36"/>
      </g>
    </g>
    <g id="tendone_giallo">
      <path class="cls-21" d="M701.73,1017.11h-156.26c9.78-16.14,20.59-40.34,30.96-66.48,24.91-62.74,47.34-136.58,47.34-136.58,13.45,54.22,31.04,101.81,47.34,139.48,11.46,26.49,22.29,48.07,30.61,63.58h0Z"/>
      <polygon class="cls-52" points="620 396.24 505.85 796.4 505.85 1017.11 422.36 1017.11 422.36 796.4 620 396.24"/>
      <polygon class="cls-52" points="832.9 796.4 832.9 1017.11 736.86 1017.11 736.86 796.4 629.04 396.52 832.9 796.4"/>
      <polygon class="cls-16" points="736.86 796.4 736.86 1017.11 706.99 1017.11 671.11 876.92 671.11 796.4 626.42 390.91 629.04 396.52 736.86 796.4"/>
      <polygon class="cls-16" points="622.7 390.81 576.43 796.4 576.43 877.83 539.71 1017.11 505.85 1017.11 505.85 796.4 620 396.24 622.7 390.81"/>
      <polygon class="cls-52" points="671.11 796.4 671.11 876.92 624.58 695.09 576.43 877.83 576.43 796.4 622.7 390.81 624.58 386.97 626.41 390.9 626.42 390.91 671.11 796.4"/>
      <path class="cls-37" d="M706.99,1017.11h-5.26c-8.31-15.51-19.14-37.09-30.61-63.58-16.3-37.67-33.89-85.26-47.34-139.48,0,0-22.44,73.83-47.34,136.58-10.37,26.13-21.18,50.34-30.96,66.48h-5.74s36.71-139.28,36.71-139.28l48.16-182.74,46.53,181.84,35.87,140.19h0Z"/>
    </g>
    <g id="bandierina_giallo">
      <g>
        <line class="cls-11" x1="624.58" y1="396.67" x2="624.58" y2="257.42"/>
        <polygon class="cls-52" points="624.58 263.1 748.83 290.93 703.42 310.65 748.83 338.06 624.58 324.78 624.58 263.1"/>
      </g>
      <circle class="cls-14" cx="624.58" cy="256.03" r="1.38"/>
    </g>
    <g id="elefante_giallo">
      <path class="cls-65" d="M440.59,740.55c1.34,2.89,7.36,17.93,9.27,18.37l33.52-13.15,14.31-6.68c-2.7-9.08-4.91-18.45-7.69-27.49-8.46-27.53-17.47-55.31-26.46-82.69-.59-1.81-2.94-3.86-2.21-6.61,1.9-.05,3.71-.6,5.51-1.11,6.93-1.95,14.03-3.53,20.95-5.53,1.29-1.8-7.96-12.21-8.82-14.85.34-1.57,10.06-3.29,12.41-4.14,14.11-5.13,27.17-13.99,36.1-26.19,9.26-12.67,13.82-28.48,13.23-44.1-.57-15.1-4.68-25.17-12.6-35.76-.2-.27-8.04-7.47-8.9-8.3-9.86-9.59-22.16-17.62-14.77-33.55,2.74-5.89,7.96-7.3,10.82-12.09-9.03-8.88-9.41-21.34-23.08-10.09-18.07,14.86-19.47,43.71-5.5,61.75,4.14,5.35,11.1,9.21,13.76,16,4.66,11.87-4.12,25.45-17.08,19.29-4.22-2.01-8.82-9.71-13.21-13.25-30.82-24.84-72.33-5.36-78.27,32l.98,101.86-68.24,17.75-3.32-89.3c-21.59,8.42-23.57,33.53-25.34,53.48s-.54,42.22-7.73,62.28h17.64s4.5,33.34,4.5,33.34c5.46,21.24,13.05,49.49,15.21,72.13.18,1.91.34,3.99.13,5.89,4.41-.48,5.67-5.31,8.28-7.71,8.32-7.68,26.97-18.01,38.03-19.85l1.1-46.86c.41-2.86,3.55-3.83,6.05-3.87l1.67,50.73c11.76-.44,24.36.86,35.28,5.51l2.78-74.95,2.19-2.2c6.48,10.4,11.38,21.92,16.57,33.07l2.94,6.88Z"/>
      <polygon class="cls-19" points="321.3 572.68 330.62 567.17 381.94 539.61 394.46 532.36 395.89 547.26 399.14 648.75 321.3 666.68 321.3 572.68"/>
      <polygon class="cls-50" points="381.94 539.61 384.06 633.73 333.44 648.75 330.62 567.17 381.94 539.61"/>
    </g>
    <polygon id="basepalla_giallo" class="cls-46" points="348.67 911.27 320.16 1017.11 450.08 1017.11 421.59 907.14 348.67 911.27"/>
    <g id="palla_giallo">
      <circle class="cls-29" cx="385.12" cy="847.17" r="77.37"/>
      <circle class="cls-19" cx="385.12" cy="847.17" r="56.42"/>
      <polygon class="cls-50" points="385.12 809.15 394.55 838.19 425.1 838.19 400.39 856.15 409.83 885.19 385.12 867.24 360.41 885.19 369.85 856.15 345.14 838.19 375.68 838.19 385.12 809.15"/>
    </g>
    <g id="scimmia_giallo">
      <path class="cls-64" d="M120.61,844.32c2.47-7.59,11.12-13.99,30.34-15.88,19.21-1.9,26.45,18.86,26.45,18.86,1.51-.32,4.96-.82,8.21.99,3.91,2.18,5.07,6.33,6.09,10.02.88,3.15,2.25,8.1,0,13.71-.71,1.77-3.18,7.08-9.09,9.58-2.77,1.17-5.3,1.3-6.86,1.25-.64,1.45-1.58,3.15-2.99,4.86-3.72,4.51-8.4,6.31-10.74,7.02,2.39,2,7.63,38.98,7.63,38.98,4.83,6.26,12.48,9.15,19.3,7.31.83-.22,8.37-2.4,11.07-9.89.14-.38,2.63-7.67-1.68-13.71-.83-1.16-3.65-5.12-8.24-5.17-.61,0-5.19.02-7.11,3.76-1.29,2.52-.86,5.73,1.12,8.11,1.83-2.38,4.61-3.16,6.49-2.21,1.69.86,2.42,3.02,2.21,4.67-.51,3.87-6.55,7.06-11.03,6.15-5.02-1.02-9.18-7.41-8.39-15.48,2.58-7.18,8.67-12.18,15.57-12.82,9.01-.83,14.88,6.21,15.85,7.37,6.32,7.58,6.2,18.91,1.47,26.89-5.93,10.01-17.21,11.57-19.3,11.86-8.32,1.15-14.83-1.79-17.33-3.08v8.99s-54.02-.12-54.02-.12c0,0,.51-28.74,1.2-42.71s10.74-22.9,10.74-22.9l-6.65-8.02c-1.6.37-4.63.81-7.82-.47-5.94-2.38-7.77-8.83-8.5-11.39-.5-1.74-2.45-8.59,1.49-15.56,3.92-6.92,10.76-8.85,12.05-9.19l2.47-1.8Z"/>
      <rect class="cls-61" x="120.54" y="942.39" width="18.18" height="4.79" rx="2.01" ry="2.01"/>
      <rect class="cls-61" x="145.82" y="942.75" width="18.09" height="4.36" rx="2.01" ry="2.01"/>
      <path class="cls-58" d="M149.26,851.3c-.74-.62-6.31-5.15-13.04-3.63-6.85,1.55-12.12,8.72-11.8,17.3-.8,15.14,11.21,27.54,24.9,27.58,12.06.04,23.11-9.52,24.9-22.62.99-11.9-5.54-21.2-13.12-22.48-5.54-.94-10.34,2.63-11.85,3.85Z"/>
      <rect class="cls-30" x="113.24" y="827.82" width="38.13" height="8.6" transform="translate(-362.18 149.91) rotate(-26.9)"/>
      <rect class="cls-30" x="112.8" y="806.5" width="25.14" height="20.64" transform="translate(-356.01 145.12) rotate(-26.9)"/>
      <path class="cls-6" d="M159.64,875.06c-.51,5.88-5.69,10.23-11.57,9.71-5.88-.51-10.23-5.69-9.71-11.57"/>
    </g>
    <g id="pagliaccio3_giallo">
      <path class="cls-5" d="M1020.82,606.98c-.19.12-.38.24-.59.36.02-.11.04-.2.06-.31.17-.02.35-.05.53-.06Z"/>
      <path class="cls-5" d="M1020.82,606.98c-.19.12-.38.24-.59.36.02-.11.04-.2.06-.31.17-.02.35-.05.53-.06Z"/>
      <path class="cls-5" d="M1020.82,606.98c-.19.12-.38.24-.59.36.02-.11.04-.2.06-.31.17-.02.35-.05.53-.06Z"/>
      <polygon class="cls-34" points="1028.12 898.83 989.39 898.83 989.39 889.14 1002.54 881.39 1028.11 881.5 1028.12 898.83"/>
      <path class="cls-71" d="M1035.12,593.04c-2.73,5.38-8.14,10.05-14.3,13.94-.18,0-.36.04-.53.06-.02.11-.04.2-.06.31-2.67,1.65-5.46,3.16-8.23,4.5-2.13,1.05-4.24,2-6.26,2.84-8.58,3.64-15.57,5.57-15.57,5.57l-3.75-6.46-2.41-4.16c2.17-.51,6.67-2.62,12.08-5.41l-14.13-23.27,26.02-14.64,13.35,24.01c5.84-3.34,9.95-5.77,9.95-5.77l3.08,6.78.77,1.7h0Z"/>
      <path class="cls-24" d="M1064.16,629.06c-4.14,4.14-9.63,6.11-15.05,5.89.12-.98.18-1.98.18-2.99,0-5.07-1.5-9.78-4.07-13.73-3.26-5.03-8.29-8.81-14.19-10.49-2.21-.64-4.53-.98-6.94-.98-1.11,0-2.21.07-3.27.22,6.15-3.89,11.57-8.56,14.3-13.94l-.77-1.7c5.31-1.67,10.83-.79,14.47,2.86.15.15.3.31.44.46,5.37-.17,10.8,1.8,14.9,5.9,7.87,7.87,7.87,20.63,0,28.51h0Z"/>
      <path class="cls-24" d="M1023.13,657.16c-.61.81-1.3,1.58-2.04,2.32-3.98,3.98-8.99,6.21-13.92,6.6-5.19.43-10.3-1.19-14.02-4.91-2.74-2.74-4.33-6.22-4.82-9.93-7.48-3.87-12.49-11.05-12.49-19.28,0-7.5,4.17-14.13,10.57-18.17l3.75,6.46s6.99-1.93,15.57-5.57c-3.81,4.05-6.31,9.36-6.77,15.25-.06.67-.09,1.34-.09,2.03,0,8.69,4.4,16.35,11.08,20.89,2.74,1.84,5.85,3.18,9.2,3.84,1.29.25,2.61.41,3.97.46h0Z"/>
      <path class="cls-70" d="M1049.3,631.96c0,1.01-.06,2.01-.18,2.99-.7,6.02-3.53,11.39-7.72,15.34-4.51,4.26-10.6,6.88-17.3,6.88-.33,0-.64,0-.96-.02-1.35-.05-2.68-.21-3.97-.46-3.35-.66-6.46-2-9.2-3.84-6.68-4.54-11.08-12.2-11.08-20.89,0-.68.03-1.35.09-2.03.46-5.89,2.96-11.19,6.77-15.25,2.02-.84,4.13-1.8,6.26-2.84,2.77-1.34,5.56-2.85,8.23-4.5.2-.12.39-.25.59-.36,1.07-.15,2.16-.22,3.27-.22,2.41,0,4.73.34,6.94.98,5.9,1.68,10.93,5.46,14.19,10.49,2.57,3.95,4.07,8.66,4.07,13.73h0Z"/>
      <path class="cls-70" d="M1111.46,594.81l2.64,1.2-.14.32-21.72-9.88h0c4.23-8.89,7.63-16.92,9.32-22.76l18.77,8.42-8.87,22.71Z"/>
      <polygon class="cls-70" points="965.81 679.37 952.57 698.74 952.43 698.65 954.61 695.46 940.68 686.64 951.29 671.48 965.81 679.37"/>
      <path class="cls-26" d="M1113.96,596.33l-21.72-9.88c-13.87,29.16-36.65,67.49-36.65,67.49l-14.2,1.2v-4.85c-4.51,4.26-10.6,6.88-17.3,6.88-.33,0-.64,0-.96-.02-.61.81-1.3,1.58-2.04,2.32-3.98,3.98-8.99,6.21-13.92,6.6l-24.82,22.27-16.53-8.97-13.25,19.37,29.97,17.98,22.28-15.3-.71,54.04h1.87s74.57-6.65,74.57-6.65l2.86-.23-4.84-74.4,35.38-77.84h0ZM1036.84,670.41c4.68,0,8.46,3.78,8.46,8.45s-3.78,8.46-8.46,8.46c-4.68,0-8.45-3.78-8.45-8.46s3.78-8.45,8.45-8.45ZM1038.37,699.17c4.67,0,8.45,3.79,8.45,8.46s-3.78,8.46-8.45,8.46-8.46-3.79-8.46-8.46,3.78-8.46,8.46-8.46ZM1040.54,746.57c-4.68,0-8.46-3.78-8.46-8.45s3.78-8.46,8.46-8.46,8.45,3.78,8.45,8.46-3.78,8.45-8.45,8.45Z"/>
      <path class="cls-47" d="M1045.3,678.86c0,4.68-3.78,8.46-8.46,8.46-4.68,0-8.45-3.78-8.45-8.46s3.78-8.45,8.45-8.45,8.46,3.78,8.46,8.45Z"/>
      <path class="cls-47" d="M1046.82,707.63c0,4.67-3.78,8.46-8.45,8.46s-8.46-3.79-8.46-8.46,3.78-8.46,8.46-8.46c4.68,0,8.45,3.79,8.45,8.46Z"/>
      <path class="cls-47" d="M1048.99,738.12c0,4.67-3.78,8.45-8.45,8.45s-8.46-3.78-8.46-8.45,3.78-8.46,8.46-8.46,8.45,3.78,8.45,8.46Z"/>
      <polygon class="cls-34" points="1126.14 820.3 1090.46 856.32 1080.52 843.48 1101.76 820.1 1102.5 820.89 1115.97 809.88 1126.14 820.3"/>
      <path class="cls-47" d="M1036.36,849.3l-2.05,16.76c-1.09.44-2.29.68-3.55.68-5.32,0-9.63-4.31-9.63-9.62s4.31-9.63,9.63-9.63c2.09,0,4.03.67,5.61,1.81Z"/>
      <path class="cls-71" d="M1105.76,815.38l-25.21-66.58-74.57,6.65-18.66,125.85,12.31.07,2.92.02,25.56.11,4.31.02,1.89-15.45c-1.09.44-2.29.68-3.55.68-5.32,0-9.63-4.31-9.63-9.62s4.31-9.63,9.63-9.63c2.09,0,4.03.67,5.61,1.81l6.54-53.41,34.99,50.19,2.51-2.77.12.16,21.24-23.38-.13-.14,4.15-4.57h0ZM1011.5,834.25c-5.31,0-9.62-4.31-9.62-9.62s4.31-9.63,9.62-9.63,9.63,4.31,9.63,9.63-4.31,9.62-9.63,9.62ZM1023.79,792.38c-5.32,0-9.63-4.31-9.63-9.63,0-5.32,4.31-9.62,9.63-9.62s9.62,4.3,9.62,9.62-4.3,9.63-9.62,9.63ZM1055.35,771.53c0-5.31,4.31-9.62,9.62-9.62s9.63,4.31,9.63,9.62c0,5.31-4.31,9.63-9.63,9.63s-9.62-4.31-9.62-9.63ZM1079.57,818.94c-5.32,0-9.63-4.31-9.63-9.63s4.31-9.62,9.63-9.62,9.62,4.3,9.62,9.62c0,5.32-4.31,9.63-9.62,9.63Z"/>
      <path class="cls-47" d="M1089.18,809.31c0,5.32-4.31,9.63-9.62,9.63s-9.63-4.31-9.63-9.63,4.31-9.62,9.63-9.62,9.62,4.3,9.62,9.62Z"/>
      <path class="cls-47" d="M1074.61,771.53c0,5.32-4.31,9.63-9.63,9.63s-9.62-4.31-9.62-9.63,4.31-9.62,9.62-9.62,9.63,4.31,9.63,9.62Z"/>
      <path class="cls-47" d="M1033.41,782.75c0,5.32-4.3,9.63-9.62,9.63s-9.63-4.31-9.63-9.63c0-5.32,4.31-9.62,9.63-9.62s9.62,4.3,9.62,9.62Z"/>
      <path class="cls-47" d="M1021.13,824.63c0,5.31-4.31,9.62-9.63,9.62-5.32,0-9.62-4.31-9.62-9.62s4.31-9.63,9.62-9.63,9.63,4.31,9.63,9.63Z"/>
      <path class="cls-6" d="M1033.85,636.98c1.25,5.77-2.42,11.45-8.19,12.7-5.77,1.25-11.45-2.42-12.7-8.19"/>
    </g>
    <g id="pagliaccio2_giallo">
      <g>
        <polygon class="cls-34" points="815.32 842.99 815.18 854.68 796.51 878.29 787.78 869.68 795.95 852.65 793.19 849.95 806.91 835.56 815.32 842.99"/>
        <polygon class="cls-34" points="848.41 925.16 848.41 961.07 809.89 961.07 810.09 951.03 827.57 938.75 827.57 924.23 848.41 925.16"/>
        <polygon class="cls-24" points="853.12 759.59 853.12 934.41 817.46 934.41 817.46 778.49 792.24 812.21 808.76 833.95 792.24 854.1 758.32 813.08 798.88 758.76 847.31 759.5 853.12 759.59"/>
        <polygon class="cls-69" points="914.21 639.89 902.67 659.02 885.35 646.85 885.35 646.84 896.84 629.11 914.21 639.89"/>
        <path class="cls-69" d="M851.9,642.77c0,11.62-8.35,21.27-19.38,23.3-1.4.27-2.86.4-4.34.4-1.04,0-2.06-.07-3.06-.2-11.65-1.5-20.64-11.44-20.64-23.5,0-8.69,4.67-16.28,11.64-20.4l33.29,9.8c1.6,3.19,2.5,6.79,2.5,10.6h0Z"/>
        <polygon class="cls-71" points="864.93 625.02 862.15 635.93 849.4 632.17 816.12 622.37 800.87 617.88 804.48 607.36 818.92 611.34 828.18 578.81 860.37 587.93 851.25 621.65 864.93 625.02"/>
        <path class="cls-71" d="M903.28,658.01l-17.32-12.17-21.03,32.42-18-9.1-14.03.25-.37-3.33c-1.4.27-2.86.4-4.34.4-1.04,0-2.06-.07-3.06-.2v3.29s-15.37,0-15.37,0l-10.76,5.64-16.45-34.64-18.66,9.78-2.56,1.28,23.58,53.82,19.59-6.92-6.52,60.74,55.22.72,2.05-.07-1.48-60.97,20.35,7.39,29.18-48.33h0ZM834.44,734.65h-13.8s0-13.8,0-13.8h13.8s0,13.8,0,13.8ZM834.44,704.17h-13.8s0-13.8,0-13.8h13.8s0,13.8,0,13.8Z"/>
        <rect class="cls-47" x="820.64" y="690.38" width="13.8" height="13.8"/>
        <rect class="cls-47" x="820.64" y="720.85" width="13.8" height="13.8"/>
        <polygon class="cls-69" points="782.54 640.56 763.88 650.35 752.85 630.36 772.33 619.06 782.54 640.56"/>
        <path class="cls-6" d="M837.03,650.22c-1.11,5.79-6.71,9.59-12.5,8.48-5.79-1.11-9.59-6.71-8.48-12.5"/>
      </g>
      <g>
        <polygon class="cls-24" points="847.31 934.41 847.31 759.5 853.12 759.59 853.12 934.41 847.31 934.41"/>
        <polygon class="cls-71" points="847.31 759.5 847.31 934.41 839.82 934.41 839.82 759.59 847.31 759.5"/>
        <polygon class="cls-24" points="839.82 759.59 839.82 934.41 830.82 934.41 830.82 759.5 839.82 759.59"/>
        <polygon class="cls-71" points="830.82 759.5 830.82 934.41 823.58 934.41 823.58 759.14 830.82 759.5"/>
        <polygon class="cls-71" points="807.17 758.89 767.89 812.21 796.83 848.5 792.24 854.1 758.32 813.08 798.88 758.76 807.17 758.89"/>
        <polygon class="cls-24" points="807.17 758.89 815.16 759.14 777.45 812.21 801.63 842.64 796.83 848.5 767.89 812.21 807.17 758.89"/>
        <polygon class="cls-71" points="801.63 842.64 777.45 812.21 815.16 759.14 823.58 759.14 786.15 812.21 805.19 838.31 801.63 842.64"/>
      </g>
    </g>
    <g id="leone_giallo">
      <path class="cls-56" d="M986.6,779.78l-29.51-44.26h-54.04s-29.9,44.26-29.9,44.26l-4.21,47.82,31.42,41.71,23.05,30.6,4.63,6.14,3.76,4.99,3.7-5.11,4.7-6.5,22.77-31.47,27.08-37.41-3.45-50.78h0ZM944.83,847.05h-29.51s-16.48-53.28-16.48-53.28l8.43-40.24h46.09s7.46,39.19,7.46,39.19l-15.99,54.32h0Z"/>
      <polygon class="cls-15" points="960.81 792.73 944.83 847.05 915.31 847.05 898.85 793.77 907.27 753.53 953.35 753.53 960.81 792.73"/>
      <polygon class="cls-67" points="928.03 906.06 928.03 963.89 903.92 963.89 896.02 907.36 895.51 903.58 900.35 869.32 923.41 899.91 928.03 906.06"/>
      <polygon class="cls-66" points="968.02 903.58 967.85 904.85 959.61 963.89 935.49 963.89 935.49 905.94 940.2 899.44 962.97 867.97 968.02 903.58"/>
      <polygon class="cls-68" points="903.92 963.89 885.96 963.89 882.88 921.26 895.51 903.58 903.92 963.89"/>
      <polygon class="cls-68" points="935.49 905.94 935.49 963.89 928.03 963.89 928.03 906.06 931.8 911.05 935.49 905.94"/>
      <polygon class="cls-68" points="983.3 922.38 983.3 963.89 959.61 963.89 967.85 904.85 983.3 922.38"/>
      <polygon class="cls-71" points="888.2 963.89 867.55 1010.95 867.55 963.89 888.2 963.89"/>
      <polygon class="cls-71" points="1000.37 963.89 1000.37 1014.22 978.8 963.89 1000.37 963.89"/>
      <polygon class="cls-33" points="1000.37 1014.22 1000.37 1015.94 955.96 1015.94 978.8 963.89 1000.37 1014.22"/>
      <polygon class="cls-71" points="978.8 963.89 955.96 1015.94 933.66 963.89 978.8 963.89"/>
      <polygon class="cls-33" points="955.96 1015.94 910.82 1015.94 933.66 963.89 955.96 1015.94"/>
      <polygon class="cls-71" points="933.66 963.89 910.82 1015.94 910.5 1015.94 888.2 963.89 933.66 963.89"/>
      <polygon class="cls-33" points="910.5 1015.94 867.55 1015.94 867.55 1010.95 888.2 963.89 910.5 1015.94"/>
      <path class="cls-6" d="M940.22,821.12c0,5.9-4.78,10.68-10.68,10.68-5.9,0-10.68-4.78-10.68-10.68"/>
    </g>
  </g>
  <g id="Divisorio">
    <line class="cls-10" x1="15.95" y1="1020.31" x2="1207.53" y2="1020.31"/>
  </g>
</svg>