<?xml version="1.0" encoding="UTF-8"?>
<svg id="Livello_1" data-name="Livello 1" xmlns="http://www.w3.org/2000/svg" width="24.04cm" height="11cm" viewBox="0 0 681.31 311.81">
  <g>
    <path d="M50.63,224.35l9.04,8.13c3.39,3.05,7.56,8.07,4.43,12.41,9.1,7.92,16.53,5.91,20.97.96,1.65-1.84,2.29-3.69,2.18-5.7,1.87-.23,4.1-1.3,5.69-3.06,2.16-2.4,3.61-6.72-3.1-12.75l-7.65.41c-2.82-1.13-5.76-3.26-8.8-5.99l-3.67-3.3c6.48,1.74,14.64,4.6,25.86,10.59l7.52-.27c2.73-3.04,3.98-6.13,4.22-7.96,2.44-1,4.8-2.07,6.9-4.4-3.78-2.76-9.06-7.12-14.64-12.13-12.08-10.86-25.55-25-28.82-33.17l-7.65.41c-.59.23-1.16.87-1.67,1.43-.63.71-1.38,1.82-1.75,2.52-.5.7-.81,1.19-1.38,1.82-.63.71-1.84.91-2.91.96-.73.11-1.6.22-1.98.64s-.4,1.3-.42,2.18c-.08.95-.15,2.29-.65,2.86-.57.64-1.28,1.28-2.05,1.99-.84.65-2.12,1.8-3.2,3,4.48,1.98,11.13,5.53,16.85,9.39-2.79-.59-9.1-2.94-12.76-4.57l-8.32.44c-.73.24-1.17.74-1.68,1.3s-.88,1.12-1.25,1.82c-.44.63-.8,1.32-1.38,1.96-.63.71-1.91.84-3.04.97-.73.11-1.47.21-1.85.64-.44.49-.54,1.31-.42,2.18.12,1-.02,2.15-.72,2.93-.51.57-1.02,1-1.6,1.5-.65.44-1.43,1.02-2.06,1.72-1.08,1.2-2.18,3.28-2.67,5.39,9.98,1.69,16.37,5.52,24.43,12.75Z" fill="#442052"/>
    <path d="M58.72,214.5c-.78-.7-1.5-1.6-1.89-2.59,14.85.96,29.7,6.89,38.8,12.25,1.71-1.91,2.86-4.32,3.08-6.56,2.45-.74,5.05-2.49,6.89-4.54-4.3-2.46-10.89-7.36-14.35-10.47-6.64-5.97-24.74-22.36-28.34-31.85-.95,1.06-1.57,2.03-1.94,2.73-.43.76-.81,1.19-1.38,1.82-.76.85-1.88,1.24-2.69,1.29-.67.04-1.82-.1-2.27.39s-.18,1.62-.15,2.29c.04.8-.42,2.18-1.37,3.24-.44.49-.96.93-1.54,1.43-.52.43-1.16.87-1.74,1.37,8.89,4.03,16.81,9.86,22.6,15.07-9.12.49-23.18-4.48-28.59-7.55-.66.17-1.31.61-1.69,1.03-.44.49-.81,1.19-1.18,1.88-.3.62-.81,1.19-1.26,1.68-.51.57-1.76,1.1-2.56,1.15-.67.04-1.82-.1-2.27.39s-.32,1.5-.15,2.29c-.02.88-.1,1.82-.68,2.46s-1.27,1.41-1.98,1.92c-.65.44-1.43,1.02-2.06,1.72-.76.85-1.32,1.75-1.66,2.98,8.02,1.46,14.95,5.26,20.81,10.53l10.6,9.52c2.76,2.48,9.65,9.31,6.47,14.12,5.02,4.51,9.32,1.99,10.66.51s1.71-3.19,1.81-5.14c1.93-.31,3.59-.86,4.92-2.35s3.38-6.03-1.64-10.54c-4.45,3.67-12.03-2.38-14.79-4.86l-8.48-7.62Z" fill="#d83f31"/>
    <path d="M92.82,213.22c-.7.78-.56,2.05.21,2.75s1.98.63,2.68-.14.63-1.98-.14-2.68-2.06-.7-2.75.08ZM84.27,207.96c-1.08,1.2-.99,2.95.22,4.02s2.95.99,4.02-.22.99-2.95-.22-4.02-2.95-.99-4.02.22ZM73.27,234.98c-.7.78-.56,2.05.21,2.75s1.98.63,2.68-.14.63-1.98-.14-2.68-2.06-.7-2.75.08ZM78.84,198.22c-1.08,1.2-.99,2.95.22,4.02s2.95.99,4.02-.22.99-2.95-.22-4.02-2.95-.99-4.02.22ZM71.85,206c-1.08,1.2-.99,2.95.22,4.02s2.95.99,4.02-.22c1.14-1.27.99-2.95-.22-4.02s-2.88-1.06-4.02.22ZM65.92,228.38c-1.08,1.2-.99,2.95.22,4.02s2.95.99,4.02-.22.99-2.95-.22-4.02-2.95-.99-4.02.22ZM78.66,193.59l-.47-.04-4.57,5.09.09.47,4.95-5.51ZM70.78,202.36l-.73.24-6.79,7.56.41.11,7.11-7.91ZM58.19,204.58l-.66.17-1.46,1.63.28.25,1.84-2.05ZM60.4,204.52l-.61-.03-2.48,2.76.42.25,2.67-2.97ZM62.88,204.19l-.73.11-3.43,3.82.42.25,3.75-4.17ZM65.28,203.79l-.67.04-4.51,5.02.48.18,4.7-5.23ZM58.07,221.33c-1.08,1.2-.99,2.95.22,4.02s2.95.99,4.02-.22.99-2.95-.22-4.02-2.95-.99-4.02.22ZM57.89,216.7l-.47-.04-4.13,4.59.16.4,4.44-4.95ZM71.08,190.23l-.35-.18-.76.85.22.32.89-.99ZM72.53,191.03l-.42-.25-1.4,1.55.23.46,1.59-1.77ZM74.05,191.75l-.48-.18-2.03,2.26.23.46,2.29-2.54ZM75.43,192.49l-.35-.32-2.92,3.25.29.39,2.98-3.32ZM55.01,182.95c-.57.64-1.47,1.49-2.12,1.93,6.76,3.14,15.85,9.65,20.42,14.51-.97-3.04-3.1-7.64-5.23-11.09,3.6,1.83,6.79,3.67,10.82,4.87-7.07-6.35-14.52-14.83-16.31-19.38-.42,1.03-1.11,1.94-1.81,2.72-.63.71-1.88,1.38-2.95,1.44-.67.04-1.62-.18-1.94.17s-.22.95-.03,1.89-.09,2.09-.85,2.94ZM77.08,193.07l-.42-.25-3.75,4.17.23.46,3.94-4.38ZM68,203.18l-.8.18-5.52,6.15.48.18,5.84-6.5ZM50.38,213.27l-.41-.11-.83.92.22.32,1.02-1.13ZM51.83,214.06l-.48-.18-1.4,1.55.29.39,1.59-1.77ZM56.32,216.18l-.42-.25-3.43,3.82.23.46,3.62-4.03ZM54.67,215.59l-.42-.25-2.6,2.9.29.39,2.73-3.04ZM53.29,214.86l-.42-.25-2.03,2.26.29.39,2.16-2.4ZM53,222.01c-1.68-3.81-3.67-7-6.17-10.9,4.08,2.14,8.32,4.67,11.37,5.11-1.77-1.59-3.16-3.73-3.4-5.74,1.8-.3,4.84.01,8.35.23-3.91-1.34-7.18-3.52-10.36-6.24,6.05-.05,12.8-.89,18.29-2.59-11.42.21-21.96-4.28-27.02-7.17-.4.02-.73.24-1.04.59-.25.28-.49.83-.73,1.38-.31.49-.68,1.18-1.25,1.82-.63.71-1.88,1.38-2.89,1.37-.67.04-1.69-.11-2.01.24s-.06,1.35-.02,2.15c.11.87-.23,1.96-.87,2.67-.57.64-1.28,1.28-2.12,1.93-.91.59-1.74,1.37-2.57,2.29,6.19,1.22,13.65,4.99,19.09,9.88l3.32,2.98Z" fill="#fce09a"/>
  </g>
  <g>
    <path d="M106.35,153.14c2.76-2.18,5-2.25,13,7.89,11.71,14.84,9.83,18.14,8.49,19.2-2.69,2.12-8.74-2.18-15.93-11.15-8.02-10.01-8.54-13.59-5.56-15.94ZM140.67,193.58c14.02-11.06,11.43-29.83,1.2-42.81-15.42-19.54-34.27-17.98-43.01-11.57-1.18.81-2.22,1.02-3.3,1.03-1.07-.13-1.87-.22-2.39.19-.45.35-.63,1.35-.67,2.22-.11.93-.58,2.03-1.77,2.97-10.18,8.27-8.18,24.6,1.88,37.36,15.06,19.09,35.01,20.91,48.06,10.61Z" fill="#442052"/>
    <path d="M127.59,184.06c-7.31,5.77-14.84-3.78-21.55-12.28-5.71-7.23-12.41-15.74-5.11-21.5s14.09,2.68,19.8,9.91c6.71,8.5,14.24,18.05,6.85,23.87ZM133.12,191.07c15.14-11.94,9.25-29.08.31-40.41-9.59-12.16-24.54-17.3-33.57-10.18-1.19.94-2.38,1.27-3.45,1.15-.8-.09-1.72-.34-2.24.07-.45.35-.42,1.3-.61,2.3s-.64,1.95-1.83,2.9c-9.02,7.12-7.5,22.86,2.09,35.01,8.94,11.34,24.16,21.11,39.3,9.17Z" fill="#d83f31"/>
    <path d="M99.94,149c6.64-5.24,13.41-1.87,20.7,8.6-.9-4.37-2.2-8.31-3.7-12.21,3.36.74,8.21,2.12,13.47,4.5-6.04-6.73-20.01-15.55-29.48-8.08-1.27,1-2.57,1.18-3.72,1.12-.74-.02-1.6-.19-1.97.11-.3.24-.26,1.05-.41,1.78-.28,1.19-.83,2.47-2.03,3.41-9.47,7.47-4.22,23.18.99,30.56-1.16-5.62-1.31-10.71-1.24-14.15,3.37,2.43,6.9,4.6,11.01,6.44-8.48-9.52-10.18-16.89-3.62-22.07ZM135.49,176.13c-.82.65-.9,1.92-.26,2.74s1.85.96,2.67.31.96-1.85.31-2.67-1.91-1.04-2.73-.39ZM133.27,166.26c-1.27,1-1.47,2.73-.47,4s2.73,1.47,4,.47,1.47-2.73.47-4-2.73-1.47-4-.47ZM118.49,189.55c-.82.65-.9,1.92-.26,2.74s1.85.96,2.67.31.96-1.85.31-2.67-1.91-1.04-2.73-.39ZM109.11,185.33c-1.27,1-1.47,2.73-.47,4s2.73,1.47,4,.47c1.34-1.06,1.47-2.73.47-4s-2.66-1.53-4-.47ZM127.54,156.39c-1.64,1.29-2,3.75-.76,5.32s3.77,1.87,5.41.57,1.92-3.7.63-5.34-3.64-1.85-5.28-.56ZM100.62,177.63c-1.64,1.29-2,3.75-.76,5.32s3.77,1.87,5.41.57,1.92-3.7.63-5.34-3.64-1.85-5.28-.56ZM95.6,167.43l-.24-.3-2.31,1.82v.47s2.55-2,2.55-2ZM121.4,147.07l-.38-.18-2.24,1.77.09.42,2.54-2ZM97.04,168.35l-.37-.31-3.58,2.82.15.49,3.8-3ZM130.02,150.32l-.46-.12-8.5,6.71v.47s8.96-7.06,8.96-7.06ZM103.09,171.56l-.46-.12-8.35,6.59.09.42,8.73-6.88ZM123.22,147.69l-.59-.14-3.43,2.71.22.43,3.8-3ZM125.04,148.31l-.52-.2-4.7,3.71.15.49,5.07-4ZM126.58,149.04l-.44-.26-5.89,4.65.15.49,6.19-4.88ZM128.25,149.78l-.52-.2-7.09,5.59.15.49,7.46-5.88ZM99.96,170.04l-.37-.31-6.04,4.77.07.55,6.34-5ZM101.63,170.78l-.52-.2-7.23,5.71.15.49,7.61-6ZM98.57,169.2l-.44-.26-4.77,3.77.15.49,5.07-4Z" fill="#fce09a"/>
  </g>
  <g>
    <path d="M146.09,139.47l5.76,10.71c2.16,4.02,4.38,10.16-.03,13.18,5.88,10.54,13.55,11.16,19.41,8.01,2.18-1.17,3.41-2.69,3.99-4.62,1.84.41,4.3.17,6.39-.95,2.85-1.53,5.67-5.1,1.4-13.05l-7.33-2.21c-2.27-2.02-4.31-5.02-6.25-8.61l-2.34-4.35c5.51,3.83,12.22,9.29,20.74,18.73l7.17,2.3c3.6-1.93,5.82-4.42,6.66-6.06,2.63-.12,5.22-.32,7.98-1.81-2.62-3.88-6.11-9.77-9.67-16.38-7.69-14.31-15.57-32.18-15.88-40.97l-7.33-2.21c-.64.02-1.39.42-2.06.78-.84.45-1.92,1.25-2.5,1.77-.71.49-1.17.84-1.92,1.25-.84.45-2.03.23-3.06-.08-.73-.15-1.58-.34-2.08-.07s-.82,1.09-1.13,1.9c-.4.86-.92,2.11-1.58,2.47-.75.4-1.63.77-2.6,1.18-1.01.33-2.61.97-4.03,1.73,3.54,3.38,8.6,8.97,12.67,14.54-2.42-1.5-7.57-5.85-10.46-8.62l-7.98-2.4c-.77-.02-1.35.3-2.02.65s-1.21.76-1.79,1.29c-.62.44-1.2.97-1.96,1.38-.84.45-2.08.15-3.19-.12-.73-.15-1.45-.3-1.96-.03-.59.31-.95,1.05-1.13,1.9-.23.98-.75,2.02-1.67,2.51-.67.36-1.3.59-2.01.87-.76.19-1.69.47-2.52.92-1.42.76-3.16,2.35-4.34,4.17,8.82,4.97,13.54,10.74,18.67,20.28Z" fill="#442052"/>
    <path d="M157.03,132.94c-.49-.92-.87-2.01-.9-3.08,13.65,5.93,25.61,16.54,32.35,24.67,2.26-1.21,4.16-3.1,5.12-5.12,2.55.14,5.59-.63,8.02-1.94-3.21-3.77-7.75-10.61-9.96-14.71-4.23-7.87-15.71-29.42-15.88-39.57-1.26.67-2.17,1.38-2.75,1.91-.66.57-1.17.84-1.92,1.25-1,.54-2.19.53-2.97.3-.64-.19-1.68-.72-2.26-.4s-.72,1.47-.92,2.11c-.23.77-1.13,1.9-2.39,2.58-.59.31-1.22.55-1.93.82-.63.23-1.39.42-2.1.7,7,6.81,12.47,14.98,16.16,21.84-8.75-2.63-20.29-12.07-24.34-16.79-.68-.06-1.44.13-1.94.4-.59.31-1.17.84-1.74,1.37-.5.48-1.17.84-1.75,1.16-.67.36-2.03.44-2.8.21-.64-.19-1.68-.72-2.26-.4s-.81,1.3-.92,2.11c-.32.82-.72,1.68-1.47,2.08s-1.67.9-2.52,1.14c-.76.19-1.69.47-2.52.92-1,.54-1.83,1.2-2.57,2.24,7.05,4.08,12.28,10.01,16.02,16.95l6.75,12.55c1.75,3.26,5.92,12.02,1.31,15.48,3.19,5.94,8.1,5.03,9.85,4.09s2.69-2.42,3.45-4.23c1.92.37,3.67.4,5.42-.54s5.22-4.53,2.03-10.47c-5.43,1.95-10.52-6.32-12.27-9.58l-5.4-10.04Z" fill="#d83f31"/>
    <path d="M189.56,143.28c-.92.49-1.22,1.74-.73,2.66s1.65,1.27,2.57.77,1.27-1.65.77-2.57-1.7-1.35-2.62-.86ZM183.29,135.44c-1.42.76-1.93,2.44-1.16,3.86s2.44,1.93,3.86,1.16,1.93-2.44,1.16-3.86-2.44-1.93-3.86-1.16ZM163.79,157.14c-.92.49-1.22,1.74-.73,2.66s1.65,1.27,2.57.77,1.27-1.65.77-2.57-1.7-1.35-2.62-.86ZM181.48,124.44c-1.42.76-1.93,2.44-1.16,3.86s2.44,1.93,3.86,1.16,1.93-2.44,1.16-3.86-2.44-1.93-3.86-1.16ZM172.27,129.39c-1.42.76-1.93,2.44-1.16,3.86s2.44,1.93,3.86,1.16c1.51-.81,1.93-2.44,1.16-3.86s-2.35-1.97-3.86-1.16ZM159.11,148.44c-1.42.76-1.93,2.44-1.16,3.86s2.44,1.93,3.86,1.16,1.93-2.44,1.16-3.86-2.44-1.93-3.86-1.16ZM182.88,120.02l-.43-.2-6.02,3.24-.07.47,6.53-3.51ZM172.5,125.6l-.77-.02-8.95,4.81.35.24,9.37-5.04ZM159.9,123.42l-.68-.06-1.92,1.03.18.33,2.43-1.3ZM162,124.12l-.56-.24-3.26,1.75.31.37,3.51-1.89ZM164.44,124.64l-.73-.15-4.52,2.43.31.37,4.94-2.65ZM166.83,125.08l-.64-.19-5.94,3.19.39.33,6.19-3.33ZM154.11,139.15c-1.42.76-1.93,2.44-1.16,3.86s2.44,1.93,3.86,1.16,1.93-2.44,1.16-3.86-2.44-1.93-3.86-1.16ZM155.51,134.73l-.43-.2-5.44,2.92v.42s5.87-3.15,5.87-3.15ZM176.88,114.29l-.26-.29-1,.54.1.38,1.17-.63ZM177.98,115.53l-.31-.37-1.84.99.06.51,2.09-1.12ZM179.17,116.73l-.39-.33-2.68,1.44.06.51,3.01-1.62ZM180.22,117.89l-.22-.42-3.85,2.07.14.46,3.93-2.11ZM164.24,102c-.75.4-1.89.91-2.65,1.1,5.3,5.24,11.65,14.45,14.3,20.57.12-3.19-.33-8.24-1.17-12.21,2.76,2.94,5.14,5.76,8.53,8.25-4.5-8.37-8.63-18.87-8.78-23.76-.74.83-1.7,1.45-2.62,1.95-.84.45-2.23.66-3.26.35-.64-.19-1.47-.72-1.88-.5s-.53.82-.67,1.76-.79,1.94-1.8,2.48ZM181.57,118.99l-.31-.37-4.94,2.65.06.51,5.19-2.79ZM169.6,125.43l-.81-.1-7.28,3.91.39.33,7.7-4.14ZM149.6,128.95l-.35-.24-1.09.58.1.38,1.34-.72ZM150.7,130.19l-.39-.33-1.84.99.14.46,2.09-1.12ZM154.21,133.7l-.31-.37-4.52,2.43.06.51,4.77-2.56ZM152.86,132.6l-.31-.37-3.43,1.84.14.46,3.6-1.93ZM151.8,131.44l-.31-.37-2.68,1.44.14.46,2.85-1.53ZM149.11,138.06c-.29-4.16-1.08-7.83-2.11-12.35,3.12,3.39,6.25,7.21,8.97,8.66-1.12-2.09-1.71-4.58-1.26-6.55,1.79.33,4.55,1.65,7.78,3.04-3.22-2.58-5.57-5.74-7.63-9.38,5.71,2,12.35,3.5,18.09,3.76-10.82-3.68-19.21-11.46-23-15.9-.39-.12-.77-.02-1.18.21-.33.18-.75.62-1.16,1.05-.46.35-1.04.88-1.79,1.29-.84.45-2.23.66-3.18.31-.64-.19-1.55-.68-1.97-.45s-.52,1.25-.75,2.02c-.19.86-.88,1.77-1.72,2.22-.75.4-1.63.77-2.65,1.1-1.06.24-2.1.7-3.19,1.28,5.41,3.24,11.16,9.32,14.62,15.76l2.11,3.93Z" fill="#fce09a"/>
  </g>
  <g>
    <path d="M251.94,118.31c-1.28.35-4.69-3.43-8.55-16.66-3.74-13.16-2.61-15.15-.5-15.73,1.37-.38,3.28,1.16,4.99,3.06,4.88,5.16,13.51,5.73,18.56,5.81.63.12,1.19-.33,1.06-.79-.18-.64-.54-1.23-.9-1.82-.48-.66-1.16-1.35-1.39-2.18-.2-.73-.01-1.47.32-2.75.29-1.46.47-3.28.12-4.57-.48-1.74-1.4-3.65-2.28-4.69-.8-.76-1.51-1.55-1.72-2.29-.18-.64-.25-1.61.07-2.58.18-1.13.35-2.66.07-3.67-.18-.64-.33-1.19-1.01-1.5l-6.21-3.21c-.44-.17-.77-.28-1.23-.15s-.96.46-1.52.91c-2.17,1.78-4.2,2.64-7.13,3.45-1.83.51-4.13.75-5.22.36-1.44-.59-2.52-1.27-3.16-1.1-.55.15-.96,1.15-1.29,1.74-.46.82-1.44,1.58-2.35,1.83-6.96,1.92-19.69,10.08-12.55,35.9,8.08,29.21,25.87,31.88,39.23,28.19,8.79-2.43,16.05-7.2,15.25-22.55-.2-2.51-.49-5.68-.23-8.31l-6.77-3.45c-3.07.65-5.83,2.1-7.39,3.92-2.05-1.01-5.71-.69-9.98.98,1.57,2.82,2.78,5.05,3.21,6.6.71,2.56.23,4.77-1.51,5.25Z" fill="#442052"/>
    <path d="M245.08,70.33c-3.3.91-5.32,1.08-6.26.55-.49-.36-1.39-1.1-2.03-.92s-1.03,1.27-1.36,1.85c-.4.7-1.51,1.31-2.43,1.56-9.98,2.76-16.67,14.56-11.33,33.89,3.7,13.37,12.92,28.56,30.5,23.7,8.7-2.4,15.84-6.15,15.05-20.42-.07-2.05-.22-4.37.07-7.22-3.02.84-5.27,2.34-6.53,4.17-2.03-.92-4.54-1.11-7.84-.2,5.01,7.78,2.27,13.57-1.94,14.73-6.23,1.72-10.63-6.72-14.33-20.09-2.63-9.52-5.29-19.14,3.68-21.62,1.83-.51,3.47.42,5.55,3.69,2.47,3.95,9.5,8.71,14.59,7.5-1.45-1.67-2.19-2.94-2.4-3.67-.25-.92.04-1.98.22-3.12s.55-3.01.09-4.66c-.58-2.11-1.35-3.47-2.27-4.3-.74-.88-1.36-1.7-1.48-2.15-.15-.55-.02-1.87.18-2.91.19-.74.3-1.76-.03-2.95-.25-.92-.6-1.81-1.06-1.68-.55.15-1.34.86-2.06,1.46-1.29,1.05-4.14,2.13-6.61,2.81Z" fill="#d83f31"/>
    <path d="M260.74,109.87c-1.01.28-1.49,1.4-1.21,2.4s1.21,1.54,2.22,1.26,1.63-1.24,1.35-2.25-1.36-1.7-2.36-1.42ZM260.07,118.13c-1.01.28-1.49,1.4-1.21,2.4s1.24,1.63,2.25,1.35,1.6-1.33,1.33-2.34-1.36-1.7-2.36-1.42ZM240.93,123.42c-1.01.28-1.58,1.42-1.3,2.43s1.33,1.6,2.34,1.33,1.6-1.33,1.33-2.34-1.36-1.7-2.36-1.42ZM234.2,115.82c-1.56.43-2.42,1.95-1.99,3.51s1.95,2.42,3.51,1.99c1.65-.46,2.42-1.95,1.99-3.51s-1.86-2.44-3.51-1.99ZM230.09,105.23c-2.01.56-3.3,2.69-2.77,4.61s2.75,3.18,4.77,2.62,3.21-2.66,2.65-4.68-2.64-3.12-4.65-2.56ZM228.86,94.04l-.28-.32-2.84.78-.27.47,3.39-.94ZM229.66,95.49l-.22-.43-4.4,1.22-.15.53,4.76-1.32ZM233.9,100.83l-.28-.32-10.35,2.86-.08.42,10.71-2.96ZM232.67,99.59l-.49-.36-8.52,2.35-.06.51,9.07-2.51ZM231.5,98.24l-.22-.43-7.23,2-.06.51,7.51-2.08ZM230.64,96.9l-.31-.41-5.86,1.62-.06.51,6.23-1.72ZM245.39,71.82c-3.75,1.04-5.79.81-6.72.28-.61-.42-1.05-.6-1.42-.5s-.58.75-1.07,1.48c-.56.84-1.62,1.63-2.72,1.93-12,3.32-13.12,18.51-10.86,28.83.65-4.42,2.32-9.81,4.53-13.57,2.15,3.84,4.87,7.62,7.38,10.28-2.78-7.21-5.4-18.81,5.41-21.8,2.75-.76,5.36.49,6.49,2.44,2.42,4.46,6.84,7.28,10.51,8.43-.45-.57-.56-1.32-.79-2.15-.35-1.28.1-2.49.37-3.65.39-1.09.45-2.29.15-3.39-.35-1.28-1.17-2.44-1.79-3.25-.79-1.06-1.78-2.17-2.04-3.08s.16-1.92.34-3.05.29-2.15.06-2.97c-2.23,1.9-5.27,3.03-7.84,3.74Z" fill="#fce09a"/>
  </g>
  <g>
    <path d="M302.74,75.71c1.61-.17,2.96-.03,3.09,1.2.27,2.55-1.65,6.1-3.54,6.3-.94.1-1.63-.02-1.71-.77-.47-4.44.07-6.5,2.15-6.72ZM308.01,113.65l-2.85-2.56c-1.52-3.56-2.41-8.34-2.86-12.59,3.44,1.83,5.11,7.67,6.09,11.49-.25,1.27-.5,2.54-.37,3.67ZM279.16,84.9l1.75,16.53c.48,4.53.67,10.82-4.94,11.99,1.37,11.99,9.01,15.57,15.81,14.85,2.74-.29,4.23-1.59,5.53-2.78,1.45,1.09,4.01,1.77,6.28,1.53,1.42-.15,2.88-.78,4.3-1.79,1.41-1.11,2.68-2.67,3.52-4.67,2.76,3.53,6.45,4.95,9.94,4.58,1.98-.21,3.87-1.37,4.97-2.72,1.74,1.06,3.44,1.83,5.43,1.62,3.87-.41,6.69-3.58,5.97-10.38l-5.18-4.7c-2.21-1.96-4.2-4.43-5.22-6.9-1.65-3.84-4.09-7.02-6.64-8.56,5.24-3.71,7.59-8.64,6.93-14.78-1.53-14.45-16.67-21.16-28.76-19.88-3.12.33-5.09.64-6.67,1.09-1.03.2-1.96.4-2.81.49-.94.1-1.98-.65-2.82-1.33-.62-.41-1.23-.82-1.8-.76-.66.07-1.27.61-1.77,1.33-.59.73-1.55,1.6-2.49,1.7-.85.09-1.43.06-2.29.05-.78-.11-1.74-.2-2.69-.1-1.61.17-3.81.98-5.21,2.18,6.56,8.67,8.31,16.22,8.86,21.41Z" fill="#442052"/>
    <path d="M295.4,86.62c-.66.07-1.09-.36-1.14-.83l-.45-4.25c-.81-7.65-1.21-11.43,4.64-12.05,4.82-.51,8.38,1.59,8.87,6.13.6,5.67-2.66,10.03-9.27,10.73l-2.65.28ZM295.33,95.89c9.92-1.05,12.35,4.71,14.81,14.38-1.32,4.63.42,9.32,5.04,8.83,2.27-.24,3.88-1.27,4.88-2.62,1.67,1.35,3.81,1.7,5.51,1.52,3.31-.35,6.29-1.91,4.94-8.36-3.02.32-6.65-1.49-8.47-8.65-1.31-5.12-4.71-10.2-9.58-11.98,5.57-2.41,8.82-6.95,7.97-14.89-1.04-9.82-10.18-14.87-21.32-13.69-2.55.27-4.24.55-6.11.94-1.4.34-2.52.55-3.37.64-.94.1-2.04-.36-2.78-.95-.72-.5-1.37-1.19-1.94-1.13-.66.07-1.05.88-1.64,1.61-.79.66-1.67,1.32-2.62,1.42-.85.09-1.42.15-2.29.05-.78-.11-1.74-.2-2.69-.1-1.13.12-2.15.42-3.23,1.11,4.98,6.44,7.59,13.91,8.42,21.75l1.5,14.17c.39,3.68.94,13.37-4.64,14.82.71,6.71,5.6,7.72,7.77,7.49s3.97-1.28,5.64-2.7c1.83,1.05,4,1.68,6.27,1.44s6.92-2.26,6.21-8.97c-6.04-.22-7.63-9.79-8.02-13.48l-.28-2.65Z" fill="#d83f31"/>
    <path d="M319.29,109.21c-1.04.11-1.69,1.14-1.58,2.17s.96,1.81,2,1.7c1.13-.12,1.8-1.05,1.69-2.09s-.97-1.9-2.1-1.78ZM315.11,100.48c-1.7.18-2.7,1.53-2.53,3.13s1.43,2.71,3.13,2.53c1.61-.17,2.7-1.53,2.53-3.13s-1.53-2.7-3.13-2.53ZM290.38,112.27c-1.04.11-1.79,1.15-1.68,2.18s1.05,1.8,2.09,1.69,1.8-1.05,1.69-2.09-1.06-1.89-2.1-1.78ZM289.42,103.2c-1.61.17-2.7,1.53-2.53,3.13s1.53,2.7,3.13,2.53,2.7-1.53,2.53-3.13-1.53-2.7-3.13-2.53ZM308.13,90.52c-1.61.17-2.69,1.62-2.53,3.13.18,1.7,1.54,2.8,3.14,2.63s2.7-1.53,2.52-3.23c-.16-1.51-1.53-2.7-3.13-2.53ZM288.23,91.96c-2.08.22-3.6,2.1-3.39,4.09s2.1,3.6,4.18,3.38,3.6-2.1,3.38-4.18-2.09-3.5-4.17-3.28ZM315.2,77.92l-.13-.37-2.08.22-.34.42,2.55-.27ZM315.64,81.12l-.05-.47-4.53.48-.23.5,4.82-.51ZM315.42,82.68l.04-.48-5.48.58-.23.5,5.67-.6ZM315.47,79.52l-.05-.47-3.4.36-.23.5,3.68-.39ZM314.43,85.93l.24-.41-7.46.79-.43.43,7.65-.81ZM315.12,84.33l.04-.48-6.33.67-.33.51,6.61-.7ZM290.91,88.43l-.32-.35-7.09.75-.15.4,7.56-.8ZM289.99,87l-.33-.44-5.57.59-.14.49,6.05-.64ZM289.16,85.46l-.33-.44-4.35.46-.04.48,4.72-.5ZM287.24,80.89l-.23-.36-1.13.12-.15.4,1.51-.16ZM287.79,82.46l-.24-.45-2.08.22-.23.5,2.55-.27ZM288.34,84.02l-.14-.46-3.21.34-.14.49,3.5-.37ZM291.51,76.14c-.6-5.67,3.08-7.87,6.77-8.26,4.72-.5,9.99,1.42,10.64,7.56.59,5.57-2.01,11.68-11.17,12.65l-2.55.27c-1.42.15-2.49-.98-2.68-2.77l-1-9.45ZM282.77,89.2c1.65-4.28,2.93-9.29,3.47-12.31,2.33,7.59,5.44,13.47,8.09,13.18l3.4-.36c4.91-.52,8.18-2.11,10.68-5.62,2.42-3.31,4.57-7.36,5.89-10.18,1.68,4.12,2.49,8.14.78,11.86,2.83-2.12,4.26-6.66,3.75-11.48-1.08-10.2-11.23-13.14-18.79-12.34-3.31.35-5.66.7-7.52,1.18-1.02.3-1.86.48-2.71.57-.94.1-1.92-.08-2.96-.93-.73-.59-1.27-1.2-1.75-1.15s-.96.87-1.47,1.49c-.58.83-1.48,1.4-2.42,1.5-1.04.11-1.81,0-2.77,0-1.07-.17-2.31-.14-3.7.2,3.55,3.73,6.79,11.79,7.68,21.06l.35,3.31Z" fill="#fce09a"/>
  </g>
  <g>
    <path d="M365.71,108.83c-1.14-.07-1.87-.59-1.82-1.35.03-.57.52-.73,1.28-.69,2.85.17,6.11-.4,8.25-4.27-.31,3.6-4.19,6.51-7.7,6.3ZM343.37,84.47l-.72,12.14c-.3,5.03-2,11.3-7.03,11-.53,12.06,6.23,16.83,13.35,17.26,1.42.08,3.83-.44,5.91-1.84,3.32,1.72,6.28,3.23,10.74,3.49,4.17.25,6.98-.54,9.31-1.35,2.82-.97,5.13-1.5,7.41-1.37,1.8.11,3.86.71,4.85,1.62.99,1.01,1.51,1.8,1.89,1.83.66.04.75-1.38.72-2.53-.07-2-.64-5.27-1.88-6.77,1.72-1.71,2.61-3.94,2.75-6.31.49-8.25-7.89-14.55-15.83-15.41-.34-.69-.79-1.19-1.51-1.8,1.32-1.44,2.3-3.48,2.4-5.19.2-3.32-3.87-10.13-10.39-10.99.21-3.6.47-4.64,1.79-4.56,1.42.08,2.43.72,3.37,2.48,3.74,7.55,8.98,10.72,16.39,14.01.65.32,1.33.08,1.36-.4.04-.66-.11-1.34-.36-1.92-.33-.88-.56-1.75-.51-2.6.05-.76.68-1.86,1.31-2.87.84-1.38,1.41-2.87,1.49-4.29.08-1.33-.48-3.17-.88-4.43-.32-1.07-.55-2.03-.51-2.69.05-.76.3-1.79.82-2.62.82-1,1.58-2.57,1.65-3.71.05-.76-.03-1.14-.47-1.65l-4.83-5.14c-.36-.31-.63-.61-1.1-.64-.57-.03-1.15.22-1.74.47-2.63.99-4.92,1.04-7.95.86-2.47-.15-5.18-.88-6.17-1.79-.81-.71-1.45-1.23-2.02-1.26s-1.27.5-2.16,1.11c-.99.7-2.64,1.18-4.73,1.05s-3.58-.69-4.46-1.79c-.64-.51-1.36-1.13-2.12-1.17-.66-.04-1.27.5-1.97,1.12-.6.54-1.69,1.23-2.45,1.19s-1.7-.29-2.45-.43c-.84-.34-1.69-.39-2.64-.44-1.61-.1-3.91.15-5.98,1.26,5.45,10.79,5.9,17.67,5.34,27.06Z" fill="#442052"/>
    <path d="M344.34,95.38c-.22,3.7-1.27,13.34-7.01,13.86-.4,6.73,4.25,8.53,6.43,8.66s4.32-.6,6-1.74c2.2,1.46,7.51,3.4,12.44,3.69,3.98.24,6.67-.17,9.29-.97,2.52-.8,4.55-1.35,6.26-1.25,1.61.1,3.95.71,6.6,2.68.25-4.27-1.15-6.35-2.4-7.66,1.23-1.45,2.31-3.67,2.44-5.76.39-6.54-5.4-8.5-10.42-8.8.77,1.38,1.25,3.02,1.16,4.45-.26,4.46-5.05,8.17-9.61,7.9-8.72-.52-8.25-8.58-8-12.66.14-2.37,1.61-3.14,3.51-3.03,1.61.1,2.6,1.01,2.53,2.34-.07,1.14-.34,2.45-.87,3.47,5.75,1.01,7.49-2.79,7.65-5.45.14-2.28-.63-3.75-1.53-4.66,1.02-1.18,1.97-2.64,2.09-4.82s-1.18-5.78-6.99-5.74c.41,1.07.52,2.41.46,3.55-.08,1.33-1.18,2.21-2.79,2.12-2.09-.12-3.13-3.33-2.95-6.46.38-6.45.74-12.42,6.52-12.08,2.75.16,5.07,2.78,6.19,6.36.96,3.1,4.06,10.14,11.24,11.04-.83-2.05-1.15-3.11-1.09-4.06s.7-2.15,1.23-3.16c.74-1.19,1.32-3.06,1.44-5.05.07-1.14-.41-2.78-.83-3.67-.43-.79-.66-1.75-.63-2.23s.34-.93.75-1.48c.72-.91,1.28-2.3,1.35-3.54.07-1.14-.15-2.29-.43-2.31-.57-.03-1.55.38-2.42.71-1.27.5-3.38.75-5.94.6-3.13-.19-5.95-.83-7.03-1.75-.9-.81-1.44-1.32-2.01-1.36-.66-.04-1.47.67-2.55,1.28-1.09.7-2.63.99-4.43.88-2.09-.12-4.03-1-4.75-1.71s-1.26-1.22-1.83-1.25c-.66-.04-1.38.87-1.89,1.32-.8.71-1.87,1.03-2.82.97-.85-.05-1.42-.08-2.26-.32-.75-.23-1.68-.48-2.63-.54-1.14-.07-2.19.06-3.36.56,3.66,7.26,5.2,14.96,4.73,22.84l-.84,14.23Z" fill="#d83f31"/>
    <path d="M379.42,104.03c-1.04-.06-1.95.74-2.01,1.78s.74,1.95,1.78,2.01,1.95-.74,2.01-1.78-.74-1.95-1.78-2.01ZM350.2,108.86c-1.04-.06-1.95.84-2.01,1.88s.74,1.95,1.78,2.01,1.95-.74,2.01-1.78-.74-2.04-1.78-2.1ZM350.74,99.75c-1.61-.1-2.92,1.06-3.01,2.68s1.06,2.92,2.68,3.01,2.92-1.06,3.01-2.68-1.06-2.92-2.68-3.01ZM374.82,110.99c-1.04-.06-1.95.84-2.01,1.88s.74,1.95,1.78,2.01,1.95-.74,2.01-1.78-.74-2.04-1.78-2.1ZM351.41,88.47c-2.09-.12-3.89,1.48-4.01,3.47s1.48,3.89,3.57,4.02,3.89-1.48,4.02-3.57-1.49-3.8-3.57-3.92ZM357.95,85.62l-.26-.4-10.15-.6-.21.37,10.62.63ZM356.72,84.03l-.26-.49-8.06-.48-.22.46,8.54.51ZM353.58,77.46l-.26-.4-1.9-.11-.21.37,2.37.14ZM354.25,79.12l-.26-.49-3.22-.19-.22.46,3.7.22ZM355.77,82.35l-.26-.49-6.26-.37-.12.47,6.64.39ZM354.91,80.78l-.26-.49-4.74-.28-.12.47,5.12.3ZM346.67,84.86c1.98-2.93,4.26-7.65,5.64-11.56,1.72,4.77,3.8,9.74,6.5,12.28-1.73-2.86-1.82-4.68-1.53-9.42.52-8.72,3.42-11.12,7.97-10.85,3.89.23,6,3.21,7.38,7.19,1.48,3.89,3.46,7.44,7.41,9.77-.15-.68-.2-1.44-.15-2.29.06-.95.72-2.43,1.45-3.63.93-1.28,1.11-2.6,1.21-4.31.06-1.04-.17-1.91-.58-2.98-.41-1.17-.92-2.15-.87-2.91.05-.85.57-1.58,1.08-2.22.61-.63.93-1.28.97-1.85.03-.47.06-.95-.03-1.14-1.85.65-3.59,1.21-7.2,1-3.03-.18-5.86-.73-7.49-2.06-.81-.71-1.18-1.02-1.65-1.05-.38-.02-1.17.41-2.17,1.2-.79.52-2.44,1.09-4.72.96-2.09-.12-3.56-.88-4.66-1.7-.82-.62-1.45-1.23-1.92-1.26s-1.09.79-1.79,1.23c-.8.62-1.48.96-2.53.9-.95-.06-1.8-.2-2.83-.36-.93-.34-1.87-.49-3.13-.19,2.13,4.12,4.41,12.25,3.95,20.03l-.31,5.22Z" fill="#fce09a"/>
  </g>
  <g>
    <path d="M420.32,109.16l3.15-13.8c2.39-10.47,4.19-11.52,5.94-11.12,2.13.49,3.08,2.75.77,12.84-3.63,15.93-7.35,19.86-9.02,19.48-1.11-.25-2.03-2.22-.85-7.4ZM402.59,89.53l-2.7,11.86c-.95,4.17-3.55,10.88-8.83,9.68-2.31,11.85,3.39,17.63,8.48,18.79,2.41.55,5.46-.02,7.12-1.3,3.38,3.11,7.98,5.62,12.79,6.72,10.65,2.43,27.33-3.61,33.24-29.54,5.11-22.41-5.27-35.01-23.89-39.26-1.67-.38-2.89-.56-4.32-.69-1.13-.16-2.19-.21-3.21-.44-.83-.19-1.54-.94-2.16-2.05-.52-.7-.97-1.29-1.53-1.42-.65-.15-1.44.35-2.33.83-.8.5-1.66.89-2.68.65-.74-.17-1.62-.57-2.72-.91-.81-.28-1.7-.68-2.72-.91-1.39-.32-3.07-.21-5.22.66,3.37,9.15,3.51,14.93.68,27.34Z" fill="#442052"/>
    <path d="M417.98,89.53c1.88-8.24,3.19-13.99,9.02-12.66,6.76,1.54,7.56,8.74,4.85,20.59-3.63,15.93-7.38,22.97-14.42,21.36-5.84-1.33-4.65-6.52-2.63-15.41l3.17-13.89ZM401.85,100.47c-.82,3.61-3.44,12.95-9.19,12.52-1.5,6.58,2.79,9.11,4.92,9.6s4.24.19,6.43-.87c2.71,2.66,6.62,4.72,12.55,6.08,16.76,3.82,26.06-7.89,30.43-27.07,3.82-16.76-2.45-29.01-18.56-32.68-1.3-.3-2.89-.56-4.42-.71-1.15-.07-2.19-.21-3.03-.4-.93-.21-1.75-.89-2.32-1.8-.52-.7-.91-1.57-1.46-1.7-.65-.15-1.51.63-2.08.99-1.02.64-2.01.71-2.66.56-.83-.19-1.67-.38-2.46-.76-.7-.35-1.68-.77-2.69-1s-2.36-.34-3.23.04c2.95,7.59,2.8,15.06.92,23.3l-3.17,13.89Z" fill="#d83f31"/>
    <path d="M405.88,90.47c2.7-3.28,5.18-6.91,7.55-10.46.5,4.21,1.1,8.43,2.18,12.68l1.9-8.34c2.03-8.89,5.51-10.05,9.86-9.05s10.87,4.04,6.39,21.53c2.46-3.53,4.62-7.03,6.62-10.67,2.3,4.03,3.65,7.94,5.14,13.35,1.95-11.54.62-25.78-17.54-29.92-1.76-.4-2.96-.68-4.21-.77-1.15-.07-2.33-.04-3.16-.23-.93-.21-2.08-1.16-2.65-2.07-.38-.48-.67-1.32-1.14-1.43s-1.19.51-2.12,1.17c-.8.5-1.9.64-2.73.45-.93-.21-1.53-.54-2.51-.96-.86-.49-1.95-.84-3.01-.88,2.17,5.85,2.09,13.92.17,22.35l-.74,3.24ZM427.34,120.7c-1.02-.23-1.95.43-2.18,1.45s.32,2.02,1.34,2.25,2.04-.41,2.27-1.43-.41-2.04-1.43-2.27ZM434.67,112.04c-1.67-.38-3.05.57-3.41,2.15s.48,3.03,2.15,3.41c1.57.36,3.05-.57,3.41-2.15s-.57-3.05-2.15-3.41ZM405.41,114.73c-1.02-.23-2.06.5-2.3,1.52s.41,2.04,1.43,2.27,2.04-.41,2.27-1.43-.39-2.14-1.41-2.37ZM407.44,105.83c-1.57-.36-3.05.57-3.41,2.15s.57,3.05,2.15,3.41,3.05-.57,3.41-2.15-.57-3.05-2.15-3.41ZM441.97,90.71l-.19-.43-2.69-.61-.27.33,3.15.72ZM438.85,101.4c-2.04-.46-4.08.82-4.53,2.77s.82,4.08,2.86,4.55,4.08-.82,4.55-2.86-.84-3.99-2.88-4.46ZM409.95,94.81c-2.04-.46-4.08.82-4.53,2.77s.82,4.08,2.86,4.55,4.08-.82,4.55-2.86-.84-3.99-2.88-4.46ZM444.76,99.43l-.19-.43-9.91-2.26-.36.31,10.47,2.39ZM442.72,92.54l-.26-.55-4.17-.95-.29.42,4.72,1.08ZM415.03,92.66l-.29-.45-8.06-1.84-.27.33,8.61,1.96ZM443.29,94.33l-.17-.53-5.74-1.31-.2.44,6.11,1.39ZM443.88,96.02l-.17-.53-7.13-1.63-.29.42,7.59,1.73ZM444.35,97.78l-.17-.53-8.52-1.94-.29.42,8.98,2.05ZM413.54,84.23l-.19-.43-1.76-.4-.18.35,2.13.49ZM413.64,85.91l-.08-.51-2.87-.65-.2.44,3.15.72ZM414.53,90.98l-.08-.51-6.67-1.52-.38.4,7.13,1.63ZM414.24,89.26l-.17-.53-5.19-1.18-.29.42,5.65,1.29ZM413.93,87.63l-.08-.51-4.08-.93-.29.42,4.45,1.01Z" fill="#fce09a"/>
  </g>
  <g>
    <path d="M476.38,135.51c-1.05-.43-1.58-1.16-1.29-1.87.22-.53.73-.52,1.43-.23,2.64,1.08,5.91,1.61,9.19-1.36-1.46,3.3-6.08,4.79-9.33,3.45ZM463.16,105.21l-4.63,11.25c-1.92,4.66-5.57,10.04-10.22,8.12-4.42,11.23.42,17.95,7.01,20.66,1.32.54,3.77.83,6.19.18,2.58,2.71,4.89,5.09,9.02,6.79,3.87,1.59,6.78,1.76,9.25,1.75,2.98,0,5.34.25,7.45,1.11,1.67.69,3.42,1.92,4.06,3.11.6,1.28.84,2.2,1.19,2.34.62.25,1.16-1.06,1.5-2.16.58-1.92,1.11-5.19.42-7.02,2.18-1.05,3.75-2.87,4.65-5.07,3.14-7.64-2.73-16.33-9.97-19.72-.1-.76-.36-1.38-.84-2.2,1.72-.94,3.31-2.54,3.96-4.12,1.27-3.08-.37-10.84-6.25-13.77,1.37-3.34,1.95-4.23,3.18-3.73,1.32.54,2.07,1.47,2.38,3.45,1.08,8.36,5.01,13.05,10.95,18.58.51.52,1.23.51,1.41.07.25-.62.33-1.3.28-1.94-.03-.94.04-1.83.36-2.63.29-.7,1.25-1.54,2.17-2.29,1.25-1.03,2.26-2.25,2.8-3.57.51-1.23.58-3.15.61-4.48.05-1.11.14-2.1.4-2.71.29-.7.86-1.6,1.63-2.21,1.1-.68,2.33-1.92,2.76-2.97.29-.7.35-1.09.09-1.71l-2.9-6.43c-.24-.41-.4-.78-.84-.96-.53-.22-1.16-.17-1.8-.12-2.81.08-4.99-.61-7.8-1.77-2.28-.94-4.62-2.52-5.26-3.7-.54-.94-.97-1.63-1.5-1.85s-1.36.06-2.4.35c-1.17.34-2.88.25-4.81-.54s-3.16-1.81-3.64-3.14c-.43-.69-.92-1.51-1.62-1.8-.62-.25-1.36.06-2.23.42-.74.31-2,.62-2.7.33s-1.51-.83-2.18-1.2c-.68-.59-1.47-.91-2.35-1.28-1.49-.61-3.75-1.13-6.06-.75,1.65,11.98-.17,18.63-3.74,27.33Z" fill="#442052"/>
    <path d="M460.53,115.84c-1.41,3.43-5.54,12.21-11.13,10.83-2.57,6.24,1.25,9.45,3.27,10.28s4.28.84,6.24.31c1.6,2.1,6,5.65,10.56,7.53,3.69,1.52,6.37,2,9.1,2.1,2.65.06,4.74.21,6.33.86,1.49.61,3.51,1.96,5.37,4.68,1.63-3.95.98-6.38.22-8.03,1.63-.97,3.38-2.72,4.17-4.65,2.49-6.06-2.34-9.8-7-11.71.28,1.56.2,3.27-.34,4.58-1.7,4.13-7.43,6.08-11.65,4.35-8.08-3.33-5.01-10.79-3.46-14.57.9-2.2,2.55-2.45,4.3-1.72,1.49.61,2.13,1.8,1.63,3.03-.43,1.05-1.12,2.21-1.95,3,5.11,2.82,7.99-.2,9.01-2.66.87-2.11.62-3.75.07-4.9,1.35-.78,2.72-1.86,3.55-3.88.87-2.11.76-5.85-4.74-7.7.04,1.15-.29,2.45-.72,3.5-.51,1.23-1.83,1.71-3.33,1.1-1.93-.8-1.88-4.16-.69-7.06,2.46-5.97,4.74-11.51,10.09-9.3,2.55,1.05,3.89,4.27,3.79,8.03-.1,3.25.55,10.91,7.04,14.1-.12-2.21-.07-3.32.29-4.2s1.36-1.8,2.2-2.59c1.08-.89,2.25-2.47,3.01-4.31.43-1.05.52-2.76.41-3.74-.15-.88-.05-1.87.13-2.31.18-.44.63-.77,1.19-1.15.98-.63,1.96-1.76,2.43-2.9.43-1.05.6-2.22.34-2.33-.53-.22-1.59-.14-2.52-.11-1.36.06-3.44-.39-5.81-1.36-2.9-1.19-5.35-2.72-6.08-3.94-.59-1.06-.94-1.72-1.46-1.94-.62-.25-1.61.16-2.83.38-1.26.31-2.81.08-4.48-.61-1.93-.8-3.49-2.26-3.94-3.16-.45-.9-.8-1.56-1.32-1.78-.61-.25-1.59.37-2.21.63-.99.41-2.1.37-2.98,0-.79-.33-1.32-.54-2.04-1.04-.63-.46-1.44-1-2.32-1.36-1.05-.43-2.09-.66-3.36-.56,1.1,8.06.06,15.84-2.94,23.14l-5.42,13.18Z" fill="#d83f31"/>
    <path d="M490.9,135.43c-.97-.4-2.08.07-2.48,1.03s.07,2.08,1.03,2.48,2.08-.07,2.48-1.03-.07-2.08-1.03-2.48ZM461.7,130.5c-.97-.4-2.12.16-2.52,1.12s.07,2.08,1.03,2.48,2.08-.07,2.48-1.03-.03-2.17-1-2.57ZM465.17,122.06c-1.49-.61-3.11.06-3.72,1.55-.61,1.49.06,3.11,1.55,3.72,1.49.61,3.11-.06,3.72-1.55.61-1.49-.06-3.11-1.55-3.72ZM484.29,140.51c-.97-.4-2.12.16-2.52,1.12-.4.97.07,2.08,1.03,2.48.97.4,2.08-.07,2.48-1.03.4-.97-.03-2.17-1-2.57ZM469.47,111.61c-1.93-.8-4.17.14-4.92,1.98-.8,1.93.14,4.17,2.07,4.96s4.17-.14,4.96-2.07c.76-1.85-.17-4.08-2.1-4.87ZM476.58,111.04l-.12-.46-9.4-3.87-.32.28,9.84,4.05ZM475.93,109.13l-.08-.55-7.47-3.07-.36.37,7.91,3.25ZM475.1,101.91l-.12-.46-1.76-.72-.32.28,2.2.9ZM475.19,103.69l-.08-.55-2.99-1.23-.36.37,3.43,1.41ZM475.58,107.24l-.08-.55-5.8-2.39-.27.4,6.15,2.53ZM475.28,105.47l-.08-.55-4.39-1.81-.27.4,4.74,1.95ZM466.16,106.65c2.83-2.12,6.51-5.85,9.09-9.1.07,5.06.43,10.45,2.16,13.73-.71-3.27-.2-5.01,1.61-9.41,3.33-8.08,6.85-9.41,11.07-7.67,3.6,1.48,4.63,4.99,4.64,9.2.14,4.17.85,8.16,3.84,11.65.08-.69.28-1.43.6-2.22.36-.88,1.47-2.07,2.55-2.96,1.3-.9,1.89-2.1,2.54-3.68.4-.97.46-1.87.42-3.01,0-1.24-.17-2.33.12-3.03.33-.79,1.05-1.31,1.75-1.75.78-.4,1.3-.9,1.51-1.43.18-.44.36-.88.35-1.09-1.96.02-3.79-.02-7.13-1.39-2.81-1.16-5.3-2.59-6.41-4.39-.54-.94-.78-1.35-1.22-1.53-.35-.14-1.24,0-2.44.43-.92.24-2.67.24-4.78-.63-1.93-.8-3.09-1.99-3.85-3.13-.57-.85-.97-1.63-1.41-1.81-.44-.18-1.29.39-2.09.58-.96.33-1.72.42-2.68.03-.88-.36-1.63-.77-2.56-1.26-.77-.63-1.61-1.07-2.9-1.19.68,4.59.19,13.02-2.77,20.23l-1.99,4.83Z" fill="#fce09a"/>
  </g>
  <g>
    <path d="M544.2,132.78c1.37.85,2.35,1.8,1.69,2.85-1.36,2.18-5.05,3.79-6.66,2.78-.81-.5-1.27-1.02-.87-1.66,2.36-3.79,4.06-5.08,5.84-3.97ZM524.98,165.91l-.67-3.78c.99-3.75,3.24-8.06,5.5-11.69,1.58,3.56-.7,9.19-2.28,12.8-.98.85-1.95,1.69-2.56,2.66ZM519.97,125.49l-8.8,14.1c-2.41,3.87-6.14,8.94-11.27,6.4-6.31,10.29-2.49,17.82,3.31,21.44,2.34,1.46,4.31,1.35,6.07,1.21.47,1.75,2.07,3.87,4,5.07,1.21.75,2.75,1.16,4.49,1.24,1.79,0,3.76-.46,5.65-1.51,0,4.48,2.03,7.87,5.01,9.73,1.69,1.06,3.89,1.31,5.59.91.72,1.9,1.58,3.56,3.28,4.62,3.3,2.06,7.47,1.3,11.09-4.5l-1.18-6.9c-.54-2.91-.58-6.07.13-8.65,1.06-4.04,1.1-8.05.04-10.84,6.41.31,11.3-2.13,14.57-7.37,7.69-12.33-.1-26.94-10.42-33.38-2.66-1.66-4.4-2.64-5.92-3.25-.94-.47-1.79-.89-2.52-1.35-.81-.5-1.16-1.73-1.4-2.78-.23-.7-.46-1.41-.95-1.71-.56-.35-1.38-.3-2.22-.04-.92.21-2.21.3-3.01-.2-.73-.45-1.16-.83-1.83-1.37-.54-.56-1.25-1.23-2.06-1.73-1.37-.85-3.61-1.58-5.45-1.5-.17,10.87-3.44,17.9-6.21,22.33Z" fill="#442052"/>
    <path d="M531.7,136.84c-.56-.35-.64-.96-.38-1.36l2.26-3.63c4.07-6.53,6.09-9.75,11.08-6.63,4.11,2.56,5.62,6.42,3.21,10.29-3.02,4.84-8.27,6.26-13.91,2.74l-2.26-1.41ZM525.94,144.11c8.46,5.28,6.83,11.31,2.8,20.45-3.9,2.83-5.41,7.6-1.46,10.06,1.93,1.21,3.84,1.39,5.46.94.48,2.09,1.96,3.68,3.41,4.59,2.82,1.76,6.13,2.37,9.04-3.54-2.58-1.61-4.32-5.27-1.34-12.03,2.12-4.84,2.57-10.94-.17-15.34,5.87,1.54,11.23-.05,15.45-6.82,5.23-8.38,1.15-17.99-8.37-23.92-2.18-1.36-3.68-2.18-5.39-3.03-1.31-.59-2.33-1.12-3.05-1.57-.81-.5-1.39-1.54-1.6-2.46-.26-.84-.34-1.78-.83-2.08-.56-.35-1.37.04-2.29.25-1.03.03-2.13.01-2.94-.49-.73-.45-1.21-.75-1.83-1.37-.54-.56-1.25-1.23-2.06-1.73-.97-.6-1.95-1-3.22-1.12-.04,8.15-2.59,15.63-6.76,22.32l-7.54,12.09c-1.96,3.14-7.49,11.11-12.78,8.82-3.57,5.72-.35,9.53,1.51,10.68s3.92,1.44,6.1,1.35c.8,1.95,2.12,3.78,4.05,4.99s6.85,2.48,10.42-3.24c-4.62-3.89.02-12.42,1.98-15.56l1.41-2.26Z" fill="#d83f31"/>
    <path d="M536.61,169.36c-.89-.55-2.03-.15-2.59.74s-.36,2.01.53,2.57c.97.6,2.06.28,2.62-.61s.41-2.09-.56-2.7ZM538.7,159.91c-1.45-.91-3.07-.46-3.93.91s-.54,3.02.91,3.93c1.37.85,3.07.46,3.93-.91s.46-3.07-.91-3.93ZM511.94,153.97c-.89-.55-2.11-.2-2.67.69s-.28,2.06.61,2.62,2.06.28,2.62-.61.33-2.15-.56-2.7ZM516.77,146.23c-1.37-.85-3.07-.46-3.93.91s-.46,3.07.91,3.93,3.07.46,3.93-.91.46-3.07-.91-3.93ZM539.33,147.76c-1.37-.85-3.12-.38-3.93.91-.91,1.45-.51,3.15.86,4.01s3.07.46,3.98-.99c.8-1.29.46-3.07-.91-3.93ZM522.76,136.64c-1.77-1.11-4.13-.56-5.19,1.13s-.56,4.13,1.21,5.24,4.13.56,5.24-1.21.51-4.05-1.26-5.15ZM552.66,142.19l.12-.37-1.77-1.11-.52.12,2.18,1.36ZM551.03,144.99l.25-.4-3.87-2.41-.49.25,4.11,2.56ZM549.9,146.07l.33-.35-4.67-2.92-.49.25,4.84,3.02ZM551.89,143.62l.25-.4-2.9-1.81-.49.25,3.14,1.96ZM547.12,148.03l.44-.17-6.37-3.97-.6.07,6.53,4.07ZM548.65,147.19l.33-.35-5.4-3.37-.57.2,5.64,3.52ZM527.05,135.51l-.04-.47-6.04-3.77-.36.22,6.45,4.02ZM527.21,133.81v-.55s-4.75-2.97-4.75-2.97l-.41.3,5.16,3.22ZM527.5,132.09v-.55s-3.7-2.31-3.7-2.31l-.33.35,4.03,2.51ZM528.8,127.31l.04-.42-.97-.6-.36.22,1.29.8ZM528.27,128.88l.09-.5-1.77-1.11-.49.25,2.18,1.36ZM527.74,130.45l.17-.45-2.74-1.71-.41.3,2.98,1.86ZM535.1,126.2c3.02-4.84,7.28-4.31,10.42-2.34,4.03,2.51,6.99,7.28,3.72,12.51-2.97,4.76-8.78,7.96-16.59,3.08l-2.18-1.36c-1.21-.75-1.36-2.31-.41-3.84l5.03-8.06ZM520.17,131.1c3.94-2.36,8.03-5.51,10.32-7.56-2.83,7.41-4.01,13.96-1.75,15.37l2.9,1.81c4.19,2.62,7.75,3.38,11.87,2.15,3.95-1.12,8.13-2.99,10.91-4.39-1.22,4.28-3.06,7.95-6.69,9.82,3.53.08,7.46-2.62,10.03-6.73,5.43-8.7-.76-17.27-7.21-21.29-2.82-1.76-4.89-2.94-6.65-3.7-.99-.39-1.76-.76-2.49-1.22-.81-.5-1.46-1.25-1.76-2.56-.21-.92-.26-1.73-.67-1.98s-1.29.09-2.07.27c-.97.29-2.02.19-2.83-.31-.89-.55-1.43-1.12-2.19-1.7-.74-.8-1.73-1.53-3.04-2.12.5,5.13-1.91,13.48-6.92,21.32l-1.76,2.82Z" fill="#fce09a"/>
  </g>
  <g>
    <path d="M577.29,194.2l2.11,1.92c.84.77.97,2.04-.24,3.37-1.53,1.69-2.97,1.15-4.59-.32-1.27-1.15-1.74-2.74-.79-3.8.77-.84,2.38-2.2,3.51-1.18ZM609.89,162.6c-.77-.7-.83-1.91-.88-2.98-.04-.81-.22-1.74-.64-2.12s-1.57-.53-2.38-.49c-1.07.05-2.08.17-2.78-.47-.63-.58-.99-1.03-1.49-1.74-.5-.58-.94-1.37-1.71-2.07-.7-.64-1.53-1.14-2.71-1.82-.97,2.2-2.42,4.22-3.77,5.69-2.05,2.25-22.33,16.93-31.31,22-4.58,2.64-7.81,2.66-11.6-.79-7.91,9.12-6.14,16.63-2.83,19.64,1.34,1.21,2.72,1.96,4.08,2.3,1.36.34,2.77.34,3.83.02-.28,2.57.38,5.23,2.63,7.27,2.39,2.17,7.79,2.59,11.69-1.56-1.27,5.91-.59,11.66,2.57,14.54,1.41,1.28,2.71,1.82,4,2.1,1.22.21,2.49.08,3.63-.04-.43,2.31.31,5.16,2.49,7.15,3.3,3,8.79,2.47,13.82-2.07l-.8-8.3c-.61-5.82,4.42-21.66,17.79-40.32,1.14-1.53,2.43-2.67,3.46-3.66l-.7-6.15c-.11-1-.91-2.11-1.82-2.94-.77-.7-1.74-1.2-2.78-1.89-.69-.37-1.25-.75-1.81-1.26Z" fill="#442052"/>
    <path d="M583.24,180.6c-.42-.38-.65-.84.12-1.69,2.56-2.81,8.03-6.43,11.43-7.2-.09,3.77-3.32,9.44-5.88,12.25-.77.84-1.67.28-2.23-.23l-3.44-3.13ZM583.41,192.7c.49.45.45,1.05.42,1.66-.15,1.02-2.31,5.22-3.97,7.05-1.28,1.41-3.55,1.78-5.66-.14-4.54,4.99-2.05,9.31-.43,10.78s3.67,2.18,5.76,2.42c.5,2.13,1.41,4.1,3.02,5.57s6.15,3.54,10.69-1.45c-1.83-1.66-2.36-5.87.19-13.06,2.73-7.66,12.75-28.98,17.8-34.54.89-.98,1.73-1.76,2.9-2.76-.23-.59-.52-1.12-1.16-1.69s-1.6-1.2-2.29-1.57-1.18-.82-1.74-1.33c-.77-.7-1.23-1.89-1.34-2.76.04-.61.12-1.82-.31-2.2-.49-.45-1.62-.19-2.29-.16-.81.04-1.82-.12-2.52-.75-.56-.51-1.34-1.21-1.84-1.93-.43-.65-.8-1.24-1.36-1.75-.42-.38-.84-.63-1.32-.81-.87,1.52-2.02,2.79-3.75,4.68-1.92,2.11-22.7,17.62-32.55,22.66-4.66,2.44-8.47,1.54-10.58-.37-4.22,4.64-2.82,8.61-1.55,9.76,1.62,1.47,3.67,2.18,5.69,2.35.5,2.13,1.41,4.1,3.02,5.57s6.29,3.67,10.83-1.32c-1.9-1.73-2.02-4.28-.74-5.68,1.85-2.04,4.58-4.05,6.29-4.94.59-.36,1.13-.26,1.48.06l7.31,6.65Z" fill="#d83f31"/>
    <path d="M584.45,209.06c-.77-.7-1.97-.51-2.68.26s-.72,1.92.06,2.62c.84.77,1.98.65,2.68-.13s.78-1.99-.06-2.75ZM588.55,200.46c-1.19-1.09-2.94-1-4.03.19-1.09,1.19-1,2.94.19,4.03,1.27,1.15,2.94,1,4.03-.19,1.09-1.19,1.07-2.88-.19-4.03ZM577.61,176.77c-1.19-1.09-3-.93-4.03.19-1.15,1.27-1,2.94.19,4.03,1.27,1.15,2.88,1.07,4.03-.19,1.02-1.12,1.07-2.88-.19-4.03ZM560.14,186.95c-.77-.7-1.97-.51-2.68.26s-.72,1.92.06,2.62,1.98.65,2.68-.13.71-2.05-.06-2.75ZM568.52,182.24c-1.19-1.09-2.94-1-4.03.19-1.09,1.19-1,2.94.19,4.03,1.19,1.09,2.94,1,4.03-.19,1.09-1.19,1-2.94-.19-4.03ZM593.7,189.86c-1.55-1.41-4.03-1.36-5.37.12-1.41,1.55-1.22,4.03.32,5.43s3.96,1.29,5.37-.25c1.34-1.48,1.23-3.89-.32-5.3ZM588.1,169.75l.26-.28-.63-.58-.4.15.77.7ZM587.09,171.01l.32-.35-1.12-1.02-.46.22,1.27,1.15ZM599.28,179.91l.04-.47-1.19-1.09-.26.28,1.41,1.28ZM598.97,181.81l.04-.61-2.04-1.85-.32.35,2.32,2.11ZM598.58,183.64l-.03-.67-2.67-2.43-.39.29,3.09,2.81ZM598.4,185.53l.11-.54-3.8-3.45-.39.29,4.08,3.71ZM586.07,172.27l.32-.35-1.76-1.6-.46.22,1.9,1.73ZM585.12,173.45l.32-.35-2.39-2.17-.46.22,2.53,2.3ZM583.22,175.97l.26-.28-4.01-3.64-.47.09,4.22,3.84ZM597.98,189.39l.04-.47-5.83-5.31-.26.28,6.04,5.5ZM584.17,174.78l.32-.35-3.09-2.81-.6.1,3.37,3.07ZM598.23,187.56l-.03-.67-4.71-4.28-.39.29,5.13,4.67ZM611.76,167.89c-.36-.59-1.26-1.02-2.03-1.59-.83-.5-1.39-.88-1.95-1.39-.77-.7-1.37-2.02-1.43-3.23.1-.81.13-1.42-.22-1.74-.35-.32-.81-.1-1.81.02-1.07.19-2.16-.17-2.93-.87-.91-.83-1.42-1.55-1.92-2.13-.43-.52-.72-1.04-1.08-1.5-.75,1.25-1.83,2.44-2.92,3.64-1.98,2.18-10.54,8.91-16.82,12.57,4.52-1.16,8.47-2.96,12.49-4.69-2.61,3.02-5.02,6.22-7.36,9.36,3.94-3.35,8.72-6.2,12.42-6.17.39,5.36-2.48,10.07-4.76,13.14,3.11-2.43,6.15-5.07,9.04-7.83-1,4.49-1.77,10.98-1.88,14.35,2.5-6.84,8.36-16.67,11.04-19.62l2.11-2.32Z" fill="#fce09a"/>
  </g>
  <g>
    <path d="M620.28,212.73l-9.37,7.75c-3.51,2.91-9.91,6.35-13.3,2.25-9.03,7.72-6.45,17.54-3.06,21.64,1.45,1.76,3.46,2.69,5.44,3.15-.08,2.29.74,4.32,2.07,5.93,2.91,3.51,8.11,3.4,12.8-.48l.7-4.52c.62-3.72,4.32-7.89,7.84-10.8l11.42-9.45c5.34-4.42,13.64-7.96,19.81-8.99l.8-5.59c.37-1.79-1.03-4.08-2.06-5.32-.67-.81-1.28-1.4-1.92-1.87-.62-.6-1.13-.92-1.67-1.58-.61-.73-.57-1.88-.54-2.88,0-.74.03-1.75-.33-2.19-.36-.44-1.23-.59-2.16-.68-1.07-.1-2.05-.4-2.66-1.13-.55-.66-.76-1.22-1.17-1.87-.4-.78-.93-1.57-1.54-2.3-1.03-1.24-3.07-2.52-4.96-3.17-3.32,9.4-7.78,15.19-16.12,22.09Z" fill="#442052"/>
    <path d="M632.43,222.05c6.08-5.03,13.22-8.47,21.28-9.6-.29-1.24-.81-2.17-1.53-3.05-.67-.81-1.36-1.34-1.99-1.81-.69-.54-1.05-.98-1.6-1.64-.61-.73-.95-2.05-.88-2.85.06-.67.37-1.79,0-2.23-.42-.51-1.31-.39-2.25-.48-.86-.15-1.79-.37-2.39-1.1s-1.15-1.39-1.55-2.17c-.34-.71-.8-1.56-1.4-2.29-.73-.88-1.54-1.56-2.71-2.08-2.62,7.71-7.4,14.01-13.47,19.04l-10.98,9.08c-2.85,2.36-10.62,8.17-14.92,4.33-5.2,4.3-3.34,8.93-1.95,10.61,1.39,1.68,3.38,2.75,5.43,3.28.08,2.03.69,4.11,2.08,5.8,1.39,1.68,5.65,4.45,10.85.15-2.97-4.94,4.13-11.55,6.98-13.92l10.98-9.08Z" fill="#d83f31"/>
    <path d="M607.11,234.36c-.67-.81-1.94-.86-2.75-.19-.81.67-.92,1.87-.25,2.68.67.81,1.87.92,2.68.25.81-.67.99-1.93.33-2.74ZM614.13,228.55c-1.03-1.24-2.77-1.41-4.01-.38s-1.41,2.77-.38,4.01,2.77,1.41,4.01.38,1.41-2.77.38-4.01ZM622.84,221.34c-1.33-1.61-3.74-1.84-5.28-.57-1.61,1.33-1.84,3.74-.51,5.35s3.74,1.84,5.35.51c1.54-1.27,1.76-3.68.43-5.29ZM628.12,222.65l.11-.46-5.09-6.15-.41.1,5.39,6.51ZM632.07,215.06l.17-.39-1.03-1.24-.41.1,1.27,1.54ZM631.19,216.53l.31-.38-1.88-2.27-.49.16,2.06,2.49ZM628.75,221.02l.24-.45-4.24-5.12-.49.16,4.48,5.42ZM629.57,219.48l.24-.45-3.39-4.1-.43.23,3.57,4.32ZM630.37,218.07l.24-.45-2.6-3.15-.49.16,2.85,3.44ZM622.26,215.42c3.14-.38,8.16-2.06,12.3-3.76-2.24,3.7-4.77,8.39-5.94,11.45l2.56-2.12c6-4.97,12.97-8.76,20.36-9.82-.45-.99-1.51-1.83-2.27-2.44-.69-.54-1.52-1.09-2.06-1.75-.73-.88-.94-2.18-.84-3.25-.01-.61.27-1.46-.03-1.82-.24-.29-1.12-.31-1.93-.25-1.14-.04-1.98-.46-2.71-1.34-.67-.81-1-1.51-1.52-2.44-.46-.85-1.04-1.85-1.84-2.67-1.65,6.05-6.78,12.52-13.52,18.09l-2.56,2.12Z" fill="#fce09a"/>
  </g>
</svg>