<?xml version="1.0" encoding="UTF-8"?>
<svg id="Livello_1" data-name="Livello 1" xmlns="http://www.w3.org/2000/svg" width="24.04cm" height="11cm" viewBox="0 0 681.31 311.81">
  <g>
    <path d="M82.14,101.77l1.69,2.3c.68.92.55,2.19-.91,3.26-1.84,1.35-3.14.54-4.43-1.22-1.01-1.38-1.17-3.03-.02-3.88.92-.68,2.77-1.68,3.67-.46ZM120.34,77.23c-.62-.84-.44-2.04-.27-3.1.12-.8.13-1.75-.21-2.21s-1.44-.83-2.23-.95c-1.06-.16-2.07-.25-2.63-1.01-.51-.69-.77-1.2-1.12-2.01-.37-.67-.65-1.53-1.27-2.37-.56-.77-1.28-1.42-2.3-2.32-1.39,1.96-3.21,3.66-4.82,4.84-2.45,1.8-25.23,12.19-35.03,15.38-5.01,1.68-8.18,1.06-11.22-3.07-9.55,7.38-9.3,15.09-6.66,18.69,1.07,1.45,2.28,2.45,3.54,3.05s2.65.88,3.75.78c-.78,2.46-.66,5.2,1.14,7.65,1.91,2.6,7.12,4.08,11.77.78-2.41,5.54-2.88,11.32-.35,14.76,1.13,1.53,2.3,2.32,3.51,2.85,1.15.45,2.43.57,3.57.68-.88,2.18-.71,5.12,1.03,7.5,2.64,3.6,8.13,4.16,13.96.7l.86-8.3c.55-5.83,8.61-20.36,25.4-36.01,1.42-1.28,2.91-2.14,4.11-2.91l.53-6.17c.09-1.01-.47-2.25-1.2-3.24-.62-.84-1.47-1.52-2.35-2.4-.6-.5-1.07-.98-1.52-1.59Z" fill="#6d3e91"/>
    <path d="M90.66,89.62c-.34-.46-.47-.95.45-1.63,3.06-2.25,9.15-4.72,12.62-4.8-.83,3.68-5.12,8.6-8.18,10.85-.92.68-1.69-.05-2.14-.67l-2.76-3.75ZM88.44,101.51c.39.54.24,1.12.08,1.71-.35.97-3.29,4.66-5.28,6.12-1.53,1.13-3.83,1.05-5.52-1.25-5.43,4-3.85,8.72-2.55,10.48s3.16,2.86,5.17,3.51c.07,2.19.57,4.3,1.86,6.06s5.33,4.69,10.77.69c-1.46-1.99-1.16-6.22,2.76-12.76,4.19-6.97,18.22-25.9,24.27-30.34,1.07-.79,2.05-1.39,3.38-2.13-.11-.63-.29-1.2-.8-1.89s-1.33-1.49-1.94-1.99-1-1.04-1.45-1.65c-.62-.84-.84-2.1-.77-2.97.16-.59.47-1.76.14-2.22-.39-.54-1.55-.51-2.22-.61-.8-.12-1.76-.47-2.33-1.24-.45-.61-1.07-1.45-1.42-2.26-.3-.72-.54-1.37-.99-1.99-.34-.46-.7-.79-1.13-1.06-1.15,1.32-2.53,2.33-4.6,3.85-2.3,1.69-25.73,12.79-36.38,15.79-5.05,1.47-8.61-.16-10.29-2.45-5.05,3.71-4.46,7.88-3.45,9.26,1.29,1.76,3.16,2.86,5.12,3.43.07,2.19.57,4.3,1.86,6.06s5.45,4.84,10.88.84c-1.52-2.07-1.13-4.59.4-5.72,2.22-1.63,5.29-3.07,7.14-3.6.65-.24,1.16-.03,1.44.36l5.85,7.96Z"/>
    <path d="M86.23,117.76c-.62-.84-1.83-.89-2.68-.27s-1.08,1.74-.46,2.58c.68.92,1.81,1.02,2.66.41s1.16-1.79.48-2.71ZM91.94,110.13c-.96-1.3-2.68-1.56-3.98-.61s-1.56,2.68-.61,3.98c1.01,1.38,2.68,1.56,3.98.61s1.62-2.61.61-3.98ZM85.9,84.75c-.96-1.3-2.76-1.51-3.98-.61-1.38,1.01-1.56,2.68-.61,3.98,1.01,1.38,2.61,1.62,3.98.61,1.22-.9,1.62-2.61.61-3.98ZM66.76,91.27c-.62-.84-1.83-.89-2.68-.27s-1.08,1.74-.46,2.58,1.81,1.02,2.66.41,1.1-1.87.48-2.71ZM75.91,88.32c-.96-1.3-2.68-1.56-3.98-.61s-1.56,2.68-.61,3.98,2.68,1.56,3.98.61,1.56-2.68.61-3.98ZM99.08,100.76c-1.24-1.68-3.68-2.13-5.29-.94s-1.99,3.71-.75,5.39,3.63,2.05,5.31.81,1.97-3.57.73-5.26ZM97.57,79.94l.31-.23-.51-.69-.42.07.62.84ZM96.33,80.97l.38-.28-.9-1.22-.5.13,1.01,1.38ZM106.52,92.11l.14-.45-.96-1.3-.31.23,1.13,1.53ZM105.84,93.91l.16-.59-1.63-2.22-.38.28,1.86,2.53ZM105.1,95.63l.1-.66-2.14-2.91-.44.2,2.48,3.37ZM104.55,97.45l.21-.51-3.04-4.13-.44.2,3.26,4.44ZM95.08,82l.38-.28-1.41-1.91-.5.13,1.52,2.07ZM93.91,82.98l.38-.28-1.91-2.6-.5.13,2.03,2.76ZM91.56,85.07l.31-.23-3.21-4.36h-.47s3.38,4.59,3.38,4.59ZM103.37,101.14l.14-.45-4.67-6.35-.31.23,4.84,6.58ZM92.72,84.09l.38-.28-2.48-3.37-.61-.02,2.7,3.67ZM103.98,99.4l.1-.66-3.77-5.13-.44.2,4.11,5.59ZM121.12,82.78c-.24-.65-1.03-1.24-1.67-1.95-.72-.65-1.19-1.13-1.64-1.74-.62-.84-.95-2.25-.77-3.45.25-.78.41-1.36.13-1.75s-.78-.25-1.78-.34c-1.08-.03-2.08-.59-2.7-1.43-.73-.99-1.08-1.8-1.46-2.46-.32-.59-.5-1.16-.76-1.68-.98,1.07-2.28,2.03-3.58,2.99-2.37,1.74-12.09,6.65-18.97,9,4.66-.24,8.89-1.23,13.17-2.14-3.16,2.44-6.15,5.11-9.06,7.72,4.53-2.5,9.77-4.35,13.39-3.6-.68,5.33-4.42,9.38-7.26,11.94,3.53-1.77,7.03-3.75,10.41-5.89-1.86,4.2-3.9,10.41-4.67,13.69,3.8-6.22,11.48-14.69,14.7-17.06l2.53-1.86Z" fill="#a7ca54"/>
  </g>
  <g>
    <path d="M124.26,124.11l-8.45,8.74c-3.17,3.28-9.14,7.41-12.97,3.72-8.11,8.67-4.46,18.15-.63,21.84,1.64,1.58,3.73,2.29,5.75,2.52.17,2.28,1.21,4.21,2.72,5.66,3.28,3.17,8.44,2.48,12.66-1.9l.19-4.57c.2-3.77,3.42-8.32,6.59-11.6l10.3-10.66c4.82-4.99,12.67-9.42,18.69-11.14l.17-5.65c.17-1.82-1.48-3.94-2.64-5.06-.75-.73-1.43-1.25-2.11-1.64-.68-.53-1.22-.79-1.84-1.38-.68-.66-.77-1.8-.85-2.81-.08-.74-.16-1.74-.57-2.14s-1.28-.45-2.22-.43c-1.07.02-2.09-.17-2.77-.83-.61-.59-.89-1.13-1.37-1.72-.48-.73-1.1-1.46-1.78-2.12-1.16-1.12-3.33-2.16-5.28-2.6-2.25,9.71-6.04,15.96-13.57,23.75Z" fill="#6d3e91"/>
    <path d="M137.36,132.01c5.48-5.67,12.19-9.88,20.08-11.9-.42-1.2-1.04-2.06-1.86-2.86-.75-.73-1.5-1.18-2.18-1.58-.75-.46-1.16-.85-1.77-1.45-.68-.66-1.18-1.93-1.19-2.73-.01-.67.17-1.82-.24-2.21-.48-.46-1.35-.25-2.29-.23-.87-.05-1.82-.17-2.5-.83s-1.3-1.25-1.78-1.98c-.41-.66-.97-1.46-1.65-2.12-.82-.79-1.7-1.38-2.92-1.76-1.74,7.96-5.79,14.74-11.27,20.41l-9.9,10.25c-2.57,2.66-9.65,9.3-14.34,5.96-4.69,4.85-2.33,9.24-.76,10.76s3.67,2.36,5.76,2.66c.3,2.01,1.14,4.01,2.71,5.53s6.11,3.79,10.8-1.06c-3.5-4.58,2.82-11.94,5.39-14.6l9.9-10.25Z"/>
    <path d="M113.56,147.07c-.75-.73-2.03-.64-2.75.11s-.71,1.96.05,2.69,1.96.71,2.69-.05.77-2.03.02-2.75ZM119.9,140.51c-1.16-1.12-2.91-1.09-4.03.07s-1.09,2.91.07,4.03,2.91,1.09,4.03-.07,1.09-2.91-.07-4.03ZM127.76,132.38c-1.5-1.45-3.92-1.41-5.31.02s-1.41,3.92.09,5.37,3.92,1.41,5.37-.09,1.34-3.85-.16-5.3ZM133.14,133.09l.06-.47-5.74-5.54-.4.14,6.08,5.87ZM136.23,125.11l.13-.41-1.16-1.12-.4.14,1.43,1.39ZM135.52,126.67l.26-.41-2.12-2.05-.47.21,2.32,2.24ZM133.58,131.4l.19-.47-4.78-4.62-.47.21,5.06,4.88ZM134.23,129.78l.19-.47-3.83-3.7-.4.28,4.03,3.89ZM134.87,128.29l.19-.47-2.94-2.84-.47.21,3.21,3.1ZM126.51,126.55c3.08-.72,7.88-2.96,11.8-5.11-1.81,3.93-3.81,8.87-4.63,12.04l2.31-2.39c5.41-5.6,11.92-10.15,19.14-12.02-.55-.93-1.71-1.65-2.52-2.17-.75-.46-1.63-.91-2.24-1.51-.82-.79-1.18-2.06-1.2-3.14-.08-.6.11-1.48-.23-1.81-.27-.26-1.15-.18-1.95-.03-1.14.09-2.02-.23-2.84-1.03-.75-.73-1.17-1.39-1.79-2.25-.55-.8-1.24-1.73-2.12-2.45-.97,6.2-5.35,13.19-11.42,19.48l-2.31,2.39Z" fill="#a7ca54"/>
  </g>
  <g>
    <path d="M184.36,187.46l7.84-12.58c1.56-2.5,3.55-5.51,5.01-6.95-4.55,10.71,1.64,20.17,5.59,22.63.73.45,1.03.86,1.33.38.35-.56.51-1.36.62-2.08.16-.8.37-1.67.87-2.48.7-1.13,1.81-2.01,2.92-2.88,1.19-.83,2.94-2.2,3.89-3.73.8-1.29,1.31-2.99,1.58-4.5.2-1.22.53-2.47.93-3.11.3-.48,1.13-1.09,1.85-1.53,1.3-.65,2.66-1.93,3.31-2.97.55-.89.82-1.5.67-2.16l-1.89-6.66c-.17-.44-.26-.84-.67-1.09s-1.02-.52-2.16-.67c-2.23-.38-3.96-1.01-4.98-1.54-1.34-.72-2.25-1.96-2.65-3.11-.24-1.05-.59-1.93-1.23-2.33-.56-.35-1.35-.17-2.22-.04-1.42.12-3.01-.2-4.87-1.35s-2.48-2.67-2.77-3.63c-.15-.65-.38-1.36-.87-1.66s-1.22-.2-1.87-.05c-1,.16-2.63.26-4.48-.89-2.26-1.41-3.03-2.68-3.41-3.69-.21-.92-.39-1.7-.96-2.05-.48-.3-1.43-.22-2.9-.02-.87.13-2.17-.12-3.78-1.12-1.45-.9-2.95-2.63-3.76-4.02-.36-.67-.97-1.5-1.53-1.85-1.17.62-2.71,2.01-3.31,2.97-.65,1.05-1,2.51-1,3.4.05.82-.09,1.4-.34,1.8s-.98.85-1.98,1.56c-1.27.78-2.7,2.35-3.65,3.88s-1.12,3.78-1.29,5.13c-.2,1.22-.94,2.77-1.5,3.66s-1.4,1.7-3.8,3.23l2.28,7.47c5.16,3.22,12.17,2.21,18.22-4.98-1.95,3.49-3.93,6.84-6.04,10.23l-4.37,7.01c-2.41,3.87-7.26,9.13-11.77,6.32-5.93,10.41-.61,18.76,3.9,21.58,1.93,1.21,4.13,1.46,6.15,1.26.57,2.14,2.07,3.86,3.84,4.97,3.87,2.41,9.33.66,12.64-4.66l-1.09-4.71c-.76-3.27.21-6.81,3.68-12.37Z" fill="#6d3e91"/>
    <path d="M187.9,169.74c1.06-1.69,8.09-12.98,11.8-10.67,2.5,1.56,1.08,5.27-.88,9.31-2.72,5.8-1.93,11,3.15,14.16.23-1.98.51-3.15,1.06-4.04s1.78-2.14,2.71-2.9c1.14-.75,3-1.94,3.95-3.47s1.79-3.59,1.99-4.81c.11-.72.12-2.17.37-2.57.3-.48.71-.79,1.34-1.07,1.07-.45,2.3-1.36,2.96-2.41.6-.97.68-1.81.69-2.37-.75-.24-1.86-.6-3.05-.67-1.14-.15-2.63-.63-4.08-1.54-1.21-.75-2.44-2.19-2.63-3.32-.32-1.1-.53-1.67-.93-1.92s-.93-.13-1.92.03c-1.52.28-3.87-.62-5.16-1.42-1.45-.9-2.25-1.96-2.62-2.98-.42-.94-.62-2.06-1.02-2.31s-1.5.07-2.53.1c-1.08.11-2.38-.14-3.83-1.04-1.29-.8-3.05-2.46-3.55-4-.29-.97-.41-1.49-.82-1.74-.32-.2-1.01-.18-2.13.01-1.1.32-2.85-.1-4.14-.9-1.45-.9-2.56-1.82-3.23-2.91s-1.35-1.96-1.9-2.53c-.49.25-1.14.75-1.74,1.71-.65,1.05-1,2.51-.94,3.67.02.68.01,1.24-.29,1.72-.25.4-1.63,1-2.22,1.41-1.01.72-2.48,2.37-3.44,3.9s-1.2,3.73-1.37,5.08c-.2,1.22-.86,2.82-1.42,3.71s-1.48,1.65-3.16,2.73c5.24,3.27,10.17,1.64,14.1-3.41,2.85-3.49,5.55-6.39,8.05-4.83,3.71,2.31-3.33,13.6-4.38,15.29l-7.54,12.09c-1.96,3.14-7.57,11.06-12.86,8.77-3.57,5.72-.26,9.58,1.51,10.68s4.08,1.54,6.1,1.34c.8,1.95,2.12,3.78,3.89,4.89s6.77,2.43,10.34-3.29c-4.38-3.74.26-12.27,2.22-15.41l7.54-12.09Z"/>
    <path d="M172.61,181.7c-1.37-.85-3.07-.46-3.93.91s-.46,3.07.91,3.93,3.07.46,3.93-.91.46-3.07-.91-3.93ZM167.78,189.44c-.89-.55-2.11-.2-2.67.69s-.28,2.06.61,2.62,2.06.28,2.62-.61.33-2.15-.56-2.7ZM178.59,172.11c-1.77-1.11-4.13-.56-5.18,1.13s-.56,4.13,1.21,5.23,4.13.56,5.23-1.21.51-4.05-1.26-5.15ZM184.25,171.83l.04-.42-7.34-4.57-.44.17,7.74,4.83ZM185.52,163.33l.12-.37-1.85-1.16-.36.22,2.1,1.31ZM185.31,165.1l.09-.5-2.9-1.81-.49.25,3.31,2.06ZM184.57,170.24v-.55s-6.36-3.97-6.36-3.97l-.33.35,6.69,4.17ZM184.86,168.51v-.55s-5.23-3.27-5.23-3.27l-.33.35,5.56,3.47ZM185.1,166.87v-.55s-4.02-2.51-4.02-2.51l-.41.3,4.43,2.76ZM187.24,167.76c2.61-4.19,8.52-12.94,13.27-9.97,3.06,1.91,2.13,5.92-.39,11.4-1.85,4.22-1.54,8.22.77,10.44.08-.85.35-1.46.7-2.02.55-.89,1.55-1.95,2.92-2.88s2.87-1.91,3.82-3.44,1.65-3,1.88-4.99c.17-1.35.15-2.03.4-2.44.3-.48,1.21-1.04,1.96-1.35,1.07-.45,1.76-1.03,2.01-1.43s.37-.78.44-1.07c-2.03-.15-4.4-.84-5.93-1.8-1.29-.8-2.84-2.44-2.95-3.52-.21-.92-.28-1.52-.69-1.77s-1.11-.02-2.13.01c-1.68.18-3.41-.45-4.95-1.4-1.29-.8-2.31-2.22-2.79-3.42-.29-.97-.44-1.62-.85-1.87s-.98-.05-1.97.11c-1.31.3-2.77-.05-4.38-1.05s-2.95-2.63-3.39-3.9c-.42-.94-.58-1.59-.98-1.84-.32-.2-.98-.05-1.81.21-1.1.32-3.17-.3-4.54-1.15-1.53-.95-3.4-2.45-4.22-4.54-.23.19-.51.46-.76.87s-.46,1.28-.4,2.44c.05.82-.05,1.87-.35,2.36-.25.4-.88.69-2.01,1.43-1.68,1.08-2.7,2.35-3.65,3.88s-1.16,3.3-1.4,4.95-.75,3-1.3,3.89c-.35.56-.78,1.08-1.51,1.52,3.01,1.09,6.82-.34,9.71-3.91,3.89-4.63,7-7.28,10.06-5.37,4.76,2.97-.42,12.16-3.03,16.36l-2.61,4.19c3.59-2.35,6.99-4.93,10.47-7.46-.74,4.24-1.4,8.53-2.01,12.74l2.61-4.19Z" fill="#a7ca54"/>
  </g>
  <g>
    <path d="M234.04,218.78c-2.23-.81-4.26-3.87.92-18.16s9.11-19.84,13.53-23.39c1.41,5.87-.21,12.86-5.07,26.25-3.66,10.09-7.33,16.04-9.38,15.29ZM216.08,189.13l-4.37,12.06c-6.83,18.84.46,29.97,16.44,35.76,10.81,3.92,23.66.79,30.36-17.69,5.86-16.17,11.08-27.51,17.8-31.54l-2.46-6.04c-.81-1.4-1.95-2.42-3.2-2.88-.89-.32-1.76-.44-2.54-.52-.84-.2-1.4-.31-2.21-.6-.89-.32-1.74-1.34-2.14-2.19-.28-.61-.65-1.55-1.19-1.74-.63-.23-1.51.26-2.12.55-.85.4-2.15.64-3.04.31-.8-.29-1.31-.57-2.08-.96-.56-.41-1.39-.91-2.28-1.23-1.52-.55-4.01-.64-5.75.24-1.24-1.87-3.01-3.41-4.26-3.87-.98-.36-2.21-.6-3.34-.81-.84-.2-1.4-.31-2.21-.6-.89-.32-1.74-1.34-2.14-2.19-.28-.61-.65-1.55-1.19-1.74s-1.42.29-2.03.58c-.85.4-2.15.64-3.04.31-.8-.29-1.31-.57-2.08-.96-.65-.44-1.48-.94-2.37-1.26-1.52-.55-3.86-.79-5.82-.39,2,9.82.94,17.21-2.75,27.39Z" fill="#6d3e91"/>
    <path d="M258.42,200.84c2.69-7.41,6.83-14.1,13.48-19.06-.43-.76-1.17-1.23-1.97-1.52s-1.58-.37-2.36-.45-1.76-.44-2.65-.76c-.8-.29-1.32-1.09-1.67-1.82-.28-.61-.59-1.73-1.21-1.95-.71-.26-1.66.41-2.18.72-.82.31-1.73.59-2.53.29-.89-.32-1.88-.68-2.53-1.12s-1.48-.94-2.28-1.23c-.89-.32-1.85-.47-2.85-.22,2.55,8.3.64,15.79-2.04,23.21l-3.37,9.29c-3.79,10.45-8.02,17.1-14.09,14.9-6.79-2.46-5.6-10.21-1.81-20.66l3.37-9.29c2.69-7.41,6.65-14.16,12.85-19.29-.88-.92-1.8-1.46-2.69-1.78s-1.85-.47-2.63-.55c-.87-.11-1.4-.31-2.21-.6-.89-.32-1.86-1.28-2.2-2.01-.28-.61-.59-1.73-1.21-1.95s-1.57.44-2.18.72c-.73.34-2.09.46-2.98.13-.8-.29-1.34-.49-2.08-.96-.65-.44-1.39-.91-2.37-1.26-1.07-.39-2.12-.57-3.3-.39,1.66,7.98.73,15.82-1.95,23.24l-4.85,13.4c-5.89,16.25-.55,24.66,12.76,29.48,11.61,4.21,21,1.15,26.9-15.11l4.85-13.4Z"/>
    <path d="M239.72,223.16c-.98-.36-2.02.28-2.38,1.26s.07,2.05,1.05,2.4,2.08-.16,2.43-1.14-.12-2.17-1.11-2.52ZM246.13,215.79c-1.52-.55-3.1.19-3.65,1.71s.19,3.1,1.71,3.65c1.61.58,3.19-.16,3.74-1.68s-.19-3.1-1.8-3.68ZM220.61,216.24c-.98-.36-2.02.28-2.38,1.26s.07,2.05,1.05,2.4,2.08-.16,2.43-1.14-.12-2.17-1.11-2.52ZM219.61,206.17c-1.52-.55-3.1.19-3.65,1.71s.19,3.1,1.71,3.65c1.61.58,3.1-.19,3.65-1.71s-.1-3.07-1.71-3.65ZM250.7,205.42c-1.52-.55-3.1.19-3.65,1.71s.19,3.1,1.71,3.65c1.61.58,3.1-.19,3.65-1.71s-.1-3.07-1.71-3.65ZM222.92,195.35c-1.96-.71-4.15.31-4.83,2.19s.31,4.15,2.28,4.87,4.15-.31,4.87-2.28-.35-4.07-2.31-4.78ZM255.19,203.61l-.14-.45-6.34-2.3-.31.29,6.79,2.46ZM228.31,193.87l-.14-.45-8.22-2.98-.4.26,8.75,3.17ZM255.09,201.95l.07-.48-5.18-1.88-.34.38,5.45,1.97ZM255.1,200.24l-.02-.51-3.93-1.42-.34.38,4.29,1.55ZM255.08,198.62l.07-.48-2.95-1.07-.25.41,3.13,1.13ZM255.28,196.97l-.11-.54-1.88-.68-.25.41,2.23.81ZM247.9,200.87c3.44-2.8,5.77-5.89,8.31-9.82-.69,4.7-.88,8.27-.54,12.64l1.13-3.13c3.17-8.75,7.41-14.59,12.83-18.69-.98-.36-1.88-.38-2.63-.55-.78-.08-1.44-.22-2.24-.51-.89-.32-2.07-1.26-2.44-2.2-.28-.61-.53-1.61-.89-1.74-.45-.16-1.27.45-1.79.76-.97.46-2.47.42-3.37.09-.71-.26-1.49-.64-2.22-1.11-.77-.38-1.51-.85-2.28-1.23,1.54,6.62.98,12.08-2.74,22.35l-1.13,3.13ZM255.29,195.26l.13-.36-1.16-.42-.22.32,1.25.45ZM227.43,185.16l-.05-.42-1.61-.58-.22.32,1.88.68ZM227.41,186.87l-.11-.54-2.59-.94-.34.38,3.04,1.1ZM228.03,192.15l-.11-.54-6.7-2.43-.43.35,7.23,2.62ZM227.68,190.31l.07-.48-5.27-1.91-.34.38,5.54,2.01ZM227.58,188.65l-.11-.54-3.84-1.39-.34.38,4.29,1.55ZM219.15,190.45c3.56-2.85,6.07-5.88,8.69-9.48-.38,4.41-.03,8.17,1.13,13.04l1.13-3.13c3.04-8.4,6.87-14.79,11.85-19.04-1.55-.46-2.45-.48-3.17-.74-.96-.15-1.62-.28-2.42-.57-.89-.32-1.98-1.22-2.44-2.2-.28-.61-.44-1.57-.89-1.74s-1.18.48-1.79.76c-.97.46-2.39.45-3.28.13-.8-.29-1.4-.61-2.22-1.11-.95-.45-1.92-1.1-3.15-1.34,1.44,6.08.66,14.08-1.87,21.05l-1.59,4.38Z" fill="#a7ca54"/>
  </g>
  <g>
    <path d="M301.76,200.18c3.48.49,5.08,2.07,3.26,14.86-2.66,18.72-6.34,19.63-8.03,19.39-3.39-.48-4.45-7.83-2.93-19.22,1.71-12.71,3.94-15.56,7.7-15.03ZM296.18,252.93c17.68,2.51,29.48-12.31,31.81-28.68,3.5-24.64-10.64-37.21-21.31-39.11-1.4-.29-2.27-.9-3.02-1.68-.65-.86-1.13-1.5-1.79-1.6-.56-.08-1.41.47-2.07,1.05-.75.56-1.87.98-3.37.77-13.01-1.66-23.45,11.06-25.74,27.14-3.42,24.08,9.03,39.76,25.49,42.1Z" fill="#6d3e91"/>
    <path d="M294.05,236.89c-9.22-1.31-7.51-13.35-5.98-24.07,1.3-9.12,2.82-19.85,12.04-18.54s7.79,12.05,6.49,21.17c-1.52,10.72-3.23,22.76-12.55,21.44ZM292.79,245.73c19.09,2.71,27.42-13.37,29.46-27.67,2.18-15.33-4.41-29.7-15.8-31.32-1.5-.21-2.57-.84-3.21-1.7-.48-.64-.94-1.48-1.6-1.57-.56-.08-1.24.59-2.08,1.14s-1.85.89-3.36.67c-11.38-1.62-21.72,10.35-23.9,25.68-2.03,14.3,1.39,32.06,20.49,34.77Z"/>
    <path d="M300.33,192.68c8.37,1.19,10.61,8.42,8.06,20.91,2.54-3.67,4.5-7.33,6.28-11.1,1.79,2.94,4.13,7.4,6.04,12.85.71-9.02-2.56-25.22-14.5-26.91-1.6-.23-2.63-1.05-3.37-1.92-.5-.55-.97-1.29-1.44-1.36-.38-.05-.94.54-1.57.93-1.05.62-2.36,1.1-3.87.89-11.95-1.7-19.69,12.94-21.43,21.81,3.26-4.72,6.85-8.33,9.38-10.66.57,4.11,1.43,8.17,2.94,12.41,1.04-12.71,5.2-19.03,13.48-17.85ZM305.24,237.14c-1.03-.15-2.01.67-2.16,1.71s.58,2,1.61,2.15,2-.58,2.15-1.61-.57-2.1-1.6-2.24ZM310.85,228.72c-1.6-.23-3,.82-3.22,2.42s.82,3,2.42,3.22,3-.82,3.22-2.42-.82-3-2.42-3.22ZM283.8,234.09c-1.03-.15-2.01.67-2.16,1.71s.58,2,1.61,2.15,2-.58,2.15-1.61-.57-2.1-1.6-2.24ZM280.38,224.39c-1.6-.23-3,.82-3.22,2.42s.82,3,2.42,3.22c1.69.24,3-.82,3.22-2.42s-.73-2.98-2.42-3.22ZM314.04,217.76c-2.07-.29-4.1,1.14-4.38,3.12s1.25,4.02,3.32,4.31,4-1.16,4.3-3.23-1.17-3.91-3.24-4.2ZM280.09,212.93c-2.07-.29-4.1,1.14-4.38,3.12s1.25,4.02,3.32,4.31,4-1.16,4.3-3.23-1.17-3.91-3.24-4.2ZM284,202.26l.05-.38-2.92-.41-.34.34,3.2.45ZM316.55,206.89l-.13-.4-2.82-.4-.24.35,3.2.45ZM284.34,203.94l-.03-.48-4.51-.64-.25.44,4.8.68ZM320.14,215.36l-.23-.42-10.72-1.52-.34.34,11.29,1.6ZM286.18,210.53l-.23-.42-10.53-1.5-.24.35,11,1.56ZM317.35,208.63l-.31-.52-4.33-.61-.16.46,4.8.68ZM318.16,210.38l-.22-.51-5.93-.84-.25.44,6.4.91ZM318.7,211.99l-.12-.5-7.43-1.06-.25.44,7.81,1.11ZM319.32,213.71l-.22-.51-8.94-1.27-.25.44,9.41,1.34ZM285.12,207.22l-.03-.48-7.62-1.08-.35.43,7.99,1.14ZM285.74,208.94l-.22-.51-9.12-1.3-.25.44,9.59,1.36ZM284.77,205.63l-.12-.5-6.02-.86-.25.44,6.4.91Z" fill="#a7ca54"/>
  </g>
  <g>
    <path d="M337.62,215l.21,12.16c.08,4.56-1.23,11.71-6.55,11.8.39,11.87,9.68,15.99,15,15.9,2.28-.04,4.26-1.02,5.85-2.28,1.74,1.49,3.84,2.12,5.93,2.09,4.56-.08,7.72-4.22,7.62-10.29l-3.1-3.37c-2.52-2.81-3.47-8.3-3.54-12.86l-.25-14.82c-.12-6.93,2.3-15.62,5.35-21.09l-3.87-4.12c-1.16-1.41-3.83-1.74-5.44-1.71-1.04.02-1.9.13-2.65.33-.85.11-1.42.31-2.27.32-.95.02-1.82-.73-2.59-1.38-.58-.47-1.35-1.12-1.92-1.11s-1.23.59-1.88,1.27c-.75.77-1.59,1.36-2.54,1.37-.85.01-1.43-.17-2.19-.25-.86-.18-1.81-.25-2.76-.24-1.61.03-3.88.83-5.57,1.9,5.27,8.46,7.01,15.56,7.19,26.39Z" fill="#6d3e91"/>
    <path d="M352.47,211.33c-.13-7.88,1.64-15.61,5.79-22.62-1.15-.55-2.2-.72-3.34-.7-1.04.02-1.9.22-2.65.42-.85.2-1.42.21-2.28.23-.95.02-2.19-.53-2.77-1.09-.48-.47-1.16-1.41-1.73-1.4-.66.01-1.13.78-1.78,1.46-.66.58-1.41,1.16-2.36,1.18s-1.8.03-2.66-.15c-.76-.18-1.72-.35-2.67-.34-1.14.02-2.18.23-3.31.82,4.39,6.86,6.33,14.53,6.46,22.41l.24,14.25c.06,3.7-.25,13.4-5.93,14.35.11,6.74,4.89,8.18,7.07,8.15s4.26-.93,5.95-2.19c1.64,1.21,3.64,2.03,5.83,1.99s7-1.64,6.89-8.38c-5.71-.76-6.45-10.44-6.51-14.14l-.24-14.25Z"/>
    <path d="M346.29,238.8c-1.04.02-1.88.98-1.87,2.03s.89,1.89,1.93,1.87,1.89-.89,1.87-1.93-.89-1.98-1.93-1.96ZM346.13,229.68c-1.61.03-2.83,1.28-2.8,2.9s1.28,2.83,2.9,2.8,2.83-1.28,2.8-2.9-1.28-2.83-2.9-2.8ZM345.94,218.37c-2.09.04-3.77,1.77-3.74,3.77s1.77,3.77,3.86,3.74,3.77-1.77,3.74-3.86-1.77-3.68-3.86-3.64ZM350.26,215.07l-.29-.38-7.98.13-.18.38,8.45-.14ZM346.8,207.24l-.2-.38-1.61.03-.18.38,1.99-.03ZM347.4,208.85l-.1-.47-2.94.05-.18.48,3.23-.05ZM349.37,213.57l-.2-.47-6.65.11-.18.48,7.03-.12ZM348.68,211.96l-.2-.47-5.32.09-.09.48,5.6-.09ZM348.09,210.45l-.2-.47-4.08.07-.18.48,4.46-.08ZM340.95,215.13c1.66-2.69,3.48-7.66,4.74-11.96,1.49,4.06,3.57,8.97,5.23,11.79l-.06-3.32c-.13-7.79,1.26-15.6,5.04-22.03-1.05-.27-2.37.04-3.32.25-.85.2-1.8.51-2.65.52-1.14.02-2.29-.63-3.06-1.37-.48-.37-.97-1.12-1.44-1.12-.38,0-.94.68-1.4,1.35-.75.87-1.59,1.26-2.73,1.28-1.04.02-1.81-.16-2.86-.33-.95-.17-2.1-.34-3.23-.23,3.7,5.07,5.54,13.11,5.69,21.85l.06,3.32Z" fill="#a7ca54"/>
  </g>
  <g>
    <path d="M413.46,193.57c3.41-.85,5.48,0,8.6,12.55,4.56,18.35,1.49,20.58-.17,20.99-3.32.83-7.07-5.59-9.93-16.72-3.19-12.42-2.19-15.9,1.5-16.82ZM428.09,244.56c17.33-4.31,22.7-22.48,18.71-38.52-6-24.15-23.83-30.49-34.43-28.25-1.41.25-2.44.02-3.43-.42-.92-.55-1.61-.97-2.26-.81-.55.14-1.13.97-1.52,1.75-.48.81-1.36,1.61-2.84,1.98-12.68,3.35-17.58,19.05-13.66,34.82,5.87,23.6,23.3,33.46,39.43,29.45Z" fill="#6d3e91"/>
    <path d="M420.09,230.5c-9.03,2.25-11.97-9.55-14.58-20.06-2.22-8.94-4.84-19.45,4.2-21.7s11.74,8.24,13.96,17.18c2.61,10.51,5.55,22.31-3.58,24.58ZM422.25,239.16c18.72-4.65,20.4-22.69,16.91-36.7-3.74-15.03-15.24-25.87-26.4-23.1-1.48.37-2.7.18-3.62-.37-.69-.42-1.43-1.02-2.07-.86-.55.14-.92,1.01-1.5,1.84s-1.38,1.52-2.86,1.89c-11.16,2.77-16.24,17.74-12.51,32.77,3.48,14.01,13.33,29.19,32.04,24.53Z"/>
    <path d="M409.32,187.16c8.21-2.04,12.99,3.82,15.32,16.36.97-4.35,1.42-8.48,1.65-12.65,2.76,2.05,6.61,5.31,10.42,9.64-2.73-8.62-11.84-22.41-23.54-19.5-1.57.39-2.83.02-3.85-.51-.67-.32-1.38-.83-1.84-.72-.37.09-.67.85-1.11,1.45-.74.97-1.78,1.91-3.25,2.28-11.71,2.91-13.39,19.38-11.67,28.26,1.25-5.6,3.22-10.29,4.7-13.4,2.07,3.6,4.39,7.03,7.38,10.4-3.81-12.17-2.32-19.59,5.79-21.6ZM430.56,226.52c-1.01.25-1.61,1.38-1.36,2.39s1.29,1.64,2.3,1.39,1.64-1.29,1.39-2.3-1.31-1.73-2.33-1.48ZM432.6,216.62c-1.57.39-2.47,1.89-2.08,3.45s1.89,2.47,3.45,2.08,2.47-1.89,2.08-3.45-1.89-2.47-3.45-2.08ZM409.54,231.75c-1.01.25-1.61,1.38-1.36,2.39s1.29,1.64,2.3,1.39,1.64-1.29,1.39-2.3-1.31-1.73-2.33-1.48ZM402.73,224.04c-1.57.39-2.47,1.89-2.08,3.45s1.89,2.47,3.45,2.08c1.66-.41,2.47-1.89,2.08-3.45s-1.79-2.49-3.45-2.08ZM431.44,205.26c-2.03.5-3.37,2.6-2.89,4.54s2.67,3.25,4.7,2.75,3.28-2.58,2.77-4.6-2.55-3.18-4.58-2.68ZM398.16,213.53c-2.03.5-3.37,2.6-2.89,4.54s2.67,3.25,4.7,2.75,3.28-2.58,2.77-4.6-2.55-3.18-4.58-2.68ZM397.78,202.17l-.09-.37-2.86.71-.18.44,3.13-.78ZM429.68,194.24l-.28-.32-2.77.69-.09.41,3.13-.78ZM398.72,203.6l-.21-.44-4.43,1.1-.07.51,4.7-1.17ZM436.19,200.75l-.37-.3-10.51,2.61-.18.44,11.06-2.75ZM402.91,209.02l-.37-.3-10.33,2.57-.09.41,10.79-2.68ZM431.08,195.56l-.48-.37-4.24,1.05.02.48,4.7-1.17ZM432.49,196.87l-.39-.39-5.81,1.44-.07.51,6.27-1.56ZM433.59,198.16l-.3-.42-7.28,1.81-.07.51,7.65-1.9ZM434.81,199.52l-.39-.39-8.76,2.18-.07.51,9.22-2.29ZM400.68,206.35l-.21-.44-7.47,1.86-.16.53,7.84-1.95ZM401.9,207.71l-.39-.39-8.94,2.22-.07.51,9.4-2.34ZM399.76,205.01l-.3-.42-5.9,1.47-.07.51,6.27-1.56Z" fill="#a7ca54"/>
  </g>
  <g>
    <path d="M482.46,204.38c-1.2.57-5.21-2.59-11.23-14.98-5.9-12.34-5.13-14.49-3.15-15.42,1.29-.61,3.43.59,5.43,2.17,5.68,4.26,14.28,3.37,19.27,2.6.64.02,1.12-.53.92-.95-.28-.6-.74-1.12-1.19-1.64-.58-.57-1.37-1.14-1.74-1.91-.32-.69-.26-1.45-.14-2.77.04-1.49-.09-3.32-.65-4.52-.77-1.63-2-3.36-3.04-4.24-.92-.62-1.75-1.28-2.08-1.96-.28-.6-.51-1.54-.36-2.56-.01-1.15-.1-2.68-.55-3.63-.28-.6-.53-1.12-1.24-1.31l-6.66-2.12c-.47-.1-.8-.15-1.23.05s-.87.62-1.35,1.16c-1.84,2.12-3.69,3.31-6.44,4.6-1.72.81-3.94,1.43-5.09,1.24-1.52-.33-2.7-.83-3.3-.55-.52.24-.75,1.3-.98,1.93-.32.88-1.15,1.8-2.01,2.2-6.53,3.07-17.71,13.25-6.32,37.5,12.88,27.43,30.87,27.06,43.42,21.16,8.25-3.88,14.6-9.8,11.23-24.8-.62-2.44-1.44-5.52-1.63-8.16l-7.25-2.26c-2.92,1.16-5.39,3.06-6.63,5.11-2.19-.65-5.74.28-9.67,2.65,2.02,2.51,3.59,4.51,4.27,5.97,1.13,2.41,1.03,4.66-.6,5.42Z" fill="#6d3e91"/>
    <path d="M467.61,158.25c-3.1,1.45-5.06,1.96-6.07,1.59-.55-.27-1.55-.85-2.15-.56s-.8,1.43-1.03,2.06c-.27.76-1.27,1.54-2.13,1.95-9.37,4.4-13.98,17.17-5.45,35.31,5.9,12.55,17.55,25.97,34.06,18.22,8.17-3.84,14.58-8.74,11.39-22.67-.42-2.01-.96-4.27-1.14-7.12-2.84,1.33-4.8,3.2-5.74,5.21-2.15-.56-4.67-.33-7.76,1.13,6.25,6.83,4.53,12.99.57,14.85-5.85,2.75-11.61-4.83-17.51-17.39-4.2-8.94-8.44-17.97-.02-21.93,1.72-.81,3.49-.17,6.1,2.7,3.1,3.48,10.84,6.98,15.65,4.93-1.71-1.4-2.66-2.53-2.98-3.22-.4-.86-.29-1.96-.31-3.11s.03-3.06-.69-4.61c-.93-1.98-1.92-3.19-2.97-3.85-.87-.74-1.62-1.44-1.82-1.87-.24-.52-.34-1.84-.31-2.9.06-.76,0-1.78-.52-2.9-.4-.86-.89-1.68-1.32-1.48-.52.24-1.17,1.08-1.79,1.78-1.09,1.25-3.72,2.8-6.04,3.89Z"/>
    <path d="M489.71,194.57c-.95.44-1.23,1.63-.79,2.57s1.46,1.31,2.4.87,1.4-1.5.95-2.44c-.44-.95-1.62-1.44-2.57-1ZM490.45,202.83c-.95.44-1.23,1.63-.79,2.57s1.5,1.4,2.44.95c.95-.44,1.36-1.58.91-2.53-.44-.95-1.62-1.44-2.57-1ZM472.48,211.27c-.95.44-1.32,1.67-.87,2.61s1.58,1.36,2.53.91,1.36-1.58.91-2.53-1.62-1.44-2.57-1ZM464.56,204.92c-1.46.69-2.05,2.33-1.37,3.79s2.33,2.05,3.79,1.37c1.55-.73,2.05-2.33,1.37-3.79s-2.24-2.09-3.79-1.37ZM458.72,195.17c-1.89.89-2.8,3.2-1.95,5.01s3.25,2.67,5.14,1.78,2.71-3.16,1.82-5.05c-.85-1.81-3.12-2.63-5.01-1.74ZM455.63,184.34l-.33-.26-2.67,1.25-.18.51,3.18-1.49ZM456.66,185.64l-.29-.39-4.13,1.94-.06.55,4.47-2.1ZM461.73,190.19l-.33-.26-9.72,4.56v.42s10.05-4.73,10.05-4.73ZM460.31,189.17l-.55-.27-8,3.76.03.51,8.51-4ZM458.94,188.04l-.29-.39-6.79,3.19.03.51,7.05-3.31ZM457.86,186.86l-.37-.35-5.5,2.58.03.51,5.85-2.75ZM468.17,159.66c-3.53,1.66-5.57,1.78-6.58,1.41-.67-.31-1.14-.41-1.48-.25s-.45.84-.81,1.64c-.41.93-1.32,1.88-2.35,2.36-11.26,5.29-9.81,20.46-5.84,30.24-.1-4.46.63-10.06,2.17-14.14,2.76,3.42,6.08,6.69,9,8.89-3.96-6.64-8.49-17.63,1.65-22.4,2.58-1.21,5.36-.42,6.81,1.31,3.13,3.99,7.97,6.02,11.78,6.54-.54-.48-.78-1.21-1.14-1.98-.57-1.2-.32-2.47-.25-3.66.2-1.14.06-2.34-.43-3.37-.57-1.2-1.56-2.21-2.31-2.9-.95-.92-2.12-1.84-2.53-2.7-.4-.86-.17-1.92-.18-3.06-.01-1.15-.07-2.17-.44-2.94-1.88,2.25-4.68,3.88-7.09,5.01Z" fill="#a7ca54"/>
  </g>
  <g>
    <path d="M533.27,173.65c-1.08.78-5.59-1.6-13.77-12.68-8.05-11.06-7.68-13.31-5.9-14.59,1.16-.83,3.48-.04,5.73,1.15,6.36,3.16,14.66.71,19.42-.96.63-.1,1-.72.73-1.11-.39-.54-.93-.97-1.47-1.4-.67-.45-1.56-.87-2.06-1.56-.44-.62-.52-1.38-.65-2.69-.23-1.47-.69-3.25-1.47-4.33-1.05-1.47-2.58-2.94-3.76-3.61-1.02-.44-1.96-.93-2.4-1.55-.39-.54-.79-1.42-.82-2.45-.22-1.13-.59-2.62-1.2-3.47-.39-.54-.72-1-1.46-1.06l-6.94-.87c-.47-.01-.82,0-1.2.28s-.74.76-1.11,1.38c-1.42,2.42-3.03,3.93-5.5,5.7-1.54,1.11-3.62,2.13-4.78,2.14-1.56-.05-2.81-.33-3.35.06-.46.33-.51,1.41-.61,2.08-.15.93-.8,1.98-1.57,2.53-5.87,4.21-15,16.25.62,38.02,17.66,24.62,35.28,20.99,46.55,12.9,7.41-5.32,12.58-12.29,6.53-26.43-1.05-2.28-2.42-5.16-3.09-7.72l-7.54-.9c-2.66,1.67-4.74,3.99-5.59,6.23-2.28-.24-5.6,1.33-9.02,4.37,2.44,2.1,4.35,3.78,5.29,5.09,1.55,2.16,1.86,4.39.4,5.44Z" fill="#6d3e91"/>
    <path d="M510.26,130.99c-2.78,1.99-4.62,2.85-5.68,2.67-.59-.16-1.68-.55-2.22-.16-.54.39-.53,1.55-.64,2.21-.13.8-.97,1.75-1.74,2.3-8.41,6.04-10.62,19.43,1.07,35.71,8.08,11.27,21.99,22.34,36.81,11.71,7.33-5.26,12.74-11.25,7.07-24.37-.78-1.9-1.72-4.03-2.42-6.8-2.55,1.83-4.13,4.02-4.69,6.17-2.22-.16-4.65.53-7.43,2.52,7.39,5.57,6.82,11.95,3.27,14.49-5.25,3.77-12.3-2.64-20.38-13.91-5.76-8.03-11.57-16.13-4.01-21.56,1.54-1.11,3.4-.8,6.49,1.54,3.68,2.85,11.93,4.89,16.28,2-1.93-1.07-3.07-2-3.52-2.62-.55-.77-.64-1.88-.87-3s-.53-3.01-1.52-4.4c-1.27-1.78-2.47-2.79-3.62-3.25-1-.57-1.86-1.12-2.13-1.51-.33-.46-.67-1.74-.83-2.79-.08-.76-.32-1.76-1.04-2.76-.55-.77-1.18-1.49-1.57-1.21-.46.33-.96,1.27-1.43,2.08-.85,1.43-3.15,3.43-5.24,4.93Z"/>
    <path d="M538.61,162.68c-.85.61-.91,1.82-.3,2.67s1.67,1.02,2.52.41,1.1-1.73.49-2.57c-.61-.85-1.86-1.12-2.71-.51ZM540.84,170.67c-.85.61-.91,1.82-.3,2.67s1.73,1.1,2.57.49c.85-.61,1.05-1.8.44-2.65-.61-.85-1.86-1.12-2.71-.51ZM524.7,182.25c-.85.61-.99,1.88-.38,2.73s1.8,1.05,2.65.44,1.05-1.8.44-2.65-1.86-1.12-2.71-.51ZM515.76,177.44c-1.31.94-1.6,2.66-.65,3.98s2.66,1.6,3.98.65c1.39-1,1.6-2.66.65-3.98s-2.59-1.65-3.98-.65ZM508.24,168.92c-1.7,1.22-2.17,3.66-1.01,5.28,1.22,1.7,3.68,2.04,5.38.82s2.09-3.6.87-5.3c-1.16-1.62-3.55-2.01-5.25-.8ZM503.23,158.83l-.38-.2-2.39,1.72-.09.53,2.86-2.05ZM504.48,159.92l-.35-.33-3.71,2.66.05.55,4.01-2.88ZM510.3,163.47l-.38-.2-8.72,6.26.07.42,9.03-6.48ZM508.72,162.73l-.59-.16-7.18,5.15.12.5,7.64-5.48ZM507.16,161.86l-.35-.33-6.1,4.37.12.5,6.33-4.54ZM505.89,160.9l-.43-.28-4.94,3.54.12.5,5.25-3.77ZM511.07,132.28c-3.16,2.27-5.15,2.76-6.21,2.59-.72-.19-1.19-.2-1.5.03s-.29.91-.49,1.76c-.23.98-.96,2.09-1.88,2.75-10.11,7.25-5.92,21.9-.24,30.8-.91-4.37-1.21-10-.44-14.3,3.34,2.86,7.2,5.47,10.47,7.1-5.1-5.81-11.56-15.79-2.45-22.33,2.32-1.66,5.2-1.39,6.94.05,3.81,3.35,8.93,4.47,12.78,4.28-.62-.37-.99-1.05-1.48-1.74-.78-1.08-.77-2.37-.91-3.55-.01-1.16-.37-2.31-1.03-3.23-.78-1.08-1.94-1.88-2.8-2.44-1.11-.73-2.42-1.42-2.98-2.19-.55-.77-.51-1.85-.73-2.98s-.47-2.12-.97-2.81c-1.44,2.55-3.9,4.67-6.06,6.22Z" fill="#a7ca54"/>
  </g>
  <g>
    <path d="M570.86,129.07l6.34-6.82c4.73,4.4,6.27,7.9,3.69,10.69-2.2,2.37-5.85.01-10.02-3.87ZM546.5,135.47l8.91,8.28c3.06,2.84,7.58,8.59,4.15,12.28,9.46,8.66,18.83,3.88,21.67.82,1.55-1.67,2.07-3.91,2.34-5.73,1.86-.47,4.12-1.23,5.67-2.9,2.33-2.51,3.12-6.57.22-10.43,4.87.9,9.8-.36,12.71-3.49,1.36-1.46,2.35-3.65,2.41-5.8,1.81-.13,3.93-1.02,5.67-2.9,3.1-3.34,2.31-8.49-2.15-12.62l-4.57-.1c-3.83-.06-8.39-3.25-11.73-6.36l-10.86-10.09c-5.08-4.72-9.73-12.41-11.5-18.46l-5.65-.06c-1.88-.07-3.91,1.56-4.55,2.25-.52.56-.9,1.11-1.41,1.8-.51.83-1.01,1.65-1.66,2.35-.71.77-2.11,1.02-3.39,1.13-.74-.04-1.4.25-1.85.74s-.56,1.3-.59,2.31c-.03.88,0,2.08-.64,2.78-.52.56-1.1,1.05-1.63,1.47-.72.5-1.44.99-2.09,1.69-1.1,1.18-2.09,3.37-2.69,5.54-2.32.96-4.43,2.11-5.52,3.3-.71.77-1.16,1.25-1.47,2-.31.62-.89,1.38-1.47,2-.65.7-1.72.87-2.79.91-.87.1-1.74.2-2.13.62-.39.42-.49,1.23-.53,2.1.05,1.34-.18,2.43-.63,2.91-.52.56-1.04.98-1.69,1.54-.72.5-1.44.99-2.15,1.76-1.23,1.32-2.03,3.3-2.44,5,9.64,2.47,16.08,5.99,24.02,13.36ZM564.6,110.54l-6.34,6.82-2.23-2.07c-2.16-2-6.14-7.91-7.29-13.64,6,2.2,12.71,5.58,15.85,8.89Z" fill="#6d3e91"/>
    <path d="M572.94,117.9c.71-.77,1.59-.6,2.01-.21,5.15,4.78,7.38,6.99,8.41,9.23,1.24,2.58.4,5.3-.64,6.41,4.94,4.59,9.29,2.14,10.77.54,1.49-1.6,2.22-3.64,2.54-5.81,2-.34,3.99-1.22,5.47-2.82,1.49-1.6,3.67-6.18-1.27-10.77-4.51,3.59-11.99-2.58-14.71-5.1l-10.44-9.7c-5.78-5.37-10.12-11.99-12.29-19.85-1.19.45-2.04,1.08-2.88,1.99-.65.7-1.09,1.45-1.47,2.14-.44.76-.83,1.17-1.41,1.8-.71.77-1.85.87-2.72.97-.93.17-1.81.13-2.2.55-.45.49-.28,1.42-.32,2.3-.03.88-.32,2.16-.91,2.79-.52.56-.97,1.04-1.63,1.47-.66.43-1.44.99-2.09,1.69-.84.9-1.41,1.8-1.77,3.02,5.99,2.06,15.41,6.02,20.49,10.74.77.71.79,1.38.08,2.15l-9.76,10.51c-.71.77-1.45.86-2.21.15-5.08-4.72-9.72-13.82-12.22-19.65-1.19.45-2.04,1.08-2.82,1.92-.71.77-1.15,1.52-1.53,2.21-.44.76-.83,1.17-1.41,1.8s-2.25.89-3.12.99c-.6.09-1.41.12-1.8.54s-.42,1.29-.39,2.1c-.03,1.01-.06,2.15-.51,2.64-.52.56-1.03,1.11-1.95,1.82-.66.43-1.44.99-2.09,1.69-.78.84-1.35,1.73-1.71,2.95,7.99,1.59,14.86,5.5,20.63,10.87l10.44,9.7c2.71,2.52,9.49,9.46,6.24,14.22,4.94,4.59,9.29,2.14,10.77.54,1.49-1.6,2.28-3.71,2.48-5.74,2.07-.41,4.05-1.29,5.54-2.89,1.49-1.6,3.67-6.18-1.27-10.77-1.1,1.18-3.75,2.22-6.41,1.18-2.25-.93-4.68-2.92-9.83-7.7-.42-.39-.59-1.32.12-2.09l9.76-10.51Z"/>
    <path d="M583.99,116.89c-1.16,1.25-1.03,2.93.15,4.03,1.18,1.1,2.86,1.1,4.03-.15,1.1-1.18,1.03-2.93-.15-4.03-1.18-1.1-2.93-1.03-4.03.15ZM562.98,139.51c-1.1,1.18-1.03,2.93.15,4.03s2.93,1.03,4.03-.15,1.03-2.93-.15-4.03-2.93-1.03-4.03.15ZM590.67,123.09c-.58.63-.55,1.57.08,2.15.63.58,1.57.55,2.15-.08.52-.56.48-1.5-.14-2.08s-1.57-.55-2.08,0ZM569.66,145.71c-.71.77-.6,2.04.17,2.75.77.71,1.97.67,2.68-.1.71-.77.67-1.97-.1-2.68-.77-.71-2.04-.73-2.75.03ZM554.7,131.81c-1.42,1.53-1.33,3.95.13,5.31,1.53,1.42,3.95,1.33,5.37-.2s1.33-3.95-.2-5.37c-1.46-1.36-3.88-1.27-5.3.26ZM575.71,109.19c-1.42,1.53-1.4,4.02.06,5.37,1.53,1.42,4.01,1.26,5.43-.27,1.42-1.53,1.33-3.95-.2-5.37-1.46-1.36-3.88-1.27-5.3.26ZM576.25,103.86l-.47-.05-5.3,5.71.08.47,5.69-6.12ZM574.68,103.32l-.48-.18-4.33,4.66.15.53,4.65-5.01ZM568.21,100.93l-.41-.12-1.03,1.11.15.4,1.29-1.39ZM569.85,101.55l-.48-.18-1.87,2.02.28.39,2.07-2.23ZM572.98,102.77l-.41-.25-3.56,3.83.35.32,3.62-3.9ZM571.48,102.16l-.54-.11-2.65,2.85.22.46,2.97-3.2ZM547.2,123.55l-.34-.19-1.23,1.32.15.4,1.42-1.53ZM554.92,126.83l-.41-.12-5.3,5.71.15.4,5.56-5.99ZM548.77,124.23l-.48-.18-1.94,2.09.28.39,2.13-2.3ZM553.35,126.28l-.48-.18-4.4,4.73.15.53,4.72-5.08ZM551.84,125.53l-.48-.18-3.49,3.76.15.53,3.81-4.11ZM550.41,124.85l-.48-.18-2.78,2.99.22.46,3.04-3.27ZM548.9,133.17c-1.75-3.83-3.51-7.8-5.34-11.7,3.21,1.43,6.49,2.79,9.83,4.07,1.37.62,3.18.62,4.35-.63l11.44-12.32c1.1-1.18.9-2.92.24-4.31-1.66-3.1-3.19-6.34-4.85-9.43,3.83,1.74,7.79,3.34,12.06,4.46l-2.44-2.26c-7.66-7.25-10.51-13.53-12.33-18.97-.97.91-1.49,1.6-1.99,2.43-.44.76-.82,1.58-1.46,2.27-.65.7-1.71,1-3.05,1.19-.8.16-1.74.2-2,.48-.32.35-.22,1.22-.32,2.16-.03,1.01-.19,2.16-.9,2.92-.78.84-1.43,1.4-2.28,1.9-.79.43-1.64,1.2-2.2,2.37,7.01,2.23,14.1,5.19,19.32,10.04,1.18,1.1,1.92,2.82.43,4.42l-10.28,11.07c-1.29,1.39-3.05,1.19-4.3.02-4.52-4.2-8.84-11.84-11.85-18.79-.98.64-1.62,1.74-2.05,2.63-.37.82-.89,1.51-1.6,2.28-.58.63-1.84,1.01-2.98,1.12-.94.03-1.68.13-2,.48s-.3,1.02-.26,1.96c.1,1,0,2.08-.64,2.78-.84.9-1.63,1.47-2.41,2.04-.79.43-1.57,1.13-2.21,1.96,6.1,1.39,13.02,4.96,19.63,11.11l2.44,2.26Z" fill="#a7ca54"/>
  </g>
  <g>
    <path d="M589.29,85.25l10.16,6.69c3.81,2.51,8.98,7.62,6.05,12.06,10.02,6.37,18.66,1.03,21.59-3.42,1.25-1.9,1.56-4.09,1.41-6.12,2.21-.59,3.91-1.97,5.06-3.72,2.51-3.81.87-8.75-4.21-12.1l-4.53.66c-3.74.5-8.81-1.82-12.62-4.33l-12.38-8.15c-5.79-3.81-11.6-10.71-14.4-16.31l-5.58.88c-1.82.17-3.6,2.18-4.49,3.53-.57.87-.97,1.64-1.22,2.38-.39.77-.55,1.35-1.02,2.06-.52.79-1.63,1.09-2.6,1.36-.71.21-1.68.48-2,.96s-.2,1.34-.01,2.27c.22,1.05.22,2.08-.3,2.87-.47.71-.94,1.09-1.44,1.67-.63.61-1.23,1.35-1.75,2.14-.89,1.35-1.51,3.67-1.57,5.67,9.96.42,16.8,2.99,25.85,8.94Z" fill="#6d3e91"/>
    <path d="M594.64,70.91c-6.59-4.34-11.97-10.16-15.41-17.54-1.1.64-1.84,1.41-2.46,2.36-.57.87-.89,1.69-1.15,2.43-.31.82-.62,1.29-1.1,2.01-.52.79-1.68,1.51-2.47,1.67-.66.14-1.82.17-2.13.64-.37.56,0,1.37.2,2.29.11.87.17,1.82-.35,2.61s-.99,1.51-1.62,2.12c-.58.53-1.26,1.22-1.78,2.01-.63.95-1.04,1.93-1.19,3.2,8.14.24,15.56,2.97,22.15,7.3l11.9,7.84c3.09,2.04,10.93,7.76,8.51,12.99,5.63,3.71,9.52.58,10.72-1.25s1.64-4.04,1.55-6.15c1.92-.67,3.73-1.87,4.93-3.69s2.6-6.71-3.04-10.42c-3.85,4.29-12.26-.56-15.35-2.6l-11.9-7.84Z"/>
    <path d="M613.83,91.51c-.57.87-.25,2.11.62,2.68s2.06.33,2.63-.54.33-2.06-.54-2.63-2.14-.38-2.71.49ZM606.22,86.5c-.89,1.35-.54,3.06.81,3.95s3.06.54,3.95-.81.54-3.06-.81-3.95-3.06-.54-3.95.81ZM596.77,80.28c-1.15,1.75-.66,4.11,1,5.21s4.11.66,5.26-1.08.66-4.11-1.08-5.26-4.03-.61-5.18,1.14ZM596.48,74.85l-.47.03-4.39,6.67.21.37,4.65-7.06ZM588.07,73.29l-.42-.05-.89,1.35.21.37,1.1-1.67ZM589.73,73.71l-.45-.18-1.62,2.46.29.42,1.78-2.7ZM594.74,74.73l-.5-.1-3.66,5.55.29.42,3.87-5.87ZM593.03,74.4l-.5-.1-2.93,4.44.34.34,3.08-4.68ZM591.44,74.04l-.5-.1-2.25,3.41.29.42,2.46-3.73ZM591.28,82.58c-1.28-2.89-4.36-7.19-7.2-10.66,4.2,1.06,9.42,2.11,12.69,2.33l-2.78-1.83c-6.51-4.28-12.18-9.84-15.35-16.59-.81.72-1.31,1.98-1.67,2.88-.31.82-.6,1.77-1.07,2.48-.63.95-1.81,1.54-2.86,1.76-.58.19-1.47.17-1.74.56-.21.32.03,1.16.33,1.92.3,1.1.14,2.03-.48,2.98-.57.87-1.15,1.4-1.88,2.17-.68.69-1.47,1.54-2.01,2.54,6.27-.19,13.95,2.82,21.25,7.63l2.78,1.83Z" fill="#a7ca54"/>
  </g>
</svg>